<svg width="200" height="36" viewBox="0 0 200 36" fill="none" xmlns="http://www.w3.org/2000/svg">
<g clip-path="url(#clip0_279_4398)">
<path d="M34.6593 12.0169C32.2128 7.70291 23.3171 8.08749 14.7964 12.8808C6.2758 17.6685 1.34928 25.0536 3.79575 29.3676C6.24221 33.6815 15.1379 33.297 23.6586 28.5037C32.1792 23.7103 37.1002 16.3309 34.6537 12.0113L34.6593 12.0169ZM16.0785 24.2789C12.2492 26.4358 8.48714 27.0266 7.67538 25.5998C6.86363 24.173 9.31569 21.2747 13.1505 19.1177C16.9798 16.9607 20.7419 16.3699 21.5536 17.7967C22.3654 19.2236 19.9133 22.1219 16.0785 24.2789Z" fill="#999999"/>
<path d="M14.0461 34.7906C14.0461 34.7906 27.8404 34.5064 37.2624 24.3457C42.3233 18.8891 45.9006 7.24022 37.2624 0.306641C37.2624 0.306641 54.0517 9.49754 42.4856 26.38C32.6662 40.7098 14.0461 34.7906 14.0461 34.7906Z" fill="#999999"/>
<path d="M0 22.54C0 22.54 7.45136 5.13355 26.9559 5.13355C35.2862 5.13355 38.1693 11.6491 38.4493 13.3825C38.4437 13.3881 41.0917 -0.200403 25.8418 0.000247334C2.85514 0.301223 0 22.54 0 22.54Z" fill="#999999"/>
<path d="M78.9475 19.781H55.5186V17.1559H65.1813V15.0657H60.8482C60.0252 15.0657 59.4486 14.8985 59.1071 14.5697C58.7656 14.2409 58.592 13.7058 58.592 12.9756V6.44336H75.8405V9.0964H62.718V11.7494C62.718 12.2065 62.9587 12.4406 63.4346 12.4406H75.9188V15.0657H69.2792V17.1559H78.9419V19.781H78.9475ZM74.6144 25.9064C74.6144 27.5395 73.9986 28.8159 72.767 29.7355C71.485 30.6886 69.6375 31.1624 67.2302 31.1624C64.823 31.1624 62.9867 30.6942 61.7327 29.7578C60.4787 28.8214 59.8517 27.5395 59.8517 25.9064C59.8517 24.2734 60.4787 23.0082 61.7327 22.0662C62.9867 21.1243 64.823 20.6505 67.2302 20.6505C69.6375 20.6505 71.485 21.1354 72.767 22.1052C73.9986 23.0249 74.6144 24.2901 74.6144 25.9064ZM70.6676 25.9064C70.6676 25.1094 70.3541 24.474 69.7327 24.0058C69.1113 23.5376 68.2771 23.3036 67.2358 23.3036C66.1946 23.3036 65.3604 23.5376 64.739 24.0058C64.1176 24.474 63.8041 25.1094 63.8041 25.9064C63.8041 26.7035 64.1176 27.3667 64.739 27.8349C65.3604 28.3031 66.1946 28.5372 67.2358 28.5372C68.2771 28.5372 69.1113 28.3031 69.7327 27.8349C70.3541 27.3667 70.6676 26.7258 70.6676 25.9064Z" fill="#999999"/>
<path d="M101.833 22.7184H97.7075V17.4346H92.9657C91.7173 18.9673 89.8922 19.7309 87.4793 19.7309C85.38 19.7309 83.7005 19.129 82.4409 17.9306C81.1868 16.7323 80.5598 15.0825 80.5598 12.9924C80.5598 10.9023 81.1924 9.24137 82.4576 8.01517C83.7061 6.83914 85.38 6.25391 87.4793 6.25391C89.853 6.25391 91.6669 6.9952 92.9153 8.47221H97.7075V6.35423H101.833V22.7128V22.7184ZM90.508 12.9924C90.508 11.8888 90.2393 10.9859 89.7019 10.2892C89.1644 9.5925 88.4255 9.24137 87.4849 9.24137C86.5444 9.24137 85.783 9.5925 85.24 10.2892C84.7026 10.9859 84.4339 11.8888 84.4339 12.9924C84.4339 14.096 84.7026 14.9989 85.24 15.6956C85.7774 16.3923 86.5276 16.7435 87.4849 16.7435C88.4423 16.7435 89.1644 16.3923 89.7019 15.6956C90.2393 14.9989 90.508 14.096 90.508 12.9924ZM102.628 29.8136H87.0203C85.7383 29.8136 85.1001 29.2284 85.1001 28.0523V21.6482H89.226V26.4694C89.226 26.893 89.4723 27.1104 89.9706 27.1104H102.634V29.8136H102.628ZM97.7075 14.8094V11.1085H94.1973C94.3149 11.7049 94.3765 12.3347 94.3765 12.998C94.3765 13.6612 94.3149 14.2465 94.1973 14.8094H97.7075Z" fill="#999999"/>
<path d="M122.29 29.9365H118.802V15.2611H117.111C116.871 17.1506 116.188 18.6109 115.062 19.6364C113.937 20.6675 112.493 21.1803 110.729 21.1803C108.747 21.1803 107.169 20.5338 105.999 19.2407C104.829 17.9476 104.241 16.1362 104.241 13.8064C104.241 11.4766 104.829 9.65407 106.01 8.34427C107.174 7.08464 108.742 6.45482 110.724 6.45482C112.521 6.45482 113.982 6.98431 115.118 8.04887C116.255 9.11343 116.927 10.6239 117.128 12.5802H118.796V6.35449H122.284V29.9309L122.29 29.9365ZM113.495 13.812C113.495 12.4688 113.248 11.4321 112.75 10.7019C112.252 9.97177 111.58 9.60391 110.724 9.60391C109.867 9.60391 109.195 9.97177 108.697 10.7019C108.199 11.4321 107.952 12.4688 107.952 13.812C107.952 15.1552 108.199 16.1919 108.697 16.9276C109.19 17.6578 109.867 18.0256 110.724 18.0256C111.58 18.0256 112.252 17.6578 112.75 16.9276C113.243 16.1975 113.495 15.1608 113.495 13.812ZM127.233 30.2207H123.617V6.36007H127.233V30.2207Z" fill="#999999"/>
<path d="M152.761 25.5772H129.333V22.8963H152.761V25.5772ZM151.328 16.4922L150.225 19.0449C148.311 18.6381 146.475 17.8522 144.717 16.6817C142.959 15.5168 141.772 14.2683 141.156 12.9418C140.574 14.3018 139.465 15.5335 137.825 16.6315C136.185 17.7296 134.27 18.5433 132.081 19.0672L130.878 16.4643C136.241 14.9316 138.928 12.0389 138.928 7.78622V6.81641H143.183V7.86425C143.183 9.82059 143.877 11.5373 145.271 13.0198C146.665 14.5024 148.686 15.6562 151.334 16.4922H151.328Z" fill="#999999"/>
<path d="M171.37 22.384H167.883V14.3189H166.293C166.052 16.0189 165.391 17.3343 164.305 18.2595C163.219 19.1847 161.808 19.6529 160.062 19.6529C158.08 19.6529 156.529 19.0621 155.409 17.8805C154.29 16.6989 153.73 15.0546 153.73 12.9422C153.73 10.8298 154.29 9.1912 155.409 8.01517C156.529 6.83914 158.08 6.25391 160.062 6.25391C161.803 6.25391 163.225 6.72209 164.316 7.65846C165.408 8.59483 166.069 9.92135 166.293 11.638H167.883V6.35423H171.37V22.3784V22.384ZM162.76 12.9422C162.76 11.7829 162.519 10.88 162.032 10.2223C161.545 9.57021 160.89 9.24137 160.073 9.24137C159.256 9.24137 158.578 9.57021 158.097 10.2223C157.615 10.88 157.38 11.7829 157.38 12.9422C157.38 14.1016 157.621 15.0268 158.097 15.6733C158.573 16.3199 159.233 16.6431 160.073 16.6431C160.913 16.6431 161.545 16.3199 162.032 15.6733C162.519 15.0268 162.76 14.1183 162.76 12.9422ZM177.008 29.8359H160.885C160.202 29.8359 159.709 29.7021 159.412 29.4402C159.116 29.1782 158.964 28.7212 158.964 28.0746V21.5702H162.962V26.4973C162.962 26.9209 163.208 27.1327 163.706 27.1327H177.008V29.8359ZM176.319 22.4341H172.703V6.3598H176.319V22.4341Z" fill="#999999"/>
<path d="M200 30.22H195.874V22.2609C195.309 22.8406 194.172 23.3255 192.465 23.7156C191.015 24.0556 188.865 24.2284 186.032 24.2284C184.717 24.2284 183.608 24.1727 182.712 24.0612C181.817 23.9497 181.178 23.632 180.803 23.1025C180.495 22.6789 180.344 22.0212 180.344 21.135V6.71609H192.134V9.397H184.47V13.6608H191.798V16.3139H184.47V20.4216C184.47 20.9344 184.7 21.2186 185.164 21.2911C185.948 21.3914 187.001 21.4472 188.316 21.4472C190.348 21.4472 191.86 21.3413 192.84 21.1295C193.819 20.9177 194.536 20.6669 194.978 20.377C195.577 19.9534 195.874 19.3403 195.874 18.5377V6.35938H200V30.22Z" fill="#999999"/>
</g>
<defs>
<clipPath id="clip0_279_4398">
<rect width="200" height="36" fill="white"/>
</clipPath>
</defs>
</svg>
