<svg width="680" height="382" viewBox="0 0 680 382" fill="none" xmlns="http://www.w3.org/2000/svg">
<g clip-path="url(#clip0_54_185)">
<rect width="680" height="381.86" fill="white"/>
<path d="M640.191 328.915C641.285 331.925 643.109 334.341 645.663 336.165C648.308 337.898 650.816 338.765 653.187 338.765C656.105 338.765 658.385 338.309 660.027 337.397C661.669 336.393 662.489 335.025 662.489 333.293C662.489 331.925 661.623 330.785 659.89 329.873C658.249 328.961 655.376 327.729 651.272 326.179C646.894 324.629 643.201 323.124 640.191 321.665C637.272 320.114 634.719 318.017 632.53 315.372C630.341 312.727 629.247 309.398 629.247 305.385C629.247 299.366 631.618 294.624 636.36 291.158C641.194 287.692 647.259 285.96 654.555 285.96C659.48 285.96 664.313 287.419 669.056 290.337C673.798 293.164 676.99 297.36 678.632 302.923L664.268 308.395C662.535 303.288 659.297 300.734 654.555 300.734C652.093 300.734 650.177 301.144 648.809 301.965C647.533 302.786 646.894 303.926 646.894 305.385C646.894 306.753 647.669 307.848 649.22 308.668C650.861 309.489 653.78 310.675 657.975 312.225C662.261 313.776 665.909 315.326 668.919 316.877C671.929 318.336 674.528 320.388 676.717 323.033C678.906 325.677 680 328.961 680 332.882C680 339.175 677.538 344.191 672.613 347.93C667.779 351.67 661.304 353.539 653.187 353.539C647.897 353.539 642.699 351.943 637.592 348.751C632.484 345.559 628.836 341.501 626.648 336.576L640.191 328.915Z" fill="#313131"/>
<path d="M597.342 318.108C597.342 312.818 596.156 308.76 593.785 305.932C591.505 303.105 588.131 301.692 583.662 301.692C579.649 301.783 576.32 303.333 573.676 306.343C571.031 309.261 569.754 313.183 569.845 318.108V353.266H552.198V286.643H569.845V296.083C571.943 293.256 574.587 291.021 577.78 289.38C580.972 287.738 584.164 286.917 587.356 286.917C591.46 286.917 595.609 287.875 599.804 289.79C604.091 291.705 607.693 294.988 610.612 299.64C613.53 304.2 614.989 310.264 614.989 317.834V353.266H597.342V318.108Z" fill="#313131"/>
<path d="M508.588 338.765C513.148 338.765 516.75 337.123 519.395 333.84C522.04 330.465 523.362 325.86 523.362 320.023C523.362 314.277 522.04 309.717 519.395 306.343C516.75 302.968 513.148 301.281 508.588 301.281C504.028 301.281 500.425 302.968 497.781 306.343C495.136 309.626 493.813 314.186 493.813 320.023C493.813 325.86 495.136 330.465 497.781 333.84C500.425 337.123 504.028 338.765 508.588 338.765ZM508.588 286.507C514.881 286.507 520.49 287.92 525.414 290.748C530.339 293.575 534.17 297.542 536.906 302.649C539.642 307.756 541.01 313.548 541.01 320.023C541.01 326.498 539.642 332.289 536.906 337.397C534.17 342.413 530.339 346.38 525.414 349.298C520.49 352.126 514.881 353.539 508.588 353.539C502.295 353.539 496.686 352.126 491.761 349.298C486.837 346.38 483.006 342.413 480.27 337.397C477.534 332.289 476.166 326.498 476.166 320.023C476.166 313.548 477.534 307.756 480.27 302.649C483.006 297.542 486.837 293.575 491.761 290.748C496.686 287.92 502.295 286.507 508.588 286.507Z" fill="#313131"/>
<path d="M462.957 286.507V353.129H445.31V286.507H462.957ZM454.202 252.99C456.938 252.99 459.172 253.902 460.905 255.727C462.729 257.459 463.641 259.694 463.641 262.43C463.641 265.257 462.729 267.583 460.905 269.407C459.172 271.139 456.938 272.006 454.202 272.006C451.374 272.006 449.049 271.139 447.225 269.407C445.492 267.583 444.626 265.257 444.626 262.43C444.626 259.694 445.492 257.459 447.225 255.727C449.049 253.902 451.374 252.99 454.202 252.99Z" fill="#313131"/>
<path d="M399.3 301.555H386.304V286.37H399.3V262.84H416.948V286.37H432.68V301.555H416.948V353.266H399.3V301.555Z" fill="#313131"/>
<path d="M340.223 353.676C334.113 353.676 328.732 352.262 324.081 349.435C319.43 346.517 315.782 342.549 313.137 337.533C310.583 332.426 309.306 326.635 309.306 320.16C309.306 313.684 310.583 307.939 313.137 302.923C315.782 297.816 319.43 293.848 324.081 291.021C328.732 288.194 334.113 286.78 340.223 286.78C343.507 286.78 346.79 287.51 350.073 288.969C353.356 290.428 356.138 292.617 358.418 295.536V286.643H376.065V353.266H358.418V344.921C356.138 347.93 353.356 350.119 350.073 351.487C346.79 352.946 343.507 353.676 340.223 353.676ZM342.275 339.038C346.744 339.038 350.529 337.26 353.63 333.703C356.822 330.055 358.463 325.541 358.555 320.16C358.463 314.779 356.822 310.31 353.63 306.753C350.529 303.105 346.744 301.281 342.275 301.281C337.533 301.281 333.794 302.968 331.058 306.343C328.322 309.717 326.954 314.323 326.954 320.16C326.954 325.997 328.322 330.602 331.058 333.977C333.794 337.351 337.533 339.038 342.275 339.038Z" fill="#313131"/>
<path d="M267.046 286.644H284.557V296.22C286.745 293.119 289.573 290.702 293.038 288.969C296.595 287.236 300.015 286.461 303.298 286.644V302.513C299.559 302.33 296.276 303.151 293.449 304.975C290.622 306.708 288.433 309.033 286.882 311.952C285.332 314.87 284.557 317.834 284.557 320.844V353.266H267.046V286.644Z" fill="#313131"/>
<path d="M224.518 353.402C218.225 353.402 212.616 351.989 207.691 349.162C202.858 346.334 199.073 342.413 196.337 337.397C193.601 332.381 192.233 326.635 192.233 320.16C192.233 313.684 193.601 307.893 196.337 302.786C199.073 297.679 202.858 293.712 207.691 290.884C212.616 288.057 218.225 286.643 224.518 286.643C230.72 286.643 235.872 287.92 239.976 290.474C244.08 293.028 247.044 295.672 248.868 298.408C250.784 301.144 251.969 303.196 252.425 304.564C254.432 308.76 255.435 314.277 255.435 321.117L255.298 326.453H209.059C209.88 330.101 211.75 333.065 214.668 335.345C217.678 337.625 220.961 338.765 224.518 338.765C228.531 338.765 231.677 338.035 233.957 336.576C236.328 335.025 237.97 333.429 238.882 331.788L253.246 337.533C251.422 341.911 248.048 345.65 243.123 348.751C238.198 351.852 231.996 353.402 224.518 353.402ZM239.019 314.551C238.198 310.447 236.556 307.209 234.094 304.838C231.723 302.467 228.531 301.281 224.518 301.281C220.596 301.281 217.222 302.512 214.395 304.975C211.659 307.346 209.88 310.538 209.059 314.551H239.019Z" fill="#313131"/>
<path d="M149.604 338.765C154.346 338.765 158.086 337.077 160.822 333.703C163.558 330.329 164.926 325.723 164.926 319.886C164.926 314.049 163.558 309.444 160.822 306.069C158.086 302.604 154.346 300.871 149.604 300.871C146.594 300.871 143.813 301.737 141.259 303.47C138.797 305.112 136.836 307.392 135.377 310.31C133.917 313.137 133.188 316.329 133.188 319.886C133.188 323.352 133.917 326.544 135.377 329.462C136.836 332.381 138.797 334.661 141.259 336.302C143.813 337.944 146.594 338.765 149.604 338.765ZM151.519 286.37C157.63 286.37 163.01 287.784 167.662 290.611C172.404 293.438 176.052 297.405 178.606 302.512C181.251 307.62 182.573 313.411 182.573 319.886C182.573 326.361 181.251 332.153 178.606 337.26C176.052 342.367 172.404 346.334 167.662 349.162C163.01 351.989 157.63 353.402 151.519 353.402C148.874 353.402 145.774 352.718 142.217 351.35C138.66 349.891 135.65 347.474 133.188 344.1V381.857H115.541V286.507H133.188V295.672C135.65 292.48 138.705 290.155 142.354 288.696C146.002 287.145 149.057 286.37 151.519 286.37Z" fill="#313131"/>
<path d="M51.3004 338.765C58.0492 338.765 63.9772 337.26 69.0845 334.25C74.1917 331.241 78.1133 326.954 80.8494 321.391C83.6766 315.828 85.0902 309.353 85.0902 301.965C85.0902 294.578 83.6766 288.103 80.8494 282.54C78.1133 276.976 74.1917 272.69 69.0845 269.68C63.9772 266.579 58.0492 265.029 51.3004 265.029C44.5515 265.029 38.6235 266.579 33.5162 269.68C28.5002 272.69 24.5786 276.976 21.7513 282.54C19.0153 288.103 17.6473 294.578 17.6473 301.965C17.6473 309.353 19.0153 315.828 21.7513 321.391C24.5786 326.954 28.5002 331.241 33.5162 334.25C38.6235 337.26 44.5515 338.765 51.3004 338.765ZM51.3004 249.707C61.2412 249.707 70.0877 251.942 77.8397 256.411C85.683 260.788 91.7934 266.944 96.1711 274.879C100.549 282.813 102.738 291.842 102.738 301.965C102.738 312.089 100.549 321.117 96.1711 329.052C91.7934 336.986 85.683 343.188 77.8397 347.657C70.0877 352.034 61.2412 354.223 51.3004 354.223C41.3595 354.223 32.513 352.034 24.761 347.657C17.0089 343.188 10.9441 336.986 6.56645 329.052C2.18882 321.117 0 312.089 0 301.965C0 291.842 2.18882 282.813 6.56645 274.879C10.9441 266.944 17.0089 260.788 24.761 256.411C32.513 251.942 41.3595 249.707 51.3004 249.707Z" fill="#313131"/>
<path d="M502.178 255.635L517.089 220.751L490.413 161.243H509.838L526.391 201.189L542.397 161.243H561.549L536.788 219.793L521.467 255.635H502.178Z" fill="#313131"/>
<path d="M445.774 161.243H463.284V170.819C465.473 167.718 468.3 165.301 471.766 163.568C475.323 161.835 478.743 161.06 482.026 161.243V177.112C478.287 176.929 475.003 177.75 472.176 179.574C469.349 181.307 467.16 183.632 465.61 186.551C464.059 189.469 463.284 192.433 463.284 195.443V227.865H445.774V161.243Z" fill="#313131"/>
<path d="M399.812 176.154H386.816V160.969H399.812V137.439H417.46V160.969H433.192V176.154H417.46V227.865H399.812V176.154Z" fill="#313131"/>
<path d="M330.87 198.453C330.87 203.286 332.101 206.98 334.563 209.533C337.026 212.087 340.4 213.364 344.687 213.364C348.973 213.364 352.347 211.996 354.81 209.26C357.272 206.524 358.458 202.739 358.367 197.905V161.243H376.014V227.865H358.367V219.93C356.36 222.575 353.761 224.582 350.569 225.95C347.468 227.409 344.231 228.138 340.856 228.138C335.475 228.138 330.687 226.953 326.492 224.582C322.297 222.119 319.014 218.699 316.642 214.321C314.362 209.853 313.222 204.654 313.222 198.726V161.243H330.87V198.453Z" fill="#313131"/>
<path d="M260.359 228.138C254.249 228.138 248.822 226.725 244.08 223.898C239.429 221.07 235.781 217.103 233.136 211.996C230.582 206.889 229.305 201.097 229.305 194.622C229.305 188.147 230.582 182.401 233.136 177.385C235.781 172.278 239.429 168.311 244.08 165.484C248.822 162.565 254.249 161.106 260.359 161.106C263.004 161.106 266.059 161.79 269.525 163.158C273.082 164.526 276.182 166.943 278.827 170.408V128.958H296.475V227.865H278.827V218.973C276.182 222.256 273.082 224.582 269.525 225.95C265.968 227.409 262.913 228.138 260.359 228.138ZM262.274 213.911C265.284 213.911 268.066 213.09 270.619 211.449C273.173 209.807 275.179 207.527 276.638 204.609C278.098 201.69 278.827 198.498 278.827 195.033C278.827 191.476 278.098 188.284 276.638 185.457C275.179 182.538 273.173 180.258 270.619 178.617C268.066 176.884 265.284 176.017 262.274 176.017C257.532 176.017 253.793 177.75 251.057 181.216C248.321 184.59 246.953 189.196 246.953 195.033C246.953 200.869 248.321 205.475 251.057 208.85C253.793 212.224 257.532 213.911 262.274 213.911Z" fill="#313131"/>
<path d="M200.41 192.707C200.41 187.417 199.224 183.359 196.853 180.532C194.573 177.704 191.199 176.291 186.73 176.291C182.717 176.382 179.388 177.932 176.743 180.942C174.099 183.86 172.822 187.782 172.913 192.707V227.865H155.266V161.243H172.913V170.682C175.011 167.855 177.655 165.62 180.847 163.979C184.039 162.337 187.232 161.516 190.424 161.516C194.528 161.516 198.677 162.474 202.872 164.389C207.159 166.304 210.761 169.588 213.68 174.239C216.598 178.799 218.057 184.864 218.057 192.433V227.865H200.41V192.707Z" fill="#313131"/>
<path d="M138.105 125.401V227.728H120.458V125.401H138.105Z" fill="#313131"/>
<path d="M628.699 87.8262C633.533 87.8262 637.454 86.0478 640.464 82.491C643.565 78.843 645.115 74.3741 645.115 69.0845C645.115 63.7949 643.565 59.3716 640.464 55.8148C637.454 52.1668 633.533 50.3428 628.699 50.3428C624.048 50.3428 620.354 52.03 617.618 55.4044C614.882 58.6876 613.514 63.2477 613.514 69.0845C613.514 74.9213 614.882 79.527 617.618 82.9014C620.354 86.1846 624.048 87.8262 628.699 87.8262ZM662.763 96.8551C662.763 103.148 661.395 108.939 658.659 114.229C655.923 119.518 651.955 123.714 646.757 126.814C641.65 129.915 635.722 131.466 628.973 131.466C622.862 131.466 617.208 130.189 612.009 127.635C606.811 125.082 602.707 121.16 599.697 115.87L613.241 106.431C615.886 109.988 618.302 112.45 620.491 113.818C622.771 115.278 625.598 116.007 628.973 116.007C634.08 116.007 638.047 114.32 640.874 110.946C643.702 107.662 645.115 103.695 645.115 99.0439V94.3927C642.562 97.2199 639.598 99.2719 636.223 100.549C632.849 101.917 629.702 102.601 626.784 102.601C620.765 102.601 615.384 101.187 610.641 98.3599C605.99 95.4415 602.342 91.4743 599.697 86.4582C597.144 81.351 595.867 75.6054 595.867 69.2213C595.867 62.7461 597.144 57.0004 599.697 51.9844C602.342 46.8772 605.99 42.9099 610.641 40.0827C615.293 37.1643 620.674 35.7051 626.784 35.7051C629.885 35.7051 633.122 36.4347 636.497 37.8939C639.962 39.3531 642.835 41.6787 645.115 44.8707V35.7051H662.763V96.8551Z" fill="#313131"/>
<path d="M566.972 67.3059C566.972 62.0163 565.786 57.9579 563.415 55.1307C561.135 52.3035 557.76 50.8898 553.291 50.8898C549.279 50.981 545.95 52.5314 543.305 55.5411C540.66 58.4595 539.383 62.3811 539.475 67.3059V102.464H521.827V35.8417H539.475V45.281C541.572 42.4538 544.217 40.2194 547.409 38.5778C550.601 36.9361 553.793 36.1153 556.985 36.1153C561.089 36.1153 565.239 37.0729 569.434 38.9882C573.72 40.9034 577.323 44.1866 580.241 48.8378C583.16 53.3979 584.619 59.4627 584.619 67.0324V102.464H566.972V67.3059Z" fill="#313131"/>
<path d="M504.683 35.705V102.327H487.036V35.705H504.683ZM495.928 2.18875C498.664 2.18875 500.898 3.10076 502.631 4.92477C504.455 6.65758 505.367 8.892 505.367 11.628C505.367 14.4552 504.455 16.7809 502.631 18.6049C500.898 20.3377 498.664 21.2041 495.928 21.2041C493.101 21.2041 490.775 20.3377 488.951 18.6049C487.218 16.7809 486.352 14.4552 486.352 11.628C486.352 8.892 487.218 6.65758 488.951 4.92477C490.775 3.10076 493.101 2.18875 495.928 2.18875Z" fill="#313131"/>
<path d="M451.628 86.0478C453.817 86.0478 456.143 85.455 458.605 84.2694C461.068 83.0838 463.165 81.4878 464.898 79.4814L476.663 91.7935C473.927 94.9855 470.188 97.6303 465.445 99.7279C460.794 101.734 456.325 102.738 452.039 102.738C445.564 102.738 439.772 101.324 434.665 98.4967C429.558 95.5783 425.545 91.6111 422.627 86.595C419.799 81.4878 418.386 75.6966 418.386 69.2213C418.386 62.7461 419.799 56.9548 422.627 51.8476C425.545 46.7404 429.558 42.7731 434.665 39.9459C439.772 37.1187 445.564 35.7051 452.039 35.7051C456.599 35.7051 461.068 36.7083 465.445 38.7147C469.823 40.6299 473.562 43.2747 476.663 46.6492L464.898 58.8244C463.074 56.818 460.931 55.2676 458.468 54.1732C456.097 52.9876 453.817 52.3948 451.628 52.3948C446.795 52.3948 442.964 53.8996 440.137 56.9092C437.401 59.9188 436.033 64.0229 436.033 69.2213C436.033 74.4197 437.401 78.5238 440.137 81.5334C442.964 84.543 446.795 86.0478 451.628 86.0478Z" fill="#313131"/>
<path d="M392.363 67.3059C392.363 62.0163 391.178 57.9579 388.806 55.1307C386.526 52.3035 383.152 50.8898 378.683 50.8898C374.67 50.981 371.342 52.5314 368.697 55.5411C366.052 58.4595 364.775 62.3811 364.866 67.3059V102.464H347.219V35.8417H364.866V45.281C366.964 42.4538 369.609 40.2194 372.801 38.5778C375.993 36.9361 379.185 36.1153 382.377 36.1153C386.481 36.1153 390.63 37.0729 394.826 38.9882C399.112 40.9034 402.715 44.1866 405.633 48.8378C408.551 53.3979 410.011 59.4627 410.011 67.0324V102.464H392.363V67.3059Z" fill="#313131"/>
<path d="M295.825 102.874C289.715 102.874 284.334 101.461 279.683 98.6334C275.032 95.715 271.384 91.7477 268.739 86.7317C266.185 81.6245 264.908 75.8332 264.908 69.358C264.908 62.8827 266.185 57.1371 268.739 52.1211C271.384 47.0138 275.032 43.0466 279.683 40.2194C284.334 37.3921 289.715 35.9785 295.825 35.9785C299.109 35.9785 302.392 36.7081 305.675 38.1674C308.958 39.6266 311.74 41.8154 314.02 44.7338V35.8417H331.667V102.464H314.02V94.1189C311.74 97.1286 308.958 99.3174 305.675 100.685C302.392 102.145 299.109 102.874 295.825 102.874ZM297.877 88.2365C302.346 88.2365 306.131 86.4581 309.232 82.9013C312.424 79.2532 314.065 74.7388 314.157 69.358C314.065 63.9771 312.424 59.5083 309.232 55.9515C306.131 52.3035 302.346 50.4794 297.877 50.4794C293.135 50.4794 289.396 52.1666 286.66 55.5411C283.924 58.9155 282.556 63.5211 282.556 69.358C282.556 75.1948 283.924 79.8004 286.66 83.1749C289.396 86.5493 293.135 88.2365 297.877 88.2365Z" fill="#313131"/>
<path d="M234.396 102.464H219.621L191.577 35.8417H210.729L227.009 78.7972L243.562 35.8417H262.987L234.396 102.464Z" fill="#313131"/>
<path d="M145.49 102.737C139.38 102.737 133.953 101.324 129.211 98.4966C124.559 95.6694 120.911 91.7022 118.267 86.595C115.713 81.4877 114.436 75.6965 114.436 69.2212C114.436 62.746 115.713 57.0004 118.267 51.9843C120.911 46.8771 124.559 42.9099 129.211 40.0826C133.953 37.1642 139.38 35.705 145.49 35.705C148.135 35.705 151.19 36.389 154.656 37.757C158.212 39.125 161.313 41.5419 163.958 45.0075V3.55679H181.605V102.464H163.958V93.5718C161.313 96.855 158.212 99.1807 154.656 100.549C151.099 102.008 148.044 102.737 145.49 102.737ZM147.405 88.5102C150.415 88.5102 153.196 87.6894 155.75 86.0478C158.304 84.4062 160.31 82.1261 161.769 79.2077C163.228 76.2893 163.958 73.0973 163.958 69.6317C163.958 66.0748 163.228 62.8828 161.769 60.0556C160.31 57.1372 158.304 54.8571 155.75 53.2155C153.196 51.4827 150.415 50.6163 147.405 50.6163C142.663 50.6163 138.924 52.3491 136.188 55.8148C133.451 59.1892 132.083 63.7948 132.083 69.6317C132.083 75.4685 133.451 80.0741 136.188 83.4485C138.924 86.823 142.663 88.5102 147.405 88.5102Z" fill="#313131"/>
<path d="M110.357 102.327H91.6157L81.9028 75.5141H42.3674L32.2441 102.327H13.5024L51.6698 0H73.0108L110.357 102.327ZM76.294 60.3292L62.3403 22.025L47.9762 60.3292H76.294Z" fill="#313131"/>
</g>
<defs>
<clipPath id="clip0_54_185">
<rect width="680" height="381.86" fill="white"/>
</clipPath>
</defs>
</svg>
