<svg width="30" height="30" viewBox="0 0 30 30" fill="none" xmlns="http://www.w3.org/2000/svg">
<path d="M18.75 25H6.25C5.58696 25 4.95107 24.7366 4.48223 24.2678C4.01339 23.7989 3.75 23.163 3.75 22.5V7.5C3.75 6.83696 4.01339 6.20107 4.48223 5.73223C4.95107 5.26339 5.58696 5 6.25 5H23.75C24.413 5 25.0489 5.26339 25.5178 5.73223C25.9866 6.20107 26.25 6.83696 26.25 7.5V13.75M11.25 21.25H16.875M23.75 27.5V27.5125M23.75 23.7497C24.3104 23.7479 24.8539 23.5582 25.2937 23.2109C25.7335 22.8636 26.0441 22.3788 26.1757 21.8341C26.3073 21.2894 26.2524 20.7163 26.0198 20.2065C25.7871 19.6967 25.3902 19.2797 24.8925 19.0222C24.3952 18.7675 23.8264 18.6885 23.2785 18.7981C22.7306 18.9077 22.236 19.1995 21.875 19.626" stroke="white" stroke-width="2" stroke-linecap="round" stroke-linejoin="round"/>
</svg>
