<svg width="30" height="30" viewBox="0 0 30 30" fill="none" xmlns="http://www.w3.org/2000/svg">
<path d="M15 22.5H6.25C5.58696 22.5 4.95107 22.2366 4.48223 21.7678C4.01339 21.2989 3.75 20.663 3.75 20V7.5M3.75 7.5C3.75 6.83696 4.01339 6.20107 4.48223 5.73223C4.95107 5.26339 5.58696 5 6.25 5H23.75C24.413 5 25.0489 5.26339 25.5178 5.73223C25.9866 6.20107 26.25 6.83696 26.25 7.5M3.75 7.5L15 15L26.25 7.5M26.25 7.5V16.875M18.75 22.5H26.25M22.5 26.25L26.25 22.5L22.5 18.75" stroke="white" stroke-width="2" stroke-linecap="round" stroke-linejoin="round"/>
</svg>
