<svg width="135" height="135" viewBox="0 0 135 135" fill="none" xmlns="http://www.w3.org/2000/svg">
<path d="M33.75 84.375V78.75C33.75 75.7663 34.9353 72.9048 37.045 70.7951C39.1548 68.6853 42.0163 67.5 45 67.5H90C92.9837 67.5 95.8452 68.6853 97.9549 70.7951C100.065 72.9048 101.25 75.7663 101.25 78.75V84.375M67.5 50.625V67.5M16.875 95.625C16.875 92.6413 18.0603 89.7798 20.17 87.6701C22.2798 85.5603 25.1413 84.375 28.125 84.375H39.375C42.3587 84.375 45.2202 85.5603 47.3299 87.6701C49.4397 89.7798 50.625 92.6413 50.625 95.625V106.875C50.625 109.859 49.4397 112.72 47.3299 114.83C45.2202 116.94 42.3587 118.125 39.375 118.125H28.125C25.1413 118.125 22.2798 116.94 20.17 114.83C18.0603 112.72 16.875 109.859 16.875 106.875V95.625ZM84.375 95.625C84.375 92.6413 85.5603 89.7798 87.6701 87.6701C89.7798 85.5603 92.6413 84.375 95.625 84.375H106.875C109.859 84.375 112.72 85.5603 114.83 87.6701C116.94 89.7798 118.125 92.6413 118.125 95.625V106.875C118.125 109.859 116.94 112.72 114.83 114.83C112.72 116.94 109.859 118.125 106.875 118.125H95.625C92.6413 118.125 89.7798 116.94 87.6701 114.83C85.5603 112.72 84.375 109.859 84.375 106.875V95.625ZM50.625 28.125C50.625 25.1413 51.8103 22.2798 53.9201 20.17C56.0298 18.0603 58.8913 16.875 61.875 16.875H73.125C76.1087 16.875 78.9702 18.0603 81.0799 20.17C83.1897 22.2798 84.375 25.1413 84.375 28.125V39.375C84.375 42.3587 83.1897 45.2202 81.0799 47.3299C78.9702 49.4397 76.1087 50.625 73.125 50.625H61.875C58.8913 50.625 56.0298 49.4397 53.9201 47.3299C51.8103 45.2202 50.625 42.3587 50.625 39.375V28.125Z" stroke="#09539F" stroke-width="3" stroke-linecap="round" stroke-linejoin="round"/>
</svg>
