<svg width="135" height="135" viewBox="0 0 135 135" fill="none" xmlns="http://www.w3.org/2000/svg">
<path d="M78.75 16.875V39.375C78.75 40.8668 79.3426 42.2976 80.3975 43.3525C81.4524 44.4074 82.8832 45 84.375 45H106.875M106.875 70.3125V45L78.75 16.875H39.375C36.3913 16.875 33.5298 18.0603 31.42 20.17C29.3103 22.2798 28.125 25.1413 28.125 28.125V106.875C28.125 109.859 29.3103 112.72 31.42 114.83C33.5298 116.94 36.3913 118.125 39.375 118.125H67.5M104.062 109.688L118.125 123.75M78.75 98.4375C78.75 102.167 80.2316 105.744 82.8688 108.381C85.506 111.018 89.0829 112.5 92.8125 112.5C96.5421 112.5 100.119 111.018 102.756 108.381C105.393 105.744 106.875 102.167 106.875 98.4375C106.875 94.7079 105.393 91.131 102.756 88.4938C100.119 85.8566 96.5421 84.375 92.8125 84.375C89.0829 84.375 85.506 85.8566 82.8688 88.4938C80.2316 91.131 78.75 94.7079 78.75 98.4375Z" stroke="#09539F" stroke-width="3" stroke-linecap="round" stroke-linejoin="round"/>
</svg>
