<svg width="135" height="135" viewBox="0 0 135 135" fill="none" xmlns="http://www.w3.org/2000/svg">
<path d="M61.875 95.625H22.5C21.0082 95.625 19.5774 95.0324 18.5225 93.9775C17.4676 92.9226 16.875 91.4918 16.875 90V22.5C16.875 21.0082 17.4676 19.5774 18.5225 18.5225C19.5774 17.4676 21.0082 16.875 22.5 16.875H112.5C113.992 16.875 115.423 17.4676 116.477 18.5225C117.532 19.5774 118.125 21.0082 118.125 22.5V67.5M16.875 73.125H73.125M45 118.125H67.5M56.25 95.625L53.4375 118.125M113.626 113.621L123.751 123.746M84.375 101.25C84.375 105.726 86.1529 110.018 89.3176 113.182C92.4822 116.347 96.7745 118.125 101.25 118.125C105.726 118.125 110.018 116.347 113.182 113.182C116.347 110.018 118.125 105.726 118.125 101.25C118.125 96.7745 116.347 92.4822 113.182 89.3176C110.018 86.1529 105.726 84.375 101.25 84.375C96.7745 84.375 92.4822 86.1529 89.3176 89.3176C86.1529 92.4822 84.375 96.7745 84.375 101.25Z" stroke="#09539F" stroke-width="3" stroke-linecap="round" stroke-linejoin="round"/>
</svg>
