<svg width="65" height="65" viewBox="0 0 65 65" fill="none" xmlns="http://www.w3.org/2000/svg">
<path d="M51.4582 39.2708C52.7084 39.2708 53.7955 40.1267 54.0898 41.3417C54.5288 43.1564 55.4594 44.8166 56.7796 46.1368C58.0998 47.457 59.76 48.3876 61.5747 48.8266C62.7898 49.1209 63.6457 50.208 63.6457 51.4583C63.6457 52.7085 62.7898 53.7956 61.5747 54.0899C59.76 54.5289 58.0998 55.4595 56.7796 56.7797C55.4594 58.0999 54.5288 59.7601 54.0898 61.5748C53.7955 62.7898 52.7084 63.6458 51.4582 63.6458C50.208 63.6458 49.1208 62.7898 48.8265 61.5748C48.3875 59.7601 47.4569 58.0999 46.1367 56.7797C44.8165 55.4595 43.1563 54.5289 41.3416 54.0899C40.1266 53.7956 39.2707 52.7085 39.2707 51.4583C39.2707 50.208 40.1266 49.1209 41.3416 48.8266C43.1563 48.3876 44.8165 47.457 46.1367 46.1368C47.4569 44.8166 48.3875 43.1564 48.8265 41.3417L48.972 40.9053C49.3941 39.9267 50.3637 39.2708 51.4582 39.2708ZM51.4582 48.2315C51.0047 48.8427 50.5086 49.4244 49.9665 49.9666C49.4244 50.5087 48.8426 51.0048 48.2314 51.4583C48.8426 51.9117 49.4244 52.4078 49.9665 52.95C50.5086 53.4921 51.0047 54.0738 51.4582 54.685C51.9116 54.0738 52.4078 53.4921 52.9499 52.95C53.492 52.4078 54.0737 51.9117 54.6849 51.4583C54.0737 51.0048 53.492 50.5087 52.9499 49.9666C52.4078 49.4244 51.9116 48.8427 51.4582 48.2315ZM54.1665 32.4999V24.0179L34.0021 37.4617C33.0924 38.0682 31.9073 38.0682 30.9976 37.4617L10.8332 24.0179V46.0416C10.8332 46.7599 11.1187 47.4485 11.6266 47.9565C12.1345 48.4644 12.8232 48.7499 13.5415 48.7499H31.1457C32.6414 48.7499 33.854 49.9625 33.854 51.4583C33.854 52.954 32.6414 54.1666 31.1457 54.1666H13.5415C11.3866 54.1666 9.32061 53.3099 7.79688 51.7862C6.27314 50.2625 5.4165 48.1965 5.4165 46.0416V18.9583C5.4165 16.8034 6.27314 14.7374 7.79688 13.2136C9.32061 11.6899 11.3866 10.8333 13.5415 10.8333H51.4582C53.6131 10.8333 55.6791 11.6899 57.2028 13.2136C58.7265 14.7374 59.5832 16.8034 59.5832 18.9583V32.4999C59.5832 33.9957 58.3706 35.2083 56.8748 35.2083C55.3791 35.2083 54.1665 33.9957 54.1665 32.4999ZM13.5415 16.2499C12.8232 16.2499 12.1345 16.5355 11.6266 17.0434C11.4282 17.2418 11.2641 17.4679 11.1373 17.7125L32.4998 31.9524L53.8597 17.7125C53.733 17.4683 53.5712 17.2415 53.373 17.0434C52.8651 16.5355 52.1765 16.2499 51.4582 16.2499H13.5415Z" fill="#09539F"/>
</svg>
