<svg width="874" height="25" viewBox="0 0 874 25" fill="none" xmlns="http://www.w3.org/2000/svg">
<g clip-path="url(#clip0_340_3226)">
<path d="M735.935 1H749.046L739.408 11.5065L745.287 24.5437H732.206L726.413 11.5065L735.935 1Z" fill="#EE7826"/>
<path d="M721.755 1H694.901L690 24.5133H716.854C719.915 24.5133 722.933 22.0555 723.552 19.0502L726.182 6.45703C726.807 3.45779 724.815 1 721.761 1M714.279 7.75893L712.22 17.7483C711.899 19.3179 710.332 20.5954 708.735 20.5954H702.461L705.686 4.9057H711.959C713.556 4.9057 714.601 6.18935 714.279 7.75285" fill="white"/>
<path d="M874.006 1.09766H869.348V18.3813H874.006V1.09766Z" fill="white"/>
<path d="M864.617 9.64523C863.549 8.10606 863.33 6.15321 863.33 3.76842V1.33496H858.739V3.76842C858.739 6.12888 858.429 8.08781 857.373 9.63306C856.31 11.1783 855.107 12.1091 853.717 12.4315L855.709 14.1958C856.771 14.068 857.852 13.5266 858.958 12.5715C860.069 11.6163 860.755 10.5882 861.028 9.48097C861.332 10.5882 862.037 11.6224 863.136 12.5897C864.229 13.557 865.304 14.0924 866.373 14.2019L868.261 12.4376C866.883 12.1213 865.686 11.1905 864.611 9.65739" fill="white"/>
<path d="M861.927 22.1649V16.5801H857.245V21.1489C857.245 23.2782 858.107 24.5862 860.816 24.6287H874V22.1588H861.927V22.1649Z" fill="white"/>
<path d="M835.286 23.4124C836.761 24.4709 838.638 25.0002 840.921 25.0002C843.205 25.0002 845.051 24.4709 846.526 23.4124C848.002 22.3477 848.737 21.0945 848.737 19.6222C848.737 18.15 847.996 16.8968 846.526 15.8565C845.051 14.8101 843.186 14.293 840.921 14.293C838.656 14.293 836.761 14.8101 835.286 15.8565C833.816 16.8968 833.075 18.1561 833.075 19.6222C833.075 21.0884 833.816 22.3477 835.286 23.4124ZM838.322 17.5964C838.923 17.0184 839.786 16.7386 840.915 16.7386C842.045 16.7386 842.883 17.0184 843.496 17.5964C844.109 18.1683 844.419 18.8435 844.419 19.6283C844.419 20.4131 844.116 21.0884 843.496 21.6724C842.883 22.2504 842.02 22.5424 840.915 22.5424C839.81 22.5424 838.923 22.2504 838.322 21.6724C837.715 21.0884 837.411 20.407 837.411 19.6283C837.411 18.8496 837.709 18.1683 838.322 17.5964Z" fill="white"/>
<path d="M843.229 11.2873V9.60214H849.66V7.13826H836.598V3.50024H849.581V1.03027H831.916V6.10404C831.916 8.08731 832.669 9.35879 834.952 9.55347C834.952 9.55347 834.952 9.55347 834.958 9.55955H834.964C835.171 9.57172 835.383 9.5778 835.608 9.5778H838.547V11.2812H830.634V13.6964H851.555V11.2812H843.223L843.229 11.2873Z" fill="white"/>
<path d="M826.602 1.12207H822.011V24.5867H826.602V1.12207Z" fill="white"/>
<path d="M778.42 1.13379V24.5802H773.823V14.9802C773.313 15.2418 772.718 15.4669 772.026 15.6433C771.339 15.8197 770.586 15.911 769.779 15.911H761.641C760.852 15.911 760.22 15.6859 759.746 15.2296C759.279 14.7733 759.042 14.1711 759.042 13.4167V1.90033H770.659V4.35204H763.481V13.4775H770.009C770.781 13.4775 771.497 13.4288 772.159 13.3254C772.821 13.222 773.374 13.0821 773.829 12.9178V1.13379H778.426H778.42Z" fill="white"/>
<path d="M797.987 24.5802H794.203V10.4479H791.319C790.602 12.3399 789.552 13.8304 788.167 14.9254C786.782 16.0205 785.197 16.7018 783.406 16.9634L781.372 15.5216C783.066 15.1444 784.457 14.4935 785.544 13.5688C786.625 12.6441 787.414 11.3908 787.9 9.80299H782.811V7.62504H788.355C788.41 7.1931 788.452 6.74291 788.483 6.28056C788.513 5.8182 788.525 5.31934 788.525 4.79006V4.05394H782.811V1.90033H792.339V4.50413C792.339 5.1855 792.309 5.84253 792.254 6.46915C792.199 7.10185 792.102 7.71021 791.975 8.29424H794.209V1.13379H797.993V24.5802H797.987ZM803.021 1.13379V24.5802H799.238V1.13379H803.021Z" fill="white"/>
<path d="M817.547 3.66417C818.871 4.93566 819.539 6.49307 819.539 8.32425C819.539 10.1554 818.871 11.6763 817.547 12.9539C816.217 14.2254 814.614 14.8642 812.725 14.8642C810.837 14.8642 809.264 14.2254 807.934 12.9539C806.604 11.6763 805.942 10.1372 805.942 8.32425C805.942 6.51132 806.604 4.94174 807.934 3.66417C809.264 2.39269 810.861 1.75391 812.725 1.75391C814.59 1.75391 816.217 2.39269 817.547 3.66417ZM810.648 11.4573C811.243 12.2969 811.942 12.7166 812.756 12.7166C813.569 12.7166 814.237 12.2908 814.832 11.4391C815.428 10.5934 815.725 9.54098 815.725 8.29383C815.725 7.04668 815.428 6.03071 814.832 5.179C814.237 4.32729 813.539 3.90752 812.725 3.90752C811.911 3.90752 811.243 4.33337 810.648 5.179C810.053 6.03071 809.762 7.08318 809.762 8.34858C809.762 9.61398 810.059 10.6117 810.648 11.4512" fill="white"/>
</g>
<g clip-path="url(#clip1_340_3226)">
<path d="M46.65 0.0800781H59.97L50.18 10.7301L56.15 23.9501H42.87L36.98 10.7301L46.65 0.0800781Z" fill="#EE7826"/>
<path d="M32.25 0.0800781H4.98L0 23.9201H27.27C30.38 23.9201 33.44 21.4301 34.07 18.3901L36.74 5.62008C37.38 2.58008 35.35 0.0900781 32.25 0.0900781V0.0800781ZM24.66 6.94008L22.57 17.0701C22.24 18.6601 20.65 19.9601 19.03 19.9601H12.66L15.94 4.06008H22.31C23.93 4.06008 24.99 5.36008 24.67 6.95008L24.66 6.94008Z" fill="white"/>
<path d="M135.21 7.11984V0.0898438H130.46V17.6698H135.21V9.83984H137.71V7.11984H135.21Z" fill="white"/>
<path d="M125.65 8.78984C124.56 7.22984 124.34 5.22984 124.34 2.80984V0.339844H119.66V2.81984C119.66 5.22984 119.35 7.20984 118.27 8.77984C117.19 10.3598 115.96 11.2998 114.54 11.6298L116.57 13.4298C117.65 13.2998 118.76 12.7498 119.89 11.7698C121.02 10.7998 121.72 9.74984 122 8.62984C122.31 9.74984 123.02 10.8098 124.14 11.7898C125.26 12.7698 126.35 13.3198 127.44 13.4298L129.37 11.6298C127.96 11.3098 126.74 10.3598 125.65 8.79984V8.78984Z" fill="white"/>
<path d="M122.9 21.5296V15.8496H118.13V20.4996C118.13 22.6696 119.01 23.9996 121.76 24.0396C121.8 24.0396 121.84 24.0396 121.89 24.0396C122.14 24.0396 122.32 24.0396 122.44 24.0396H135.2V21.5296H122.9Z" fill="white"/>
<path d="M154.92 0V4.49H151.94C151.67 3.51 151.13 2.64 150.31 1.87C149.08 0.73 147.53 0.16 145.65 0.16C143.77 0.16 142.19 0.73 140.96 1.87C139.74 3.01 139.12 4.39 139.12 5.99C139.12 7.59 139.74 8.98 140.96 10.14C142.19 11.3 143.75 11.89 145.65 11.89C147.55 11.89 149.08 11.31 150.31 10.14C151.16 9.34 151.7 8.43 151.97 7.41H154.93V13.02H159.7V0H154.93H154.92ZM147.58 8C147.12 8.57 146.47 8.86 145.64 8.86C144.81 8.86 144.14 8.57 143.69 8C143.23 7.43 143.01 6.76 143.01 5.99C143.01 5.22 143.24 4.56 143.69 4C144.14 3.44 144.79 3.16 145.64 3.16C146.49 3.16 147.12 3.44 147.58 4C148.04 4.56 148.28 5.22 148.28 5.99C148.28 6.76 148.04 7.43 147.58 8Z" fill="white"/>
<path d="M154.92 13.8996V16.2896H147.97V13.8996H143.2V20.3996C143.2 22.5696 144.08 23.8996 146.83 23.9396C146.87 23.9396 146.91 23.9396 146.95 23.9396C147.21 23.9396 147.02 23.9396 147.15 23.9396H159.68V13.8896H154.91L154.92 13.8996ZM154.92 21.4596H147.97V18.8396H154.92V21.4596Z" fill="white"/>
<path d="M113.26 11.7803V9.33027H110.77C111.01 8.98027 111.21 8.40027 111.38 7.68027C111.52 7.09027 111.61 6.53027 111.64 5.99027V5.81027C111.64 5.72027 111.65 5.64027 111.65 5.55027V0.0302734H94.27V2.54027H106.89V5.88027C106.89 6.47027 106.86 7.05027 106.81 7.62027C106.75 8.24027 106.64 8.84027 106.47 9.33027H92.79V11.7803H100.72V14.9703H93.84V17.4803H107.07V23.9203H111.83V14.9703H105.49V11.7803H113.27H113.26Z" fill="white"/>
<path d="M73.8003 22.8003C75.3003 23.8803 77.2103 24.4203 79.5403 24.4203C81.8703 24.4203 83.7503 23.8803 85.2503 22.8003C86.7503 21.7203 87.5003 20.4403 87.5003 18.9503C87.5003 17.4603 86.7503 16.1803 85.2503 15.1203C83.7503 14.0603 81.8503 13.5303 79.5403 13.5303C77.2303 13.5303 75.3003 14.0603 73.8003 15.1203C72.3003 16.1803 71.5503 17.4603 71.5503 18.9503C71.5503 20.4403 72.3003 21.7203 73.8003 22.8003ZM76.9003 16.8803C77.5103 16.3003 78.3903 16.0103 79.5503 16.0103C80.7103 16.0103 81.5603 16.3003 82.1803 16.8803C82.8103 17.4603 83.1203 18.1503 83.1203 18.9503C83.1203 19.7503 82.8103 20.4303 82.1803 21.0303C81.5603 21.6203 80.6803 21.9103 79.5503 21.9103C78.4203 21.9103 77.5103 21.6203 76.9003 21.0303C76.2803 20.4303 75.9703 19.7503 75.9703 18.9503C75.9703 18.1503 76.2803 17.4703 76.9003 16.8803Z" fill="white"/>
<path d="M81.9001 10.4603V8.75027H88.4601V6.24027H75.1501V2.54027H88.3801V0.0302734H70.3801V5.19027C70.3801 7.21027 71.1401 8.50027 73.4701 8.70027C73.6701 8.71027 73.8901 8.72027 74.1201 8.72027H77.1201V10.4503H69.0601V12.9103H90.3801V10.4503H81.8901L81.9001 10.4603Z" fill="white"/>
<path d="M168.65 23.9C167.63 22.69 166.63 21.07 165.66 19.06C164.69 17.05 164.21 14.68 164.21 11.97C164.21 9.26004 164.69 6.87004 165.66 4.86004C166.63 2.86004 167.62 1.25004 168.65 0.0400391H170.93C169.58 2.03004 168.66 4.06004 168.16 6.14004C167.67 8.21004 167.43 10.16 167.43 11.97C167.43 13.78 167.68 15.73 168.16 17.79C168.66 19.86 169.58 21.89 170.93 23.9H168.65Z" fill="white"/>
<path d="M198.69 4.86004C199.66 6.87004 200.14 9.24004 200.14 11.97C200.14 14.7 199.68 17.05 198.76 19.06C197.83 21.07 196.86 22.69 195.85 23.9H193.57C194.91 21.9 195.84 19.86 196.33 17.79C196.82 15.73 197.07 13.79 197.07 11.97C197.07 10.15 196.82 8.21004 196.33 6.14004C195.83 4.07004 194.91 2.03004 193.57 0.0400391H195.71C196.74 1.25004 197.73 2.87004 198.7 4.86004H198.69Z" fill="white"/>
<path d="M186.51 6.70016C185.43 5.60016 185.03 4.44016 184.95 2.72016H190.32V0.160156H174.62V2.72016H180.04C179.93 4.48016 179.41 5.82016 178.41 6.97016C176.69 8.92016 173.96 9.28016 172.58 9.57016L174.95 11.7502C176.01 11.6302 178.15 10.8802 179.96 9.80016C180.98 9.19016 182.22 7.88016 182.49 6.89016C182.79 7.89016 184.6 9.63016 186.22 10.4102C188.02 11.2702 189.18 11.8402 190.21 11.7902L192.36 9.60016C190.07 9.18016 188.49 8.74016 186.51 6.72016V6.70016Z" fill="white"/>
<path d="M193.63 13.1904H171.3V15.8804H180.07V24.2104H184.87V15.8804H193.63V13.1904Z" fill="white"/>
</g>
<g clip-path="url(#clip2_340_3226)">
<path d="M272.037 1.50098H284.9L275.449 11.7698L281.214 24.5169H268.388L262.705 11.7698L272.037 1.50098Z" fill="#EE7826"/>
<path d="M258.135 1.5013H231.807L227 24.4808H253.327C256.328 24.4808 259.284 22.0844 259.895 19.1505L262.468 6.8316C263.079 3.89765 261.127 1.49219 258.126 1.49219L258.135 1.5013ZM250.8 8.10722L248.784 17.8749C248.465 19.4056 246.932 20.663 245.363 20.663H239.215L242.38 5.32818H248.529C250.098 5.32818 251.12 6.57647 250.8 8.11633V8.10722Z" fill="white"/>
<path d="M297.844 24.5166C296.859 23.3595 295.91 21.8014 294.98 19.8788C294.049 17.9472 293.584 15.6784 293.584 13.0724C293.584 10.4665 294.049 8.17039 294.98 6.24784C295.91 4.32529 296.859 2.77632 297.844 1.61914H300.033C298.738 3.53258 297.853 5.47335 297.379 7.4688C296.914 9.45513 296.667 11.323 296.667 13.0724C296.667 14.8219 296.905 16.6806 297.379 18.6579C297.853 20.6442 298.738 22.5941 300.033 24.5166H297.844Z" fill="white"/>
<path d="M326.716 6.23905C327.647 8.1616 328.112 10.4395 328.112 13.0637C328.112 15.6878 327.665 17.9384 326.78 19.87C325.886 21.8017 324.956 23.3507 323.98 24.5078H321.781C323.077 22.5853 323.961 20.6263 324.436 18.6491C324.91 16.6719 325.147 14.804 325.147 13.0637C325.147 11.3233 324.91 9.44634 324.436 7.46001C323.961 5.46457 323.077 3.52379 321.781 1.61035H323.843C324.828 2.76753 325.786 4.3165 326.716 6.23905Z" fill="white"/>
<path d="M315.012 8.00642C313.972 6.94947 313.598 5.83785 313.516 4.18865H318.67V1.72852H303.582V4.17954H308.8C308.7 5.86519 308.189 7.15904 307.231 8.26154C305.58 10.1294 302.962 10.4757 301.621 10.7581L303.901 12.8538C304.923 12.7445 306.985 12.0155 308.718 10.9768C309.703 10.3937 310.889 9.13626 311.153 8.17954C311.436 9.13626 313.179 10.8128 314.739 11.56C316.472 12.3891 317.585 12.9358 318.57 12.8811L320.641 10.7764C318.433 10.3663 316.928 9.95631 315.012 8.00642Z" fill="white"/>
<path d="M321.854 14.2393H300.398V16.6903H308.818V24.8178H313.434V16.6903H321.854V14.2393Z" fill="white"/>
<path d="M373.825 12.7818V10.4128H371.416C371.644 10.0756 371.845 9.51072 372.009 8.81823C372.146 8.25331 372.228 7.70662 372.256 7.18725V7.01413C372.256 6.93213 372.265 6.85012 372.265 6.76812V1.42871H355.443V3.8524H367.649V7.07791C367.649 7.64283 367.621 8.20775 367.567 8.76356C367.512 9.36493 367.403 9.94807 367.238 10.4219H353.993V12.7909H373.806L373.825 12.7818Z" fill="white"/>
<path d="M361.683 12.1982V15.8702H355.023V18.2939H367.831V24.5171H372.438V15.8702H366.299V12.1982" fill="white"/>
<path d="M336.395 23.433C337.855 24.4717 339.698 25.0001 341.951 25.0001C344.204 25.0001 346.028 24.4808 347.479 23.433C348.929 22.3942 349.659 21.1459 349.659 19.7063C349.659 18.2667 348.929 17.0275 347.479 15.9979C346.019 14.9683 344.186 14.458 341.951 14.458C339.716 14.458 337.855 14.9683 336.395 15.9979C334.945 17.0275 334.224 18.2576 334.224 19.7063C334.224 21.155 334.945 22.3851 336.395 23.433ZM339.397 17.7109C339.989 17.1459 340.838 16.8726 341.951 16.8726C343.064 16.8726 343.894 17.1459 344.505 17.7109C345.107 18.2758 345.408 18.9409 345.408 19.7154C345.408 20.4899 345.107 21.1459 344.505 21.7291C343.903 22.3031 343.055 22.5856 341.951 22.5856C340.847 22.5856 339.98 22.3031 339.397 21.7291C338.794 21.155 338.503 20.4808 338.503 19.7154C338.503 18.95 338.804 18.2758 339.397 17.7109Z" fill="white"/>
<path d="M344.232 11.5062V9.84785H350.581V7.41504H337.691V3.84329H350.499V1.42871H333.084V6.40365C333.084 8.35354 333.814 9.61094 336.067 9.80229H336.085C336.286 9.82051 336.496 9.82962 336.724 9.82962H339.625V11.5062H331.825V13.8752H352.46V11.5062H344.241H344.232Z" fill="white"/>
<path d="M414.529 23.9887L411.172 20.18L411.254 20.0889C412.075 19.2233 412.713 18.3577 413.16 17.5103C413.525 16.7996 413.735 16.1071 413.808 15.4329H409.657C409.639 15.8793 409.575 16.2985 409.457 16.6812L409.356 16.9818L409.311 17.1094C409.311 17.1094 409.265 17.2279 409.238 17.2643L409.019 17.729L403.573 11.5422L404.996 10.7768C406.008 10.1937 406.82 9.53766 407.413 8.82695C408.207 7.87934 408.608 6.85884 408.608 5.81101C408.608 4.48071 408.061 3.41465 406.939 2.53993C406.401 2.12991 405.771 1.81101 405.06 1.5741L404.175 1.35542L404.011 1.32809L403.691 1.28253L403.408 1.2552L403.162 1.23697L402.587 1.21875H402.14L401.776 1.23697C400.197 1.3372 398.884 1.78367 397.844 2.54905C396.658 3.42376 396.083 4.50804 396.083 5.84745C396.083 6.67661 396.311 7.49666 396.776 8.30759C397.242 9.12763 397.935 9.92034 398.911 10.8953L399.212 11.2051L398.875 11.36C397.132 12.18 395.837 13.1823 395.016 14.3213C394.204 15.442 393.793 16.7905 393.793 18.3213C393.793 20.2347 394.523 21.7381 396.028 22.9226C397.351 23.9522 399.066 24.5445 401.164 24.6721L401.456 24.6903C401.456 24.6903 401.821 24.6903 401.839 24.6903H401.894C401.894 24.6903 401.994 24.6994 402.04 24.6903C402.04 24.6903 402.077 24.6903 402.095 24.6903L402.888 24.6538C402.888 24.6538 403.235 24.6265 403.226 24.6265C403.226 24.6265 403.554 24.59 403.564 24.59C404.065 24.5172 404.53 24.4352 404.977 24.3076L405.726 24.0889C406.692 23.7518 407.669 23.2324 408.608 22.5582L409.73 23.9705H414.538L414.529 23.9887ZM400.544 3.99779C400.544 3.99779 400.708 3.8429 400.708 3.83378C400.708 3.83378 400.736 3.80645 400.763 3.78823C400.763 3.78823 400.882 3.69711 400.882 3.688L400.936 3.64244L401.119 3.5331C401.119 3.5331 401.201 3.49665 401.219 3.48754L401.319 3.44198L401.438 3.39643C401.438 3.39643 401.502 3.3782 401.52 3.36909C401.52 3.36909 401.821 3.28709 401.839 3.28709C401.839 3.28709 402.414 3.23242 402.423 3.23242C402.806 3.24153 403.162 3.2962 403.481 3.40554C403.481 3.40554 403.709 3.50577 403.746 3.51488L403.938 3.62422L404.001 3.67889L404.156 3.77911L404.366 3.94312C404.576 4.14358 404.749 4.38959 404.886 4.69028L404.987 4.92718L405.069 5.2552C405.069 5.2552 405.087 5.37365 405.087 5.41009L405.133 5.87479C405.133 5.87479 405.087 6.32126 405.087 6.33948C405.087 6.33948 405.078 6.40326 405.078 6.41237C405.078 6.41237 404.95 6.77684 404.95 6.81328C404.95 6.81328 404.895 6.94085 404.895 6.94996C404.759 7.25975 404.558 7.57866 404.302 7.88845L404.083 8.13447L403.855 8.37137L403.609 8.59916C403.609 8.59916 403.363 8.80873 403.335 8.83606C403.335 8.83606 403.053 9.05474 403.034 9.06385L402.104 9.67433L401.876 9.79278L401.292 9.17319C401.292 9.17319 401.11 8.95451 401.1 8.9454C401.1 8.9454 400.945 8.73583 400.918 8.7085L400.781 8.52627C400.781 8.52627 400.763 8.48071 400.745 8.46249L400.635 8.30759L400.59 8.2347L400.498 8.0798C400.498 8.0798 400.362 7.85201 400.371 7.85201C400.042 7.22331 399.878 6.61283 399.878 6.02968C399.878 5.19142 400.115 4.50804 400.571 4.0069L400.544 3.99779ZM404.749 21.893L404.476 22.0115L404.175 22.1208C404.175 22.1208 403.919 22.1937 403.892 22.2028C403.436 22.3304 402.961 22.3941 402.469 22.4033L401.994 22.3759L401.657 22.3304C401.657 22.3304 401.493 22.3121 401.484 22.303C401.484 22.303 400.79 22.1117 400.772 22.1026C400.772 22.1026 400.462 21.9659 400.435 21.9568L399.86 21.6106C399.86 21.6106 399.851 21.6014 399.823 21.5741L399.568 21.3828L399.522 21.3372L399.276 21.1185C398.428 20.2529 397.99 19.1869 397.99 17.9112C397.99 16.9454 398.254 16.0434 398.793 15.2598L399.011 14.9682L399.24 14.6948L399.486 14.4397L399.769 14.1846L400.352 13.7472L400.991 13.3554L401.219 13.2096L406.893 20.3896C406.173 21.0456 405.415 21.5741 404.759 21.8839L404.749 21.893Z" fill="white"/>
<path d="M430 19.2138C430 17.191 429.471 15.8425 428.185 14.5487C428.057 14.4211 427.665 14.084 426.57 13.3095L422.465 10.576C420.522 9.37325 419.537 7.9974 419.537 6.47576C419.537 5.4917 419.792 4.73544 420.303 4.26164C420.796 3.79694 421.534 3.56915 422.501 3.56915C423.55 3.56915 424.372 3.88806 424.809 4.48032C425.229 5.04524 425.457 6.14774 425.484 7.15913H429.808C429.808 6.94045 429.827 6.47576 429.827 6.47576C429.827 4.53498 429.316 3.14091 428.294 2.32086C427.227 1.44615 425.393 1.00879 422.848 1.00879C419.902 1.00879 417.794 1.44615 416.581 2.29353C415.459 3.07713 414.912 4.39831 414.912 6.29353C414.912 8.48031 415.632 9.54637 417.019 10.8493L418.634 12.0703L422.228 14.4211C423.514 15.2594 424.353 15.961 424.764 16.5805C425.211 17.2366 425.43 18.1204 425.43 19.2229C425.43 20.2252 425.165 20.9723 424.645 21.4461C424.153 21.9017 423.414 22.1204 422.401 22.1204C421.316 22.1204 420.458 21.7833 419.975 21.1819C419.619 20.7446 419.199 19.6967 419.19 18.3026H414.939C414.93 18.6671 414.912 19.4143 414.912 19.4143C414.912 21.273 415.459 22.6124 416.535 23.396C417.721 24.2525 419.774 24.6808 422.629 24.6808C425.484 24.6808 427.455 24.2707 428.522 23.4689C429.507 22.7309 430 21.3004 430 19.232V19.2138Z" fill="white"/>
<path d="M391.522 23.9431V16.6903C391.522 15.5149 391.148 14.6766 390.546 14.0753C389.926 13.4557 388.977 12.5901 387.216 12.4807C391.139 12.1345 391.102 8.81785 391.102 8.81785V5.25521C391.102 5.10943 391.102 4.98186 391.084 4.87252C391.084 4.83608 391.066 4.79963 391.066 4.76319C391.057 4.67207 391.029 4.57184 391.011 4.47161C391.011 4.45339 391.011 4.44428 390.993 4.42606C390.108 1.27344 384.115 1.53767 384.115 1.53767H376.698V24.3623H381.305V14.0297L381.643 14.0115L382.792 13.9295L383.294 13.9112C384.443 13.9112 385.301 14.1026 385.903 14.4944C386.578 14.9318 386.943 15.606 386.943 16.4625V23.8976C386.943 24.0251 386.961 24.1163 387.007 24.1618C387.043 24.1892 387.134 24.262 387.317 24.3532H391.714C391.568 24.0434 391.559 23.9887 391.549 23.9431H391.522ZM386.487 8.87253C386.487 9.66524 386.131 10.3122 385.483 10.6948C384.917 11.032 384.106 11.196 383.011 11.196H382.308L381.296 11.0958V5.03653L381.269 4.42606L381.615 4.38961L382.327 4.32583L382.965 4.3076C384.051 4.3076 384.863 4.47161 385.456 4.80874C386.122 5.19143 386.496 5.82924 386.496 6.61284V8.86341L386.487 8.87253Z" fill="white"/>
</g>
<g clip-path="url(#clip3_340_3226)">
<path d="M503.05 1H516.202L506.539 11.5041L512.434 24.5433H499.319L493.508 11.5041L503.05 1Z" fill="#EE7826"/>
<path d="M488.835 1H461.916L457 24.5153H483.919C486.988 24.5153 490.01 22.0641 490.635 19.0629L493.266 6.46175C493.891 3.46058 491.895 1 488.826 1L488.835 1ZM481.336 7.75728L479.274 17.7487C478.948 19.3146 477.381 20.6008 475.776 20.6008H469.49L472.726 4.91456H479.013C480.617 4.91456 481.662 6.19146 481.336 7.7666V7.75728Z" fill="white"/>
<path d="M594.47 11.9883V15.7164H587.708V18.1863H600.72V24.5056H605.402V15.7164H599.162V11.9883" fill="white"/>
<path d="M568.782 23.4064C570.265 24.4689 572.14 25.0001 574.425 25.0001C576.71 25.0001 578.567 24.4689 580.04 23.4064C581.514 22.3532 582.251 21.0856 582.251 19.6223C582.251 18.159 581.514 16.9007 580.04 15.8568C578.567 14.813 576.692 14.291 574.425 14.291C572.159 14.291 570.265 14.813 568.782 15.8568C567.308 16.9007 566.571 18.159 566.571 19.6223C566.571 21.0856 567.308 22.3438 568.782 23.4064ZM571.823 17.5904C572.42 17.0126 573.287 16.733 574.425 16.733C575.563 16.733 576.403 17.0126 577.018 17.5904C577.634 18.159 577.942 18.8394 577.942 19.613C577.942 20.3865 577.634 21.0763 577.018 21.6634C576.403 22.2413 575.544 22.5302 574.425 22.5302C573.306 22.5302 572.42 22.2413 571.823 21.6634C571.216 21.0856 570.909 20.4052 570.909 19.613C570.909 18.8207 571.207 18.159 571.823 17.5904Z" fill="white"/>
<path d="M606.811 12.5851V10.1804H604.357C604.591 9.83556 604.796 9.26701 604.964 8.55866C605.104 7.9808 605.188 7.4309 605.216 6.89963V6.72255C605.216 6.63866 605.225 6.55478 605.225 6.4709V1.03711H588.137V3.50701H600.542V6.78779C600.542 7.36565 600.515 7.9342 600.468 8.49342C600.412 9.09925 600.3 9.69575 600.132 10.1804H586.672V12.5851H606.811Z" fill="white"/>
<path d="M576.748 11.2895V9.61187H583.193V7.14196H570.097V3.50701H583.109V1.03711H565.415V6.09808C565.415 8.074 566.161 9.3509 568.455 9.55594H568.465C568.67 9.57458 568.875 9.58391 569.108 9.58391H572.056V11.2895H564.127V13.7035H585.096V11.2895H576.748Z" fill="white"/>
<path d="M663 18.9411V16.8627H658.625V18.6895C658.625 19.8079 658.383 20.6188 657.87 21.1687C657.348 21.7186 656.555 22.0076 655.51 22.0076C654.465 22.0076 653.719 21.7466 653.215 21.2153C652.73 20.712 652.497 19.9384 652.497 18.8852V6.46115C652.497 5.42658 652.74 4.67163 653.234 4.14037C653.747 3.59979 654.512 3.32949 655.51 3.32949C656.508 3.32949 657.32 3.59979 657.851 4.14037C658.364 4.67163 658.625 5.47318 658.625 6.51707V8.11085H663V6.42386C663 4.40134 662.515 3.02192 661.573 2.30425C660.528 1.53066 658.504 1.12988 655.566 1.12988C652.628 1.12988 650.576 1.52134 649.55 2.29493C648.608 2.99396 648.132 4.3827 648.132 6.42386V18.9225C648.132 20.9357 648.608 22.3151 649.55 23.0142C650.585 23.7877 652.609 24.1792 655.575 24.1792C658.541 24.1792 660.538 23.7784 661.582 23.0048C662.534 22.2965 663.019 20.9264 663.019 18.9225L663 18.9411Z" fill="white"/>
<path d="M625.41 18.8759C625.41 16.9093 624.897 15.5951 623.637 14.3369C623.516 14.2157 623.143 13.8895 622.061 13.1252L618.06 10.4596C616.166 9.28522 615.205 7.94309 615.205 6.46115C615.205 5.50115 615.457 4.77415 615.961 4.30814C616.446 3.85144 617.164 3.61843 618.097 3.61843C619.123 3.61843 619.925 3.93532 620.354 4.51318C620.765 5.06309 620.988 6.02309 621.016 7.02037H625.214C625.223 6.806 625.242 6.46115 625.242 6.46115C625.242 4.56911 624.738 3.20833 623.759 2.40678C622.714 1.55862 620.923 1.12988 618.451 1.12988C615.578 1.12988 613.526 1.5493 612.342 2.37881C611.25 3.14309 610.719 4.41998 610.719 6.27474C610.719 8.39979 611.418 9.44367 612.761 10.7112L614.347 11.9043C614.347 11.9043 617.845 14.1971 617.854 14.1971C619.114 15.0079 619.916 15.6977 620.326 16.2942C620.755 16.9373 620.979 17.8041 620.979 18.8759C620.979 19.8452 620.718 20.5815 620.214 21.0476C619.729 21.4856 619.011 21.7093 618.022 21.7093C616.968 21.7093 616.129 21.3831 615.653 20.7959C615.308 20.3672 614.898 19.4631 614.888 18.1023H610.756C610.747 18.4658 610.728 19.0716 610.728 19.0716C610.728 20.8891 611.26 22.194 612.314 22.9582C613.461 23.7877 615.457 24.2072 618.237 24.2072C621.016 24.2072 622.947 23.8064 623.983 23.0235C624.943 22.2965 625.428 20.9077 625.428 18.8852L625.41 18.8759Z" fill="white"/>
<path d="M647.386 23.4892L644.112 19.7611L644.196 19.6679C644.998 18.8197 645.613 17.9809 646.052 17.1514C646.415 16.4523 646.611 15.7813 646.686 15.1195H642.638C642.619 15.5389 642.563 15.9584 642.451 16.3312L642.349 16.6294L642.302 16.7506C642.302 16.7506 642.255 16.8624 642.237 16.8997L642.013 17.3564L636.687 11.2982C636.687 11.2982 638.077 10.5525 638.077 10.5432C639.065 9.97467 639.858 9.33157 640.437 8.64186C641.211 7.70982 641.612 6.72186 641.612 5.69662C641.612 4.39176 641.08 3.34788 639.979 2.4904C639.457 2.08962 638.841 1.77273 638.142 1.54904L637.274 1.32535L637.107 1.29739L636.799 1.25079L636.519 1.22283L636.276 1.20419L635.717 1.18555H635.288L634.933 1.20419C633.394 1.30671 632.107 1.73545 631.09 2.4904C629.934 3.34788 629.374 4.40108 629.374 5.71526C629.374 6.52613 629.598 7.337 630.046 8.11992C630.503 8.92147 631.174 9.70438 632.126 10.6551L632.424 10.9626L632.088 11.1211C630.391 11.932 629.113 12.9013 628.311 14.0104C627.518 15.1102 627.117 16.4244 627.117 17.925C627.117 19.7984 627.826 21.271 629.299 22.4174C630.587 23.4333 632.275 24.0112 634.318 24.1323C634.318 24.1323 634.597 24.151 634.607 24.151C634.607 24.151 634.961 24.151 634.989 24.151H635.036C635.036 24.151 635.138 24.151 635.185 24.151H635.241L636.015 24.1137L636.351 24.0857C636.351 24.0857 636.677 24.0485 636.687 24.0485C637.181 23.9832 637.629 23.89 638.067 23.7782L638.804 23.5638C639.746 23.2376 640.698 22.725 641.621 22.0632L642.712 23.452H647.404L647.386 23.4892ZM633.73 3.93506L633.889 3.77661C633.889 3.77661 633.917 3.75797 633.944 3.73933C633.944 3.73933 634.066 3.64613 634.066 3.63681L634.112 3.59953L634.29 3.48768C634.29 3.48768 634.374 3.44108 634.383 3.44108L634.485 3.39448C634.485 3.39448 634.597 3.34788 634.607 3.34788C634.607 3.34788 634.672 3.32924 634.681 3.31992C634.681 3.31992 634.98 3.23603 634.989 3.23603C634.989 3.23603 635.549 3.18011 635.558 3.18011C635.931 3.18011 636.276 3.24535 636.584 3.34788C636.584 3.34788 636.817 3.44108 636.845 3.45972C636.845 3.45972 637.041 3.56225 637.032 3.56225L637.097 3.59953L637.246 3.70205L637.442 3.86982C637.657 4.06555 637.825 4.29856 637.955 4.59681L638.049 4.82982L638.133 5.14671C638.133 5.14671 638.151 5.25856 638.161 5.29584L638.198 5.75254C638.198 5.75254 638.151 6.18128 638.151 6.19992L638.142 6.26516C638.142 6.26516 638.03 6.62865 638.011 6.66594C638.011 6.66594 637.965 6.7871 637.965 6.79642C637.825 7.10399 637.629 7.41157 637.386 7.71914L637.172 7.96147L636.948 8.2038L636.705 8.42749C636.705 8.42749 636.463 8.63254 636.435 8.6605C636.435 8.6605 636.155 8.87487 636.146 8.88419L635.232 9.48069L635.008 9.59254L634.439 8.98671C634.439 8.98671 634.262 8.77234 634.252 8.76302C634.252 8.76302 634.094 8.55797 634.075 8.53001L633.944 8.34361C633.944 8.34361 633.926 8.30632 633.907 8.28768C633.907 8.28768 633.805 8.12924 633.805 8.13856L633.758 8.06399L633.665 7.91487L633.543 7.69118C633.226 7.07603 633.058 6.47953 633.058 5.91098C633.058 5.09079 633.282 4.42904 633.739 3.93506H633.73ZM637.825 21.4388L637.554 21.5506L637.265 21.6531C637.265 21.6531 637.023 21.7277 636.985 21.737C636.538 21.8582 636.071 21.9234 635.586 21.9327L635.129 21.9048L634.793 21.8675C634.793 21.8675 634.635 21.8488 634.635 21.8395C634.635 21.8395 633.963 21.6531 633.935 21.6438C633.935 21.6438 633.627 21.5133 633.599 21.504L633.03 21.1685C633.03 21.1685 633.012 21.1591 632.993 21.1405C632.993 21.1405 632.751 20.9448 632.741 20.9448L632.695 20.9075L632.452 20.6838C631.622 19.845 631.193 18.7918 631.193 17.5521C631.193 16.6015 631.463 15.7347 631.986 14.9611L632.191 14.6815L632.415 14.4205L632.657 14.1688L632.928 13.9172L633.497 13.4885L634.122 13.1063L634.346 12.9665L639.896 19.9848C639.196 20.6279 638.459 21.1498 637.806 21.4481L637.825 21.4388Z" fill="white"/>
<path d="M529.429 24.525C528.421 23.3413 527.451 21.7569 526.5 19.781C525.548 17.805 525.073 15.4936 525.073 12.8279C525.073 10.1623 525.548 7.8229 526.5 5.8563C527.451 3.89901 528.421 2.31455 529.429 1.13086H531.667C530.343 3.07882 529.438 5.07338 528.953 7.10523C528.477 9.13707 528.235 11.0384 528.235 12.8279C528.235 14.6175 528.477 16.5095 528.953 18.532C529.438 20.5639 530.343 22.5584 531.667 24.525H529.429Z" fill="white"/>
<path d="M558.895 5.86606C559.846 7.83266 560.313 10.1534 560.313 12.8377C560.313 15.522 559.865 17.8148 558.96 19.7907C558.055 21.7573 557.095 23.3418 556.106 24.5348H553.867C555.182 22.5682 556.087 20.5736 556.572 18.5418C557.057 16.5193 557.3 14.6179 557.3 12.8377C557.3 11.0575 557.057 9.14684 556.572 7.11499C556.087 5.08315 555.182 3.08859 553.867 1.14062H555.975C556.983 2.32431 557.953 3.90878 558.904 5.86606H558.895Z" fill="white"/>
<path d="M546.955 7.66438C545.892 6.58322 545.51 5.45545 545.435 3.75914H550.696V1.25195H535.296V3.75914H540.622C540.51 5.47409 540.006 6.79758 539.018 7.92535C537.339 9.83603 534.652 10.1902 533.291 10.4698L535.613 12.6042C536.648 12.4923 538.757 11.7467 540.529 10.6935C541.527 10.097 542.749 8.81079 543.01 7.83215C543.308 8.81079 545.081 10.5164 546.666 11.2807C548.439 12.1288 549.577 12.6881 550.584 12.6321L552.692 10.4885C550.444 10.069 548.905 9.64962 546.955 7.66438Z" fill="white"/>
<path d="M553.942 14.0303H532.041V16.5375H540.631V24.8419H545.342V16.5375H553.942V14.0303Z" fill="white"/>
</g>
<defs>
<clipPath id="clip0_340_3226">
<rect width="184" height="24" fill="white" transform="translate(690 1)"/>
</clipPath>
<clipPath id="clip1_340_3226">
<rect width="200.13" height="24.42" fill="white"/>
</clipPath>
<clipPath id="clip2_340_3226">
<rect width="203" height="24" fill="white" transform="translate(227 1)"/>
</clipPath>
<clipPath id="clip3_340_3226">
<rect width="206" height="24" fill="white" transform="translate(457 1)"/>
</clipPath>
</defs>
</svg>
