<svg width="358" height="65" viewBox="0 0 358 65" fill="none" xmlns="http://www.w3.org/2000/svg">
<g clip-path="url(#clip0_76_148)">
<path d="M61.91 21.56C57.54 13.82 41.65 14.51 26.43 23.11C11.21 31.7 2.40998 44.95 6.77998 52.69C11.15 60.43 27.04 59.74 42.26 51.14C57.48 42.54 66.27 29.3 61.9 21.55L61.91 21.56ZM28.72 43.56C21.88 47.43 15.16 48.49 13.71 45.93C12.26 43.37 16.64 38.17 23.49 34.3C30.33 30.43 37.05 29.37 38.5 31.93C39.95 34.49 35.57 39.69 28.72 43.56Z" fill="white"/>
<path d="M25.09 62.4198C25.09 62.4198 49.73 61.9098 66.56 43.6798C75.6 33.8898 81.99 12.9898 66.56 0.549805C66.56 0.549805 96.55 17.0398 75.89 47.3298C58.35 73.0398 25.09 62.4198 25.09 62.4198Z" fill="white"/>
<path d="M0 40.44C0 40.44 13.31 9.21004 48.15 9.21004C63.03 9.21004 68.18 20.9 68.68 24.01C68.67 24.02 73.4 -0.359958 46.16 4.17405e-05C5.1 0.540042 0 40.44 0 40.44Z" fill="white"/>
<path d="M141.02 35.4896H99.17V30.7796H116.43V27.0296H108.69C107.22 27.0296 106.19 26.7296 105.58 26.1396C104.97 25.5496 104.66 24.5896 104.66 23.2796V11.5596H135.47V16.3196H112.03V21.0796C112.03 21.8996 112.46 22.3196 113.31 22.3196H135.61V27.0296H123.75V30.7796H141.01V35.4896H141.02ZM133.28 46.4796C133.28 49.4096 132.18 51.6996 129.98 53.3496C127.69 55.0596 124.39 55.9096 120.09 55.9096C115.79 55.9096 112.51 55.0696 110.27 53.3896C108.03 51.7096 106.91 49.4096 106.91 46.4796C106.91 43.5496 108.03 41.2796 110.27 39.5896C112.51 37.8996 115.79 37.0496 120.09 37.0496C124.39 37.0496 127.69 37.9196 129.98 39.6596C132.18 41.3096 133.28 43.5796 133.28 46.4796ZM126.23 46.4796C126.23 45.0496 125.67 43.9096 124.56 43.0696C123.45 42.2296 121.96 41.8096 120.1 41.8096C118.24 41.8096 116.75 42.2296 115.64 43.0696C114.53 43.9096 113.97 45.0496 113.97 46.4796C113.97 47.9096 114.53 49.0996 115.64 49.9396C116.75 50.7796 118.24 51.1996 120.1 51.1996C121.96 51.1996 123.45 50.7796 124.56 49.9396C125.67 49.0996 126.23 47.9496 126.23 46.4796Z" fill="white"/>
<path d="M181.9 40.7597H174.53V31.2797H166.06C163.83 34.0297 160.57 35.3997 156.26 35.3997C152.51 35.3997 149.51 34.3197 147.26 32.1697C145.02 30.0197 143.9 27.0597 143.9 23.3097C143.9 19.5597 145.03 16.5797 147.29 14.3797C149.52 12.2697 152.51 11.2197 156.26 11.2197C160.5 11.2197 163.74 12.5497 165.97 15.1997H174.53V11.3997H181.9V40.7497V40.7597ZM161.67 23.3097C161.67 21.3297 161.19 19.7097 160.23 18.4597C159.27 17.2097 157.95 16.5797 156.27 16.5797C154.59 16.5797 153.23 17.2097 152.26 18.4597C151.3 19.7097 150.82 21.3297 150.82 23.3097C150.82 25.2897 151.3 26.9097 152.26 28.1597C153.22 29.4097 154.56 30.0397 156.27 30.0397C157.98 30.0397 159.27 29.4097 160.23 28.1597C161.19 26.9097 161.67 25.2897 161.67 23.3097ZM183.32 53.4897H155.44C153.15 53.4897 152.01 52.4397 152.01 50.3297V38.8397H159.38V47.4897C159.38 48.2497 159.82 48.6397 160.71 48.6397H183.33V53.4897H183.32ZM174.53 26.5697V19.9297H168.26C168.47 20.9997 168.58 22.1297 168.58 23.3197C168.58 24.5097 168.47 25.5597 168.26 26.5697H174.53Z" fill="white"/>
<path d="M218.44 53.7094H212.21V27.3794H209.19C208.76 30.7694 207.54 33.3894 205.53 35.2294C203.52 37.0794 200.94 37.9994 197.79 37.9994C194.25 37.9994 191.43 36.8394 189.34 34.5194C187.25 32.1994 186.2 28.9494 186.2 24.7694C186.2 20.5894 187.25 17.3194 189.36 14.9694C191.44 12.7094 194.24 11.5794 197.78 11.5794C200.99 11.5794 203.6 12.5294 205.63 14.4394C207.66 16.3494 208.86 19.0594 209.22 22.5694H212.2V11.3994H218.43V53.6994L218.44 53.7094ZM202.73 24.7794C202.73 22.3694 202.29 20.5094 201.4 19.1994C200.51 17.8894 199.31 17.2294 197.78 17.2294C196.25 17.2294 195.05 17.8894 194.16 19.1994C193.27 20.5094 192.83 22.3694 192.83 24.7794C192.83 27.1894 193.27 29.0494 194.16 30.3694C195.04 31.6794 196.25 32.3394 197.78 32.3394C199.31 32.3394 200.51 31.6794 201.4 30.3694C202.28 29.0594 202.73 27.1994 202.73 24.7794ZM227.27 54.2194H220.81V11.4094H227.27V54.2194Z" fill="white"/>
<path d="M272.87 45.8895H231.02V41.0795H272.87V45.8895ZM270.31 29.5895L268.34 34.1695C264.92 33.4395 261.64 32.0295 258.5 29.9295C255.36 27.8395 253.24 25.5995 252.14 23.2195C251.1 25.6595 249.12 27.8695 246.19 29.8395C243.26 31.8095 239.84 33.2695 235.93 34.2095L233.78 29.5395C243.36 26.7895 248.16 21.5995 248.16 13.9695V12.2295H255.76V14.1095C255.76 17.6195 257 20.6995 259.49 23.3595C261.98 26.0195 265.59 28.0895 270.32 29.5895H270.31Z" fill="white"/>
<path d="M306.11 40.1597H299.88V25.6897H297.04C296.61 28.7397 295.43 31.0997 293.49 32.7597C291.55 34.4197 289.03 35.2597 285.91 35.2597C282.37 35.2597 279.6 34.1997 277.6 32.0797C275.6 29.9597 274.6 27.0097 274.6 23.2197C274.6 19.4297 275.6 16.4897 277.6 14.3797C279.6 12.2697 282.37 11.2197 285.91 11.2197C289.02 11.2197 291.56 12.0597 293.51 13.7397C295.46 15.4197 296.64 17.7997 297.04 20.8797H299.88V11.3997H306.11V40.1497V40.1597ZM290.73 23.2197C290.73 21.1397 290.3 19.5197 289.43 18.3397C288.56 17.1697 287.39 16.5797 285.93 16.5797C284.47 16.5797 283.26 17.1697 282.4 18.3397C281.54 19.5197 281.12 21.1397 281.12 23.2197C281.12 25.2997 281.55 26.9597 282.4 28.1197C283.25 29.2797 284.43 29.8597 285.93 29.8597C287.43 29.8597 288.56 29.2797 289.43 28.1197C290.3 26.9597 290.73 25.3297 290.73 23.2197ZM316.18 53.5297H287.38C286.16 53.5297 285.28 53.2897 284.75 52.8197C284.22 52.3497 283.95 51.5297 283.95 50.3697V38.6997H291.09V47.5397C291.09 48.2997 291.53 48.6797 292.42 48.6797H316.18V53.5297ZM314.95 40.2497H308.49V11.4097H314.95V40.2497Z" fill="white"/>
<path d="M357.25 54.2202H349.88V39.9402C348.87 40.9802 346.84 41.8502 343.79 42.5502C341.2 43.1602 337.36 43.4702 332.3 43.4702C329.95 43.4702 327.97 43.3702 326.37 43.1702C324.77 42.9702 323.63 42.4002 322.96 41.4502C322.41 40.6902 322.14 39.5102 322.14 37.9202V12.0502H343.2V16.8602H329.51V24.5102H342.6V29.2702H329.51V36.6402C329.51 37.5602 329.92 38.0702 330.75 38.2002C332.15 38.3802 334.03 38.4802 336.38 38.4802C340.01 38.4802 342.71 38.2902 344.46 37.9102C346.21 37.5302 347.49 37.0802 348.28 36.5602C349.35 35.8002 349.88 34.7002 349.88 33.2602V11.4102H357.25V54.2202Z" fill="white"/>
</g>
<defs>
<clipPath id="clip0_76_148">
<rect width="357.25" height="64.59" fill="white"/>
</clipPath>
</defs>
</svg>
