<svg width="1500" height="568" viewBox="0 0 1500 568" fill="none" xmlns="http://www.w3.org/2000/svg">
<rect width="1500" height="568" rx="20" fill="#F5F5F5"/>
<g clip-path="url(#clip0_142_717)">
<mask id="path-2-inside-1_142_717" fill="white">
<path d="M80 100C80 88.9543 88.9543 80 100 80H1400C1411.05 80 1420 88.9543 1420 100V568H80V100Z"/>
</mask>
<path d="M80 100C80 88.9543 88.9543 80 100 80H1400C1411.05 80 1420 88.9543 1420 100V568H80V100Z" fill="white"/>
<rect x="80" y="80" width="1340" height="56" fill="#57A8BB"/>
<path d="M263.41 99.043V111.816H260.91V99.043H263.41ZM263.879 114.492V116.484H251.496V110.527H254.016V114.492H263.879ZM253.664 100.176C256.398 100.176 258.527 102.051 258.527 104.648C258.527 107.305 256.398 109.16 253.664 109.16C250.93 109.16 248.801 107.305 248.801 104.648C248.801 102.051 250.93 100.176 253.664 100.176ZM253.664 102.344C252.277 102.324 251.223 103.203 251.242 104.648C251.223 106.133 252.277 106.992 253.664 106.992C255.012 106.992 256.066 106.133 256.066 104.648C256.066 103.203 255.012 102.324 253.664 102.344ZM272.355 103.047C272.336 106.23 273.703 109.453 276.555 110.82L275.051 112.812C273.146 111.875 271.867 110.117 271.125 107.969C270.354 110.273 268.977 112.158 266.965 113.145L265.422 111.133C268.43 109.746 269.855 106.348 269.855 103.047V100.391H272.355V103.047ZM279.836 99.0234V105.879H282.453V107.988H279.836V116.797H277.336V99.0234H279.836ZM287.492 109.141V111.035H294.895V109.141H297.355V116.602H285.051V109.141H287.492ZM287.492 114.59H294.895V112.93H287.492V114.59ZM297.434 99.7461V101.172C297.434 102.52 297.434 103.965 297.023 105.977H299.367V107.969H283.098V105.977H294.543C294.895 104.258 294.943 102.92 294.953 101.738H285.09V99.7461H297.434ZM305.285 100.273C306.877 100.273 308.205 101.152 309.016 102.676H312.922V99.0234H315.383V116.836H312.922V110.176H309.211C308.41 111.934 307.004 112.949 305.285 112.949C302.59 112.949 300.656 110.508 300.676 106.602C300.656 102.734 302.59 100.273 305.285 100.273ZM305.285 102.52C303.957 102.52 303.039 103.965 303.059 106.602C303.039 109.258 303.957 110.684 305.285 110.684C306.633 110.684 307.512 109.258 307.512 106.602C307.512 103.965 306.633 102.52 305.285 102.52ZM309.719 104.688C309.826 105.273 309.895 105.918 309.895 106.602C309.895 107.158 309.846 107.686 309.777 108.184H312.922V104.688H309.719ZM324.582 103.047C324.582 106.309 326.066 109.59 329.074 110.859L327.609 112.852C325.578 111.934 324.172 110.166 323.371 107.969C322.561 110.361 321.105 112.295 318.938 113.281L317.434 111.211C320.539 109.902 322.043 106.504 322.062 103.047V100.391H324.582V103.047ZM332.551 99.0234V116.836H330.031V99.0234H332.551ZM344.309 101.367C344.309 103.965 346.613 106.758 350.637 107.441L349.543 109.512C346.447 108.896 344.143 107.158 343 104.863C341.818 107.139 339.514 108.887 336.438 109.512L335.363 107.441C339.309 106.738 341.633 103.945 341.652 101.367V100.078H344.309V101.367ZM351.223 112.559V114.609H334.953V112.559H351.223ZM359.719 100.078V102.09H355.324V103.496H359.055V105.41H355.324V106.953C357.268 106.924 358.684 106.846 360.324 106.582L360.578 108.516C358.527 108.867 356.828 108.926 354.152 108.926H352.941V100.078H359.719ZM367.512 99.0234V109.629H365.148V99.0234H367.512ZM363.977 99.2969V109.512H361.613V105.293H359.816V103.301H361.613V99.2969H363.977ZM367.512 110.332V116.602H355.383V110.332H367.512ZM357.863 112.285V114.609H365.051V112.285H357.863Z" fill="white"/>
<rect x="1199" y="88" width="40" height="40" rx="20" fill="white"/>
<g clip-path="url(#clip1_142_717)">
<path d="M1223.5 108C1224.88 108 1225.99 106.88 1225.99 105.5C1225.99 104.12 1224.88 103 1223.5 103C1222.12 103 1221 104.12 1221 105.5C1221 106.88 1222.12 108 1223.5 108ZM1216 107C1217.66 107 1218.99 105.66 1218.99 104C1218.99 102.34 1217.66 101 1216 101C1214.34 101 1213 102.34 1213 104C1213 105.66 1214.34 107 1216 107ZM1223.5 110C1221.67 110 1218 110.92 1218 112.75V115H1229V112.75C1229 110.92 1225.33 110 1223.5 110ZM1216 109C1213.67 109 1209 110.17 1209 112.5V115H1216V112.75C1216 111.9 1216.33 110.41 1218.37 109.28C1217.5 109.1 1216.66 109 1216 109Z" fill="#DFDFDF"/>
</g>
<path d="M1254.21 103.488C1254.19 106.318 1255.61 109.201 1258.07 110.379L1256.88 111.943C1255.15 111.073 1253.92 109.395 1253.24 107.373C1252.54 109.535 1251.24 111.328 1249.42 112.242L1248.23 110.678C1250.78 109.465 1252.24 106.424 1252.25 103.488V100.957H1254.21V103.488ZM1260.97 99.6738V105.896H1263.42V107.566H1260.97V115.564H1259.02V99.6738H1260.97ZM1267.75 100.377C1269.8 100.359 1271.42 101.546 1271.82 103.295H1274.69V99.6738H1276.64V108.199H1274.69V104.877H1271.84C1271.45 106.661 1269.81 107.865 1267.75 107.865C1265.3 107.865 1263.54 106.301 1263.54 104.104C1263.54 101.941 1265.3 100.359 1267.75 100.377ZM1267.75 102.012C1266.38 102.012 1265.41 102.82 1265.41 104.104C1265.41 105.369 1266.38 106.213 1267.75 106.213C1269.08 106.213 1270.03 105.369 1270.05 104.104C1270.03 102.82 1269.08 102.012 1267.75 102.012ZM1268.1 108.938V110.625H1274.69V108.938H1276.64V115.371H1266.16V108.938H1268.1ZM1268.1 113.789H1274.69V112.137H1268.1V113.789ZM1287.02 100.852V101.801C1287 102.891 1287 104.455 1286.63 106.477L1284.7 106.301C1285 104.657 1285.07 103.444 1285.1 102.469H1278.91V100.852H1287.02ZM1283.01 104.473V107.637C1284.65 107.575 1286.34 107.452 1287.88 107.232L1287.98 108.639C1284.68 109.236 1280.94 109.289 1278.14 109.307L1277.96 107.742C1278.91 107.733 1279.96 107.725 1281.08 107.707V104.473H1283.01ZM1290.81 99.6738V104.631H1292.87V106.266H1290.81V111.574H1288.81V99.6738H1290.81ZM1291.32 113.666V115.248H1280.34V110.52H1282.31V113.666H1291.32ZM1306.18 99.6738V115.582H1304.25V99.6738H1306.18ZM1301.3 101.062V107.021H1295.83V110.221C1298.33 110.203 1300.5 110.08 1302.97 109.658L1303.14 111.258C1300.44 111.732 1298.06 111.82 1295.21 111.82H1293.83V105.475H1299.31V102.645H1293.81V101.062H1301.3ZM1322.26 108.92V110.467H1315.93V115.564H1313.99V110.467H1307.74V108.92H1322.26ZM1311.43 100.307V102.258H1318.53V100.307H1320.5V107.268H1309.49V100.307H1311.43ZM1311.43 105.686H1318.53V103.805H1311.43V105.686ZM1333.17 99.4805V115.793H1331.08V99.4805H1333.17ZM1353.92 100.641C1353.92 104.771 1351.12 107.637 1346.4 108.85L1345.62 107.338C1349.32 106.38 1351.49 104.508 1351.83 102.188H1346.54V100.641H1353.92ZM1358.75 99.6914V108.586H1356.79V99.6914H1358.75ZM1358.75 109.271V115.354H1348.26V109.271H1358.75ZM1350.19 110.818V113.807H1356.84V110.818H1350.19ZM1366.32 104.191C1366.32 106.793 1367.85 109.535 1370.41 110.607L1369.34 112.154C1367.46 111.346 1366.09 109.676 1365.37 107.654C1364.63 109.834 1363.24 111.662 1361.38 112.541L1360.25 111.012C1362.77 109.852 1364.33 106.898 1364.33 104.191V102.855H1360.83V101.238H1369.8V102.855H1366.32V104.191ZM1373.54 99.6738V115.564H1371.57V99.6738H1373.54ZM1388.44 99.6914V111.346H1386.49V107.408H1382.71C1381.94 108.261 1380.82 108.779 1379.54 108.779C1377.15 108.779 1375.34 107.057 1375.34 104.719C1375.34 102.346 1377.15 100.641 1379.54 100.641C1380.81 100.641 1381.92 101.15 1382.69 101.994H1386.49V99.6914H1388.44ZM1388.84 113.666V115.248H1378.01V110.15H1379.96V113.666H1388.84ZM1379.54 102.381C1378.17 102.381 1377.21 103.295 1377.21 104.719C1377.21 106.125 1378.17 107.039 1379.54 107.039C1380.84 107.039 1381.83 106.125 1381.85 104.719C1381.83 103.295 1380.84 102.381 1379.54 102.381ZM1383.55 103.576C1383.65 103.937 1383.71 104.314 1383.71 104.719C1383.71 105.105 1383.66 105.475 1383.57 105.826H1386.49V103.576H1383.55Z" fill="white"/>
<g clip-path="url(#clip2_142_717)">
<path d="M164.967 109.093C164.967 110.014 164.554 110.476 163.726 110.476C163.349 110.476 162.915 110.281 162.437 109.887L151.898 101.119V109.61C151.898 110 151.733 110.247 151.408 110.346C151.314 110.36 151.185 110.37 151.024 110.38C150.863 110.391 150.664 110.394 150.434 110.394C149.906 110.394 149.64 110.134 149.64 109.607V99.4939C149.64 98.6177 150.028 98.1797 150.8 98.1797C151.29 98.1797 151.789 98.3919 152.307 98.8162L162.709 107.485V99.0455C162.709 98.6622 162.87 98.4192 163.195 98.32C163.289 98.3063 163.419 98.296 163.579 98.2858C163.74 98.2755 163.936 98.2721 164.166 98.2721C164.698 98.2721 164.967 98.5322 164.967 99.049V109.09V109.093Z" fill="white"/>
<path d="M172.574 104.25C172.574 105.181 171.805 105.934 170.855 105.934C169.904 105.934 169.135 105.181 169.135 104.25C169.135 103.319 169.904 102.566 170.855 102.566C171.805 102.566 172.574 103.319 172.574 104.25Z" fill="white"/>
<path d="M190.483 99.2918C190.483 99.8154 190.217 100.079 189.689 100.079H181.652C179.702 100.079 178.728 100.459 178.728 101.222V107.221C178.728 108.125 179.807 108.577 181.97 108.577H189.644C190.193 108.577 190.469 108.878 190.469 109.483C190.469 110.089 190.193 110.397 189.644 110.397H181.97C180.932 110.397 180.188 110.356 179.734 110.277C179.241 110.185 178.724 110.007 178.189 109.74C177.578 109.429 177.152 109.104 176.91 108.765C176.62 108.381 176.474 107.878 176.474 107.262V101.232C176.474 100.469 176.83 99.8189 177.539 99.2816C178.137 98.8367 178.86 98.5389 179.713 98.3849C179.93 98.3507 180.195 98.3233 180.506 98.3062C180.817 98.2857 181.188 98.2754 181.614 98.2754H189.693C190.221 98.2754 190.486 98.6142 190.486 99.2918H190.483Z" fill="white"/>
<path d="M206.707 107.433C206.707 108.521 206.158 109.319 205.061 109.822C204.282 110.209 203.248 110.4 201.951 110.4H198.383C197.206 110.4 196.14 110.205 195.183 109.815C194.005 109.298 193.414 108.504 193.414 107.437V103.922C193.414 102.854 194.001 102.043 195.172 101.492C196.032 101.068 197.101 100.855 198.373 100.855H201.951C205.121 100.855 206.707 101.872 206.707 103.901V107.433ZM204.534 107.433V103.761C204.534 103.005 203.653 102.625 201.892 102.625H198.408C197.758 102.625 197.174 102.704 196.661 102.864C195.93 103.097 195.563 103.45 195.563 103.918V107.433C195.563 107.885 195.937 108.217 196.682 108.429C197.174 108.569 197.754 108.638 198.418 108.638H201.902C202.465 108.638 202.996 108.559 203.499 108.398C204.191 108.179 204.534 107.858 204.534 107.433Z" fill="white"/>
<path d="M215.436 101.847C215.436 102.371 215.118 102.635 214.482 102.635C214.395 102.635 214.265 102.631 214.101 102.621C213.937 102.611 213.808 102.607 213.72 102.607C212.074 102.607 211.25 103.008 211.25 103.812V109.613C211.25 109.999 211.099 110.239 210.802 110.338C210.68 110.379 210.369 110.396 209.866 110.396C209.363 110.396 209.104 110.133 209.104 109.599V103.808C209.104 102.563 209.758 101.714 211.065 101.269C211.865 100.992 213.053 100.852 214.632 100.852C215.167 100.852 215.436 101.184 215.436 101.847Z" fill="white"/>
<path d="M230.675 105.791C230.675 106.37 230.476 106.657 230.077 106.657H219.42V106.726C219.42 107.629 219.961 108.208 221.045 108.468C221.282 108.519 221.625 108.564 222.075 108.591C222.526 108.622 223.099 108.635 223.798 108.635C224.326 108.635 224.591 108.96 224.591 109.611C224.591 110.134 224.329 110.398 223.798 110.398C223.078 110.398 222.491 110.394 222.033 110.384C221.576 110.374 221.23 110.357 220.992 110.329C219.814 110.21 218.948 109.939 218.389 109.515C217.596 108.913 217.201 108.201 217.201 107.386V103.875C217.201 102.773 217.812 101.958 219.028 101.428C219.86 101.045 220.964 100.85 222.341 100.85H226.345C227.471 100.85 228.4 101.031 229.141 101.397C230.165 101.863 230.675 102.561 230.675 103.498V105.798V105.791ZM228.582 104.837V103.663C228.582 102.947 227.128 102.588 224.224 102.588C222.509 102.588 221.335 102.646 220.699 102.766C219.797 102.93 219.346 103.259 219.346 103.741V104.837H228.582Z" fill="white"/>
<path d="M151.657 113.251H152.474V117.543H151.622L150.986 116.013C150.881 115.767 150.783 115.507 150.692 115.236C150.601 114.966 150.503 114.658 150.402 114.306H150.392C150.413 114.562 150.427 114.781 150.441 114.966C150.454 115.151 150.465 115.339 150.479 115.531C150.493 115.777 150.507 116.003 150.51 116.205C150.517 116.403 150.521 116.581 150.521 116.735V117.543H149.703V113.251H150.552L151.188 114.812C151.297 115.069 151.398 115.329 151.489 115.599C151.58 115.87 151.674 116.174 151.772 116.516H151.782C151.747 116.054 151.719 115.647 151.702 115.298C151.674 114.819 151.66 114.415 151.66 114.09V113.248L151.657 113.251Z" fill="white"/>
<path d="M154.061 115.424C154.061 114.627 154.431 114.227 155.172 114.227C155.43 114.227 155.637 114.257 155.794 114.322C155.951 114.384 156.07 114.476 156.147 114.596C156.224 114.716 156.276 114.86 156.301 115.024C156.325 115.192 156.339 115.397 156.339 115.643V116.078H154.819V116.547C154.819 116.742 154.857 116.872 154.924 116.944C154.99 117.016 155.088 117.05 155.217 117.05C155.347 117.05 155.437 117.005 155.49 116.91C155.542 116.817 155.57 116.66 155.57 116.444H156.329C156.329 116.834 156.245 117.129 156.073 117.324C155.902 117.522 155.637 117.621 155.277 117.621C154.847 117.621 154.539 117.515 154.347 117.303C154.155 117.091 154.061 116.745 154.061 116.266V115.418V115.424ZM155.577 115.51V115.229C155.577 115.065 155.546 114.952 155.49 114.89C155.434 114.829 155.333 114.798 155.179 114.798C155.025 114.798 154.924 114.843 154.882 114.932C154.84 115.021 154.819 115.168 154.819 115.376V115.507H155.577V115.51Z" fill="white"/>
<path d="M160.144 116.294C160.183 116.506 160.207 116.739 160.221 116.985H160.239C160.239 116.951 160.239 116.9 160.246 116.835C160.249 116.77 160.256 116.691 160.267 116.602C160.277 116.516 160.284 116.445 160.291 116.39C160.298 116.335 160.302 116.294 160.305 116.27L160.557 114.312H161.322L160.655 117.54H159.826L159.575 116.236C159.54 116.051 159.508 115.781 159.473 115.421H159.449C159.439 115.702 159.411 115.955 159.372 116.188L159.138 117.54H158.289L157.611 114.312H158.411L158.68 116.28C158.684 116.301 158.687 116.339 158.694 116.393C158.701 116.451 158.708 116.523 158.719 116.612C158.729 116.701 158.736 116.777 158.74 116.845C158.743 116.913 158.747 116.961 158.747 116.996H158.757C158.768 116.746 158.796 116.516 158.834 116.304L159.148 114.312H159.774L160.141 116.294H160.144Z" fill="white"/>
<path d="M167.654 116.012C167.654 116.012 167.654 116.064 167.647 116.132C167.64 116.201 167.636 116.242 167.636 116.259C167.626 116.468 167.598 116.656 167.552 116.82C167.507 116.984 167.437 117.128 167.346 117.251C167.252 117.375 167.13 117.47 166.979 117.539C166.829 117.607 166.64 117.641 166.42 117.641C166.095 117.641 165.837 117.594 165.641 117.498C165.445 117.402 165.302 117.268 165.208 117.097C165.113 116.926 165.054 116.728 165.026 116.505C164.998 116.283 164.984 116.002 164.984 115.66V115.047C164.995 114.715 165.016 114.445 165.047 114.233C165.078 114.021 165.138 113.832 165.232 113.668C165.323 113.5 165.466 113.374 165.655 113.281C165.847 113.189 166.099 113.145 166.413 113.145C167.154 113.155 167.552 113.524 167.612 114.253C167.622 114.363 167.629 114.472 167.629 114.578H166.822C166.819 114.555 166.815 114.51 166.812 114.442C166.805 114.339 166.794 114.257 166.784 114.192C166.773 114.13 166.752 114.065 166.728 114C166.703 113.935 166.665 113.884 166.613 113.846C166.564 113.808 166.497 113.788 166.413 113.788C166.281 113.788 166.176 113.819 166.095 113.877C166.015 113.935 165.956 114.017 165.917 114.116C165.879 114.219 165.854 114.329 165.84 114.448C165.83 114.568 165.823 114.709 165.823 114.869V116.06C165.823 116.177 165.83 116.286 165.84 116.385C165.851 116.485 165.879 116.581 165.917 116.673C165.956 116.765 166.015 116.844 166.095 116.902C166.176 116.96 166.281 116.991 166.413 116.991C166.508 116.991 166.581 116.964 166.633 116.909C166.689 116.854 166.728 116.782 166.756 116.697C166.784 116.611 166.801 116.522 166.808 116.433C166.815 116.344 166.819 116.245 166.819 116.139C166.822 116.077 166.826 116.033 166.826 116.009H167.65L167.654 116.012Z" fill="white"/>
<path d="M169.663 117.538C169.513 117.48 169.394 117.384 169.314 117.261C169.23 117.134 169.174 116.973 169.142 116.782C169.111 116.586 169.097 116.34 169.097 116.042C169.097 115.693 169.111 115.419 169.128 115.224C169.146 115.029 169.188 114.855 169.258 114.704C169.328 114.55 169.443 114.434 169.604 114.352C169.764 114.27 169.981 114.229 170.257 114.229C170.533 114.229 170.743 114.27 170.9 114.352C171.057 114.434 171.169 114.55 171.239 114.704C171.309 114.858 171.354 115.033 171.372 115.235C171.389 115.433 171.396 115.707 171.396 116.046C171.396 116.347 171.382 116.593 171.354 116.788C171.326 116.98 171.271 117.141 171.19 117.268C171.11 117.394 170.994 117.487 170.844 117.545C170.694 117.603 170.498 117.634 170.257 117.634C170.016 117.634 169.813 117.603 169.66 117.545L169.663 117.538ZM169.855 116.487C169.855 116.706 169.88 116.853 169.929 116.932C169.978 117.014 170.086 117.052 170.261 117.052C170.435 117.052 170.53 117.011 170.572 116.932C170.617 116.853 170.638 116.703 170.638 116.487V115.413C170.638 115.31 170.638 115.228 170.628 115.163C170.621 115.101 170.607 115.04 170.582 114.981C170.558 114.923 170.519 114.879 170.467 114.848C170.414 114.817 170.341 114.8 170.254 114.8C170.156 114.8 170.079 114.817 170.027 114.851C169.971 114.886 169.932 114.93 169.908 114.985C169.883 115.04 169.866 115.098 169.862 115.163C169.855 115.224 169.855 115.31 169.855 115.413V116.487Z" fill="white"/>
<path d="M173.668 114.886H173.678C173.724 114.773 173.773 114.677 173.818 114.605C173.863 114.533 173.916 114.475 173.975 114.427C174.063 114.355 174.136 114.307 174.206 114.29C174.276 114.273 174.346 114.259 174.419 114.256H174.447V115.135C174.422 115.135 174.395 115.135 174.363 115.129H174.286C174.104 115.129 173.958 115.17 173.853 115.255C173.748 115.341 173.692 115.478 173.689 115.673V117.538H172.93V114.311H173.661V114.882L173.668 114.886Z" fill="white"/>
<path d="M175.715 115.424C175.715 114.627 176.086 114.227 176.827 114.227C177.082 114.227 177.291 114.257 177.449 114.322C177.606 114.384 177.725 114.476 177.802 114.596C177.878 114.716 177.931 114.86 177.955 115.024C177.98 115.192 177.994 115.397 177.994 115.643V116.078H176.474V116.547C176.477 116.742 176.512 116.872 176.578 116.944C176.645 117.016 176.743 117.05 176.872 117.05C177.001 117.05 177.092 117.005 177.145 116.91C177.197 116.817 177.225 116.66 177.225 116.444H177.983C177.983 116.834 177.899 117.129 177.728 117.324C177.56 117.522 177.291 117.621 176.931 117.621C176.502 117.621 176.194 117.515 176.002 117.303C175.81 117.091 175.715 116.745 175.715 116.266V115.418V115.424ZM177.235 115.51V115.229C177.232 115.065 177.204 114.952 177.148 114.89C177.092 114.829 176.991 114.798 176.837 114.798C176.683 114.798 176.582 114.843 176.54 114.932C176.498 115.021 176.477 115.168 176.477 115.376V115.507H177.235V115.51Z" fill="white"/>
<path d="M183.798 113.25H184.675L183.728 117.542H182.634L181.663 113.25H182.54L183.054 116.002C183.092 116.2 183.127 116.443 183.155 116.734C183.155 116.744 183.158 116.782 183.165 116.843C183.183 116.953 183.19 117.035 183.19 117.09H183.2C183.2 117.035 183.207 116.953 183.225 116.843C183.232 116.782 183.235 116.744 183.235 116.734C183.263 116.443 183.295 116.2 183.337 116.002L183.798 113.25Z" fill="white"/>
<path d="M187.418 117.541C187.383 117.473 187.366 117.391 187.366 117.302C187.366 117.298 187.366 117.281 187.373 117.257V117.209H187.362C187.268 117.35 187.166 117.452 187.058 117.517C186.943 117.589 186.821 117.627 186.695 117.627C186.387 117.627 186.164 117.548 186.024 117.391C185.884 117.233 185.814 116.99 185.814 116.658C185.814 116.491 185.839 116.347 185.895 116.227C185.947 116.107 186.02 116.008 186.115 115.926C186.209 115.847 186.314 115.779 186.422 115.727C186.53 115.673 186.677 115.611 186.859 115.539C186.88 115.532 186.904 115.519 186.943 115.505C187.079 115.447 187.177 115.389 187.24 115.324C187.303 115.262 187.334 115.183 187.334 115.091C187.334 115.053 187.327 115.012 187.317 114.964C187.303 114.896 187.264 114.851 187.212 114.831C187.156 114.81 187.076 114.8 186.96 114.8C186.803 114.8 186.698 114.838 186.646 114.913C186.59 114.988 186.565 115.108 186.565 115.269H185.842C185.842 115.101 185.86 114.954 185.891 114.831C185.922 114.708 185.982 114.598 186.069 114.509C186.157 114.417 186.272 114.348 186.426 114.3C186.576 114.252 186.768 114.229 186.992 114.229C187.215 114.229 187.415 114.252 187.561 114.307C187.708 114.359 187.816 114.427 187.893 114.516C187.967 114.605 188.016 114.701 188.044 114.81C188.068 114.92 188.082 115.043 188.082 115.187V117.093C188.082 117.237 188.103 117.387 188.145 117.545H187.425L187.418 117.541ZM187.313 115.84C187.268 115.871 187.201 115.912 187.121 115.967C186.936 116.087 186.793 116.179 186.702 116.255C186.649 116.296 186.618 116.35 186.6 116.419C186.583 116.484 186.572 116.559 186.572 116.645C186.572 116.778 186.6 116.881 186.653 116.953C186.705 117.025 186.8 117.059 186.932 117.059C187.023 117.059 187.093 117.038 187.146 116.997C187.198 116.956 187.236 116.901 187.261 116.833C187.285 116.764 187.299 116.696 187.303 116.621C187.31 116.545 187.313 116.456 187.313 116.354C187.317 116.275 187.32 116.22 187.32 116.193V115.844L187.313 115.84Z" fill="white"/>
<path d="M189.794 117.542V113.25H190.553V117.542H189.794Z" fill="white"/>
<path d="M193.659 117.06H193.649C193.589 117.251 193.505 117.392 193.39 117.484C193.275 117.576 193.124 117.624 192.943 117.628C192.66 117.628 192.464 117.559 192.363 117.426C192.261 117.292 192.209 117.077 192.209 116.789V114.318H192.967V116.529C192.967 116.635 192.974 116.721 192.981 116.786C192.992 116.851 193.009 116.909 193.041 116.957C193.107 117.025 193.184 117.06 193.275 117.06C193.355 117.06 193.421 117.039 193.47 117.001C193.519 116.964 193.554 116.912 193.575 116.851C193.596 116.789 193.61 116.724 193.617 116.656C193.624 116.591 193.628 116.509 193.628 116.413V114.318H194.386V117.546H193.663V117.063L193.659 117.06Z" fill="white"/>
<path d="M195.972 115.424C195.972 114.627 196.343 114.227 197.084 114.227C197.342 114.227 197.548 114.257 197.706 114.322C197.863 114.384 197.982 114.476 198.058 114.596C198.135 114.716 198.188 114.86 198.212 115.024C198.237 115.192 198.251 115.397 198.251 115.643V116.078H196.731V116.547C196.734 116.742 196.769 116.872 196.835 116.944C196.902 117.016 197 117.05 197.129 117.05C197.258 117.05 197.349 117.005 197.402 116.91C197.454 116.817 197.482 116.66 197.482 116.444H198.24C198.24 116.834 198.156 117.129 197.985 117.324C197.817 117.522 197.548 117.621 197.188 117.621C196.759 117.621 196.451 117.515 196.259 117.303C196.067 117.091 195.972 116.745 195.972 116.266V115.418V115.424ZM197.492 115.51V115.229C197.489 115.065 197.461 114.952 197.405 114.89C197.349 114.829 197.248 114.798 197.094 114.798C196.94 114.798 196.839 114.843 196.797 114.932C196.755 115.021 196.734 115.168 196.734 115.376V115.507H197.492V115.51Z" fill="white"/>
<path d="M203.866 114.555C203.866 114.309 203.835 114.117 203.772 113.99C203.709 113.86 203.58 113.795 203.384 113.795C203.241 113.795 203.129 113.826 203.052 113.891C202.975 113.953 202.937 114.055 202.937 114.196C202.937 114.336 202.972 114.452 203.045 114.531C203.118 114.61 203.234 114.699 203.394 114.801L203.405 114.808C203.503 114.87 203.594 114.928 203.674 114.979C203.754 115.034 203.838 115.089 203.926 115.147C204.013 115.205 204.097 115.267 204.184 115.332C204.271 115.397 204.341 115.455 204.397 115.51C204.534 115.64 204.628 115.773 204.684 115.914C204.74 116.054 204.764 116.218 204.764 116.41C204.764 116.807 204.642 117.111 204.397 117.327C204.153 117.539 203.824 117.649 203.415 117.649C203.178 117.649 202.972 117.618 202.8 117.553C202.629 117.491 202.489 117.402 202.385 117.286C202.28 117.173 202.203 117.036 202.154 116.875C202.105 116.718 202.081 116.54 202.081 116.341V116.027H202.898V116.28C202.898 116.516 202.94 116.694 203.017 116.817C203.097 116.94 203.23 117.002 203.412 117.002C203.751 117.002 203.922 116.834 203.922 116.499C203.922 116.376 203.894 116.27 203.842 116.177C203.786 116.085 203.705 116.003 203.597 115.931C203.503 115.859 203.356 115.756 203.153 115.626C202.944 115.493 202.776 115.376 202.647 115.277C202.521 115.178 202.405 115.065 202.304 114.938C202.164 114.736 202.094 114.517 202.094 114.281C202.094 113.912 202.203 113.631 202.416 113.436C202.629 113.244 202.951 113.148 203.38 113.148C203.677 113.148 203.912 113.193 204.09 113.289C204.268 113.381 204.397 113.501 204.474 113.641C204.555 113.782 204.603 113.922 204.624 114.059C204.645 114.196 204.652 114.346 204.652 114.511V114.555H203.863H203.866Z" fill="white"/>
<path d="M206.801 117.538C206.651 117.48 206.532 117.384 206.452 117.261C206.372 117.134 206.312 116.973 206.284 116.782C206.253 116.586 206.239 116.34 206.239 116.042C206.242 115.693 206.253 115.419 206.27 115.224C206.288 115.029 206.333 114.855 206.403 114.704C206.473 114.55 206.588 114.434 206.749 114.352C206.91 114.27 207.126 114.229 207.402 114.229C207.679 114.229 207.888 114.27 208.045 114.352C208.203 114.434 208.314 114.55 208.384 114.704C208.454 114.858 208.5 115.033 208.517 115.235C208.535 115.433 208.545 115.707 208.545 116.046C208.545 116.347 208.531 116.593 208.5 116.788C208.472 116.98 208.416 117.141 208.335 117.268C208.255 117.394 208.14 117.487 207.99 117.545C207.839 117.603 207.644 117.634 207.402 117.634C207.161 117.634 206.959 117.603 206.805 117.545L206.801 117.538ZM206.994 116.487C206.994 116.706 207.018 116.853 207.067 116.932C207.116 117.014 207.224 117.052 207.395 117.052C207.567 117.052 207.665 117.011 207.71 116.932C207.755 116.853 207.776 116.703 207.776 116.487V115.413C207.776 115.31 207.776 115.228 207.769 115.163C207.762 115.101 207.748 115.04 207.724 114.981C207.699 114.923 207.665 114.879 207.609 114.848C207.556 114.817 207.486 114.8 207.395 114.8C207.298 114.8 207.221 114.817 207.168 114.851C207.112 114.886 207.074 114.93 207.05 114.985C207.025 115.04 207.008 115.098 207.004 115.163C206.997 115.224 206.994 115.31 206.994 115.413V116.487Z" fill="white"/>
<path d="M210.156 117.542V113.25H210.914V117.542H210.156Z" fill="white"/>
<path d="M214.017 117.06H214.007C213.947 117.251 213.86 117.392 213.748 117.484C213.633 117.576 213.483 117.624 213.301 117.628C213.014 117.628 212.822 117.559 212.721 117.426C212.62 117.292 212.567 117.077 212.567 116.789V114.318H213.325V116.529C213.325 116.635 213.329 116.721 213.339 116.786C213.35 116.851 213.371 116.909 213.399 116.957C213.465 117.025 213.542 117.06 213.633 117.06C213.713 117.06 213.78 117.039 213.829 117.001C213.878 116.964 213.912 116.912 213.933 116.851C213.954 116.789 213.968 116.724 213.975 116.656C213.982 116.591 213.986 116.509 213.986 116.413V114.318H214.744V117.546H214.021V117.063L214.017 117.06Z" fill="white"/>
<path d="M217.494 117.553C217.337 117.574 217.211 117.58 217.11 117.58C216.904 117.58 216.736 117.543 216.607 117.464C216.477 117.385 216.414 117.245 216.414 117.043V114.856H216.103V114.312H216.407V113.426H217.173V114.312H217.494V114.856H217.173V116.858C217.18 116.899 217.204 116.93 217.243 116.947C217.281 116.964 217.33 116.975 217.382 116.975H217.445C217.47 116.975 217.484 116.968 217.491 116.968V117.553H217.494Z" fill="white"/>
<path d="M218.955 113.924V113.25H219.713V113.924H218.955ZM218.955 117.542V114.314H219.713V117.542H218.955Z" fill="white"/>
<path d="M221.901 117.538C221.747 117.48 221.632 117.384 221.551 117.261C221.471 117.134 221.411 116.973 221.38 116.782C221.349 116.586 221.335 116.34 221.335 116.042C221.338 115.693 221.349 115.419 221.366 115.224C221.383 115.029 221.425 114.855 221.495 114.704C221.565 114.55 221.68 114.434 221.841 114.352C222.002 114.27 222.219 114.229 222.495 114.229C222.771 114.229 222.98 114.27 223.138 114.352C223.295 114.434 223.407 114.55 223.477 114.704C223.546 114.858 223.592 115.033 223.609 115.235C223.627 115.433 223.634 115.707 223.634 116.046C223.634 116.347 223.62 116.593 223.592 116.788C223.564 116.98 223.508 117.141 223.428 117.268C223.347 117.394 223.232 117.487 223.082 117.545C222.931 117.603 222.736 117.634 222.495 117.634C222.254 117.634 222.051 117.603 221.897 117.545L221.901 117.538ZM222.096 116.487C222.096 116.706 222.121 116.853 222.17 116.932C222.219 117.014 222.327 117.052 222.498 117.052C222.669 117.052 222.767 117.011 222.809 116.932C222.855 116.853 222.876 116.703 222.876 116.487V115.413C222.876 115.31 222.876 115.228 222.865 115.163C222.858 115.101 222.844 115.04 222.823 114.981C222.799 114.923 222.76 114.879 222.708 114.848C222.655 114.817 222.586 114.8 222.495 114.8C222.397 114.8 222.32 114.817 222.268 114.851C222.212 114.886 222.173 114.93 222.149 114.985C222.124 115.04 222.107 115.098 222.103 115.163C222.096 115.224 222.096 115.31 222.096 115.413V116.487Z" fill="white"/>
<path d="M225.94 114.644H225.951C225.989 114.555 226.038 114.483 226.097 114.425C226.157 114.366 226.216 114.325 226.283 114.295C226.345 114.264 226.408 114.247 226.468 114.236C226.527 114.226 226.583 114.223 226.639 114.223C226.866 114.223 227.048 114.291 227.188 114.425C227.327 114.558 227.397 114.767 227.397 115.047V117.539H226.639V115.386C226.639 115.208 226.618 115.075 226.576 114.989C226.534 114.904 226.447 114.859 226.318 114.856C226.185 114.856 226.09 114.907 226.031 115.01C225.972 115.112 225.944 115.26 225.944 115.451V117.542H225.185V114.315H225.944V114.647L225.94 114.644Z" fill="white"/>
<path d="M229.55 116.477C229.543 116.539 229.539 116.597 229.539 116.649C229.539 116.823 229.571 116.936 229.634 116.984C229.697 117.032 229.787 117.056 229.903 117.056C229.997 117.056 230.074 117.028 230.137 116.977C230.2 116.922 230.231 116.857 230.231 116.775C230.231 116.748 230.228 116.724 230.221 116.696C230.221 116.628 230.189 116.57 230.137 116.519C230.084 116.467 230.011 116.416 229.917 116.358C229.896 116.347 229.875 116.33 229.847 116.313L229.431 116.033C229.228 115.896 229.075 115.745 228.966 115.588C228.858 115.427 228.806 115.235 228.806 115.016C228.806 114.766 228.903 114.571 229.103 114.434C229.298 114.301 229.578 114.232 229.941 114.232C230.647 114.232 231 114.588 231 115.304H230.242C230.242 115.115 230.214 114.989 230.161 114.913C230.105 114.842 230.018 114.804 229.892 114.804C229.794 114.804 229.718 114.828 229.658 114.869C229.599 114.913 229.571 114.978 229.571 115.067C229.571 115.146 229.592 115.211 229.637 115.263C229.683 115.314 229.749 115.369 229.84 115.43L229.857 115.44L230.476 115.851C230.525 115.879 230.581 115.916 230.637 115.964C230.693 116.012 230.748 116.067 230.801 116.128C230.853 116.187 230.899 116.248 230.934 116.313C230.972 116.375 230.99 116.433 230.997 116.488C231.004 116.563 231.007 116.638 231.007 116.707C231.007 116.837 230.99 116.957 230.955 117.063C230.92 117.172 230.86 117.268 230.776 117.354C230.693 117.439 230.577 117.508 230.427 117.555C230.277 117.607 230.091 117.631 229.868 117.631C229.756 117.631 229.637 117.617 229.518 117.586C229.4 117.559 229.284 117.508 229.172 117.439C229.064 117.367 228.973 117.268 228.9 117.135C228.827 117.001 228.792 116.833 228.792 116.635V116.56C228.792 116.525 228.799 116.498 228.799 116.481H229.557L229.55 116.477Z" fill="white"/>
<path d="M125.127 100.124V90.1992L110.349 98.5531L119.127 103.519L125.127 100.124Z" fill="white"/>
<path d="M132.172 111.294L140.95 116.253L132.172 111.287L125.826 114.877L132.172 111.294Z" fill="white"/>
<path d="M119.127 111.484L110.349 116.447L125.127 124.804V114.876L119.127 111.484Z" fill="white"/>
<path d="M118.778 104.11L110 99.1445V115.856L118.778 110.893V104.11Z" fill="white"/>
<path d="M132.172 111.293L125.826 114.876V124.804L140.95 116.252L132.172 111.293Z" fill="white"/>
<path d="M132.172 103.712L125.826 100.122V100.126L132.172 103.719L140.95 98.75L132.172 103.716V103.712Z" fill="white"/>
<path d="M132.172 103.714V103.717L140.95 98.7516L125.826 90.1992V100.124L132.172 103.714Z" fill="white"/>
<path d="M123.079 107.67C123.079 108.967 124.152 110.018 125.477 110.018C126.801 110.018 127.874 108.967 127.874 107.67C127.874 106.373 126.801 105.322 125.477 105.322C124.152 105.322 123.079 106.373 123.079 107.67Z" fill="white"/>
<path d="M118.778 111.287L110 116.253L110.349 116.448L119.127 111.486L118.778 111.287Z" fill="#57A8BB"/>
<path d="M118.778 111.286V110.893L110 115.855V116.252L118.778 111.286Z" fill="#57A8BB"/>
<path d="M118.778 103.717V103.714L119.127 103.519L110.349 98.5527L110 98.7512L118.778 103.717Z" fill="#57A8BB"/>
<path d="M118.778 103.716L110 98.75V99.1436L118.778 104.109V103.716Z" fill="#57A8BB"/>
<path d="M125.477 99.9281V90L125.127 90.1985V100.123L125.477 99.9281Z" fill="#57A8BB"/>
<path d="M125.477 99.9277L125.826 100.126V100.123L125.477 99.9277Z" fill="#57A8BB"/>
<path d="M125.477 99.9281L125.826 100.123V90.1985L125.477 90V99.9281Z" fill="#57A8BB"/>
<path d="M125.477 115.075L125.127 114.877V124.805L125.477 125V115.075Z" fill="#57A8BB"/>
<path d="M125.477 115.075V125L125.826 124.805V114.877L125.477 115.075Z" fill="#57A8BB"/>
</g>
<path d="M129.078 172.461V174.805H111.57V172.461H118.859V170.305H121.836V172.461H129.078ZM130.156 183.969V186.383H125.633V191.68H122.609V186.383H118.156V191.68H115.18V186.383H110.633V183.969H130.156ZM120.359 175.672C124.93 175.672 127.695 176.938 127.719 179.305C127.695 181.648 124.93 182.961 120.359 182.961C115.742 182.961 112.977 181.648 113 179.305C112.977 176.938 115.742 175.672 120.359 175.672ZM120.359 177.898C117.5 177.898 116.094 178.32 116.094 179.305C116.094 180.242 117.5 180.711 120.359 180.711C123.172 180.711 124.602 180.242 124.602 179.305C124.602 178.32 123.172 177.898 120.359 177.898ZM148.203 170.328V178.508H151.227V180.969H148.203V191.609H145.203V170.328H148.203ZM142.508 172.508C142.484 178.883 140 184.414 132.828 187.93L131.141 185.633C136.191 183.102 138.898 179.703 139.461 174.945H132.359V172.508H142.508ZM170.188 170.352V186.453H167.188V184.766H163.109V182.727H167.188V170.352H170.188ZM170.656 188.891V191.281H154.766V184.906H157.742V182.07C155.832 182.152 154.016 182.164 152.398 182.164L152.047 179.797C155.961 179.773 161.234 179.727 165.734 179.164L165.898 181.297C164.211 181.578 162.465 181.777 160.742 181.906V185.961H157.742V188.891H170.656ZM158.984 171.078C162.078 171.055 164.305 172.625 164.305 174.898C164.305 177.172 162.078 178.648 158.984 178.648C155.82 178.648 153.617 177.172 153.617 174.898C153.617 172.625 155.797 171.055 158.984 171.078ZM158.984 173.258C157.461 173.258 156.43 173.844 156.453 174.898C156.43 175.93 157.461 176.492 158.984 176.492C160.414 176.492 161.445 175.93 161.469 174.898C161.445 173.844 160.414 173.258 158.984 173.258ZM197.891 180.078V182.516H178.391V180.078H197.891ZM195.664 176.211V178.578H180.758V170.891H195.547V173.305H183.734V176.211H195.664ZM188.094 183.805C192.711 183.805 195.5 185.211 195.523 187.719C195.5 190.25 192.711 191.656 188.094 191.656C183.43 191.656 180.617 190.25 180.617 187.719C180.617 185.211 183.43 183.805 188.094 183.805ZM188.094 186.078C185.141 186.078 183.641 186.641 183.664 187.719C183.641 188.844 185.141 189.383 188.094 189.383C190.977 189.383 192.5 188.844 192.523 187.719C192.5 186.641 190.977 186.078 188.094 186.078ZM218.633 181.766V184.156H199.109V181.766H207.383V180.219H201.547V174.359H213.266V173.047H201.5V170.727H216.266V176.516H204.523V177.922H216.664V180.219H210.359V181.766H218.633ZM216.383 185.375V191.562H213.359V187.719H201.289V185.375H216.383Z" fill="black"/>
<rect x="1136.5" y="161.5" width="55" height="38" rx="3.5" fill="white"/>
<rect x="1136.5" y="161.5" width="55" height="38" rx="3.5" stroke="#383838"/>
<path d="M1162.33 173.234V183.609H1160.33V173.234H1162.33ZM1162.7 185.594V187.188H1152.8V182.609H1154.81V185.594H1162.7ZM1155.88 175.391C1155.86 177.266 1156.86 179.109 1159.2 179.859L1158.19 181.422C1156.59 180.891 1155.48 179.828 1154.84 178.469C1154.21 179.93 1153.07 181.102 1151.41 181.672L1150.38 180.094C1152.77 179.297 1153.8 177.312 1153.8 175.391V174.016H1155.88V175.391ZM1175.55 174V174.953C1175.55 176.141 1175.55 177.781 1175.17 180.125H1177.22V181.734H1174.14V187.438H1172.16V181.734H1169.2V187.438H1167.2V181.734H1164.25V180.125H1173.16C1173.52 178.203 1173.58 176.727 1173.61 175.609H1165.8V174H1175.55Z" fill="#404040"/>
<rect x="1202.5" y="161.5" width="55" height="38" rx="3.5" fill="white"/>
<rect x="1202.5" y="161.5" width="55" height="38" rx="3.5" stroke="#383838"/>
<path d="M1229.44 184.172V185.781H1216.42V184.172H1221.92V181H1223.92V184.172H1229.44ZM1228.3 174.297V175.906H1223.97C1224.13 177.781 1225.9 179.523 1228.95 179.969L1228.17 181.547C1225.68 181.109 1223.84 179.891 1222.92 178.203C1222.02 179.922 1220.19 181.172 1217.73 181.625L1216.95 180.047C1219.91 179.57 1221.68 177.789 1221.84 175.906H1217.5V174.297H1228.3ZM1242.2 173.219V187.438H1240.22V173.219H1242.2ZM1230.31 183.422C1231.4 183.414 1232.64 183.414 1233.94 183.375V182.172C1232.38 181.898 1231.36 180.93 1231.38 179.594C1231.36 178 1232.81 176.922 1234.91 176.922C1237.02 176.922 1238.48 178 1238.48 179.594C1238.48 180.922 1237.47 181.891 1235.91 182.172V183.312C1237.09 183.258 1238.3 183.164 1239.44 183.016L1239.58 184.484C1236.47 185.016 1233.11 185.047 1230.58 185.047L1230.31 183.422ZM1239.23 174.797V176.359H1230.59V174.797H1233.94V173.281H1235.92V174.797H1239.23ZM1234.91 178.438C1233.94 178.438 1233.25 178.859 1233.27 179.594C1233.25 180.344 1233.94 180.75 1234.91 180.75C1235.91 180.75 1236.58 180.344 1236.58 179.594C1236.58 178.859 1235.91 178.438 1234.91 178.438Z" fill="#404040"/>
<rect x="1268.5" y="161.5" width="55" height="38" rx="3.5" fill="white"/>
<rect x="1268.5" y="161.5" width="55" height="38" rx="3.5" stroke="#383838"/>
<path d="M1294.44 173.219V187.469H1292.44V179.797H1289.89V178.172H1292.44V173.219H1294.44ZM1287.8 176.781C1287.8 179.281 1288.94 181.891 1291.34 182.922L1290.17 184.5C1288.52 183.727 1287.41 182.234 1286.8 180.422C1286.18 182.359 1285.05 183.977 1283.39 184.797L1282.2 183.219C1284.59 182.125 1285.75 179.422 1285.75 176.781V176.188H1282.8V174.594H1290.75V176.188H1287.8V176.781ZM1304.33 174.172V175.766H1301.5C1301.52 177.422 1302.51 179.023 1304.78 179.688L1303.83 181.25C1302.26 180.773 1301.17 179.82 1300.55 178.594C1299.91 180.031 1298.76 181.172 1297.05 181.734L1296.03 180.156C1298.39 179.414 1299.45 177.57 1299.48 175.766H1296.58V174.172H1304.33ZM1307.53 173.219V176.516H1309.45V178.141H1307.53V181.656H1305.53V173.219H1307.53ZM1302.88 181.938C1305.83 181.922 1307.67 182.938 1307.67 184.672C1307.67 186.406 1305.83 187.438 1302.88 187.438C1299.86 187.438 1298 186.406 1298 184.672C1298 182.938 1299.86 181.922 1302.88 181.938ZM1302.88 183.484C1301 183.484 1299.98 183.875 1300 184.672C1299.98 185.484 1301 185.891 1302.88 185.891C1304.72 185.891 1305.7 185.484 1305.7 184.672C1305.7 183.875 1304.72 183.484 1302.88 183.484Z" fill="#404040"/>
<rect x="1334.5" y="161.5" width="55" height="38" rx="3.5" fill="white"/>
<rect x="1334.5" y="161.5" width="55" height="38" rx="3.5" stroke="#383838"/>
<path d="M1360.41 173.219V180.375H1358.42V179.281H1355.17V177.766H1358.42V176.516H1355.33C1354.45 178.656 1352.41 180.023 1349.27 180.703L1348.59 179.078C1351.85 178.43 1353.36 177.086 1353.62 175.375H1349.39V173.766H1355.83C1355.83 174.195 1355.8 174.609 1355.73 175H1358.42V173.219H1360.41ZM1360.41 180.891V184.781H1352.97V185.719H1360.72V187.297H1350.97V183.312H1358.41V182.453H1350.95V180.891H1360.41ZM1374.66 173.219V187.438H1372.75V180.312H1371.55V186.781H1369.66V182.703L1368.53 184.203C1367.21 183.508 1366.36 182.328 1365.86 180.859C1365.38 182.547 1364.54 183.914 1363.19 184.719L1361.95 183.188C1364.11 181.969 1364.84 179.453 1364.84 176.734V176.281H1362.44V174.688H1368.95V176.281H1366.78V176.734C1366.78 179.211 1367.52 181.57 1369.66 182.672V173.422H1371.55V178.688H1372.75V173.219H1374.66Z" fill="#404040"/>
<g clip-path="url(#clip3_142_717)">
<rect x="110" y="225" width="670" height="140" rx="4" fill="white"/>
<rect x="110.5" y="225.5" width="215.667" height="139" rx="3.5" stroke="#C9C9C9"/>
<path d="M137.166 253.221C140.066 253.242 142.193 255.025 142.215 257.539C142.193 260.074 140.066 261.836 137.166 261.836C134.244 261.836 132.096 260.074 132.096 257.539C132.096 255.025 134.244 253.242 137.166 253.221ZM137.166 254.939C135.383 254.918 134.072 255.971 134.094 257.539C134.072 259.129 135.383 260.182 137.166 260.182C138.928 260.182 140.238 259.129 140.238 257.539C140.238 255.971 138.928 254.918 137.166 254.939ZM147.672 252.576V262.373H145.631V252.576H147.672ZM147.672 263.254V268.109H137.059V269.957H148.316V271.59H135.082V266.584H145.652V264.887H135.018V263.254H147.672ZM159.834 254.273C159.812 256.83 162.949 259.236 166.73 259.73L165.936 261.406C162.788 260.901 160.017 259.269 158.781 257.002C157.514 259.279 154.753 260.901 151.627 261.406L150.811 259.73C154.592 259.236 157.686 256.852 157.707 254.273V253.221H159.834V254.273ZM167.525 263.297V264.973H159.705V271.826H157.707V264.973H149.973V263.297H167.525Z" fill="#B3B3B3"/>
<path d="M190.051 320V316.787L198.801 308.345C201.296 305.85 202.595 304.38 202.595 302.295C202.595 300.005 200.783 298.535 198.356 298.535C195.793 298.535 194.152 300.142 194.187 302.637H189.948C189.914 297.954 193.435 294.912 198.391 294.912C203.449 294.912 206.867 297.92 206.867 302.09C206.867 304.893 205.5 307.148 200.646 311.729L196.237 316.104V316.274H207.243V320H190.051ZM219.516 320.342C213.568 320.342 210.014 315.728 210.014 307.627C210.014 299.561 213.568 294.912 219.516 294.912C225.429 294.912 229.018 299.561 229.018 307.627C229.018 315.728 225.463 320.342 219.516 320.342ZM219.516 316.616C222.626 316.616 224.54 313.574 224.54 307.627C224.54 301.714 222.592 298.604 219.516 298.604C216.439 298.604 214.491 301.714 214.491 307.627C214.491 313.574 216.405 316.616 219.516 316.616Z" fill="black"/>
<rect x="337.167" y="225.5" width="215.667" height="139" rx="3.5" stroke="#C9C9C9"/>
<path d="M365.057 257.475C365.036 260.891 367.012 264.371 369.891 265.768L368.624 267.4C366.529 266.315 364.907 264.156 364.069 261.578C363.199 264.328 361.512 266.627 359.321 267.766L358.053 266.111C361.018 264.693 363.016 260.998 363.016 257.475V254.188H365.057V257.475ZM373.372 252.576V260.246H376.466V261.986H373.372V271.826H371.331V252.576H373.372ZM394.192 261.965V263.619H376.639V261.965H380.85V259.365C379.368 258.764 378.53 257.797 378.53 256.529C378.53 254.252 381.173 252.92 385.405 252.92C389.616 252.92 392.28 254.252 392.28 256.529C392.28 257.797 391.431 258.774 389.938 259.365V261.965H394.192ZM385.405 264.93C389.551 264.93 392.044 266.154 392.044 268.346C392.044 270.58 389.551 271.783 385.405 271.783C381.216 271.783 378.723 270.58 378.723 268.346C378.723 266.154 381.216 264.93 385.405 264.93ZM385.405 266.498C382.462 266.498 380.786 267.164 380.786 268.346C380.786 269.549 382.462 270.236 385.405 270.215C388.305 270.236 390.003 269.549 390.003 268.346C390.003 267.164 388.305 266.498 385.405 266.498ZM385.405 254.488C382.419 254.488 380.614 255.24 380.635 256.529C380.614 257.818 382.419 258.549 385.405 258.549C388.391 258.549 390.174 257.818 390.174 256.529C390.174 255.24 388.391 254.488 385.405 254.488ZM382.913 261.965H387.919V259.902C387.167 260.031 386.318 260.096 385.405 260.096C384.503 260.096 383.665 260.031 382.913 259.924V261.965ZM400.36 253.221C403.26 253.242 405.387 255.025 405.409 257.539C405.387 260.074 403.26 261.836 400.36 261.836C397.438 261.836 395.29 260.074 395.29 257.539C395.29 255.025 397.438 253.242 400.36 253.221ZM400.36 254.939C398.577 254.918 397.266 255.971 397.288 257.539C397.266 259.129 398.577 260.182 400.36 260.182C402.122 260.182 403.432 259.129 403.432 257.539C403.432 255.971 402.122 254.918 400.36 254.939ZM410.866 252.576V262.373H408.825V252.576H410.866ZM410.866 263.254V268.109H400.253V269.957H411.51V271.59H398.276V266.584H408.846V264.887H398.212V263.254H410.866ZM427.649 254.273C427.628 256.83 430.764 259.236 434.546 259.73L433.751 261.406C430.603 260.901 427.832 259.269 426.596 257.002C425.329 259.279 422.568 260.901 419.442 261.406L418.626 259.73C422.407 259.236 425.501 256.852 425.522 254.273V253.221H427.649V254.273ZM435.341 263.297V264.973H427.52V271.826H425.522V264.973H417.788V263.297H435.341Z" fill="#B3B3B3"/>
<path d="M448.1 295.254V320H443.622V299.595H443.485L437.709 303.286V299.219L443.827 295.254H448.1Z" fill="black"/>
<rect x="563.833" y="225.5" width="215.667" height="139" rx="3.5" stroke="#C9C9C9"/>
<path d="M600.167 252.598V256.873H602.982V258.57H600.167V263.447H598.126V252.598H600.167ZM600.167 264.457V271.568H587.835V264.457H600.167ZM589.833 266.047V269.936H598.191V266.047H589.833ZM587.964 253.543V260.439C590.575 260.418 593.303 260.192 596.257 259.602L596.515 261.277C593.271 261.943 590.327 262.115 587.492 262.137H585.923V253.543H587.964ZM620.859 262.631V264.264H603.306V262.631H620.859ZM618.882 269.764V271.418H605.519V265.832H607.581V269.764H618.882ZM612.072 253.221C616.24 253.199 618.947 254.66 618.947 257.066C618.947 259.494 616.24 260.955 612.072 260.977C607.882 260.955 605.197 259.494 605.197 257.066C605.197 254.66 607.882 253.199 612.072 253.221ZM612.072 254.854C609.128 254.854 607.281 255.691 607.302 257.066C607.281 258.484 609.128 259.301 612.072 259.301C615.015 259.301 616.841 258.484 616.841 257.066C616.841 255.691 615.015 254.854 612.072 254.854ZM637.618 252.598V266.777H635.577V261.771H630.808C629.895 262.856 628.498 263.512 626.898 263.512C623.997 263.512 621.849 261.492 621.849 258.656C621.849 255.799 623.997 253.779 626.898 253.758C628.488 253.769 629.873 254.424 630.786 255.498H635.577V252.598H637.618ZM638.134 269.764V271.418H625.115V265.295H627.156V269.764H638.134ZM626.898 255.584C625.093 255.584 623.804 256.83 623.804 258.656C623.804 260.482 625.093 261.707 626.898 261.707C628.638 261.707 629.949 260.482 629.949 258.656C629.949 256.83 628.638 255.584 626.898 255.584ZM631.689 257.152C631.818 257.614 631.904 258.119 631.904 258.656C631.904 259.172 631.828 259.666 631.689 260.117H635.577V257.152H631.689ZM646.429 258.764C646.429 261.729 648.234 264.865 651.113 266.24L649.952 267.787C647.858 266.799 646.279 264.79 645.462 262.438C644.614 264.983 642.938 267.11 640.736 268.131L639.597 266.562C642.519 265.23 644.431 261.943 644.431 258.764V257.496H640.177V255.863H644.409V252.963H646.472V255.863H650.661V257.496H646.429V258.764ZM654.829 252.576V260.332H657.923V262.051H654.829V271.826H652.788V252.576H654.829Z" fill="#B3B3B3"/>
<path d="M665.1 295.254V320H660.622V299.595H660.485L654.709 303.286V299.219L660.827 295.254H665.1ZM679.149 294.912C684.003 294.946 688.788 297.817 688.822 306.875C688.822 315.42 684.96 320.342 678.876 320.342C674.091 320.342 670.81 317.368 670.263 313.267H674.672C675.116 315.215 676.62 316.479 678.876 316.479C682.465 316.479 684.481 313.301 684.516 308.003H684.242C682.978 310.156 680.619 311.421 677.885 311.421C673.476 311.421 670.058 308.071 670.023 303.389C670.023 298.535 673.646 294.878 679.149 294.912ZM679.184 298.501C676.415 298.501 674.33 300.654 674.364 303.286C674.364 305.952 676.347 308.037 679.115 308.037C681.85 308.037 684.003 305.815 683.969 303.252C683.969 300.723 681.952 298.501 679.184 298.501Z" fill="black"/>
</g>
<rect width="670" height="47" transform="translate(110 385)" fill="#7F92A0"/>
<path d="M127.938 402.047C127.938 403.625 129.609 405.391 132.734 405.812L131.984 407.391C129.586 407.039 127.82 405.938 126.922 404.469C126 405.953 124.227 407.062 121.828 407.422L121.094 405.859C124.203 405.422 125.875 403.688 125.891 402.047V401.578H127.938V402.047ZM133.422 408.203V409.797H128.062V412.25H126.094V409.797H120.406V408.203H133.422ZM131.984 413.594V415.188H121.938V411.016H123.922V413.594H131.984ZM146.234 401.234V411.719H144.25V406.594H141.625V409.469H134.859V402.156H136.859V404.344H139.656V402.156H141.625V405H144.25V401.234H146.234ZM146.531 413.594V415.188H136.766V410.672H138.781V413.594H146.531ZM136.859 407.906H139.656V405.859H136.859V407.906Z" fill="white"/>
<path d="M247.042 402.047V403.328C247.042 404.656 247.042 406.109 246.682 408.094H248.557V409.703H243.01V415.453H241.01V409.703H235.589V408.094H244.667C245.026 406.258 245.057 404.867 245.057 403.641H237.073V402.047H247.042ZM262.417 408.516V410.078H257.057V412.375H255.089V410.078H249.401V408.516H262.417ZM260.979 413.594V415.188H250.932V411.25H252.901V413.594H260.979ZM253.042 401.672V403.156H258.745V401.672H260.729V407.516H251.073V401.672H253.042ZM253.042 405.938H258.745V404.641H253.042V405.938Z" fill="white"/>
<path d="M362.771 401.219V415.469H360.771V408.281H358.208V406.688H360.771V401.219H362.771ZM356.083 405.672C356.083 407.734 357.208 410.031 359.536 411.031L358.474 412.562C356.857 411.891 355.732 410.531 355.115 408.906C354.49 410.633 353.372 412.086 351.74 412.781L350.693 411.25C352.974 410.234 354.083 407.812 354.099 405.672V405.125H351.146V403.531H354.099V401.531H356.099V403.531H358.974V405.125H356.083V405.672ZM376.505 401.219V415.469H374.521V401.219H376.505ZM372.099 402.406V407.891H367.411V410.5C369.576 410.492 371.419 410.367 373.505 410.031L373.677 411.641C371.333 412.047 369.224 412.141 366.63 412.141H365.349V406.312H370.068V404.016H365.333V402.406H372.099ZM391.411 409.422V410.984H385.849V415.438H383.88V410.984H378.396V409.422H391.411ZM381.896 401.766V403.406H387.865V401.766H389.865V408.047H379.927V401.766H381.896ZM381.896 406.453H387.865V404.969H381.896V406.453ZM397.615 404.438C397.615 407.109 398.693 409.703 401.068 410.734L399.849 412.328C398.271 411.555 397.216 410.141 396.63 408.391C396.005 410.25 394.911 411.773 393.286 412.578L392.036 410.953C394.474 409.859 395.583 407.109 395.599 404.438V402.312H397.615V404.438ZM404.24 401.219V415.469H402.271V407.297H399.474V405.688H402.271V401.219H404.24Z" fill="white"/>
<path d="M471.297 403.156C471.281 405.062 472.266 406.812 474.547 407.516L473.5 409.078C471.969 408.547 470.93 407.562 470.344 406.281C469.703 407.766 468.555 408.938 466.844 409.516L465.797 407.922C468.234 407.141 469.266 405.234 469.281 403.25V401.953H471.297V403.156ZM477.906 401.219V409.547H475.922V405.453H473.25V403.828H475.922V401.219H477.906ZM473.047 409.922C476.078 409.922 477.938 410.938 477.953 412.688C477.938 414.438 476.078 415.438 473.047 415.438C470.016 415.438 468.156 414.438 468.156 412.688C468.156 410.938 470.016 409.922 473.047 409.922ZM473.047 411.469C471.156 411.469 470.141 411.875 470.141 412.688C470.141 413.469 471.156 413.891 473.047 413.891C474.938 413.891 475.969 413.469 475.969 412.688C475.969 411.875 474.938 411.469 473.047 411.469ZM491.734 401.219V409.547H489.75V407.734H487.094V408.766H480.344V402.266H487.094V403.297H489.75V401.219H491.734ZM482.328 403.844V407.188H485.141V403.844H482.328ZM486.875 409.922C489.906 409.922 491.766 410.938 491.781 412.688C491.766 414.438 489.906 415.438 486.875 415.438C483.844 415.438 481.984 414.438 481.984 412.688C481.984 410.938 483.844 409.922 486.875 409.922ZM486.875 411.438C484.984 411.438 483.969 411.844 483.969 412.688C483.969 413.5 484.984 413.922 486.875 413.922C488.766 413.922 489.797 413.5 489.797 412.688C489.797 411.844 488.766 411.438 486.875 411.438ZM487.094 406.125H489.75V404.875H487.094V406.125Z" fill="white"/>
<path d="M592.995 401.219V409.781H590.995V401.219H592.995ZM592.995 410.406V415.438H590.995V412H583.214V410.406H592.995ZM589.495 402.047V403.641H586.635C586.651 405.305 587.698 407.055 590.026 407.75L589.01 409.297C587.417 408.805 586.292 407.781 585.651 406.484C585.003 407.891 583.846 409.008 582.182 409.562L581.151 408.016C583.495 407.258 584.589 405.414 584.604 403.641H581.682V402.047H589.495ZM599.557 401.812C601.729 401.797 603.307 403.031 603.307 404.828C603.307 406.609 601.729 407.859 599.557 407.844C597.385 407.859 595.807 406.609 595.823 404.828C595.807 403.031 597.385 401.797 599.557 401.812ZM599.557 403.406C598.495 403.406 597.745 403.922 597.745 404.828C597.745 405.719 598.495 406.234 599.557 406.219C600.651 406.234 601.417 405.719 601.417 404.828C601.417 403.922 600.651 403.406 599.557 403.406ZM606.901 401.234V415.438H604.932V401.234H606.901ZM594.948 408.719C597.464 408.719 601.042 408.656 604.073 408.203L604.198 409.672C603.026 409.906 601.823 410.055 600.635 410.141V415.016H598.651V410.266C597.401 410.32 596.221 410.328 595.198 410.344L594.948 408.719Z" fill="white"/>
<path d="M701.802 404.031C701.802 405.734 702.849 407.469 705.193 408.172L704.177 409.734C702.583 409.234 701.458 408.211 700.818 406.922C700.169 408.32 699.013 409.445 697.349 410L696.318 408.438C698.677 407.672 699.771 405.828 699.771 404.031V403.828H696.849V402.234H704.661V403.828H701.802V404.031ZM708.161 401.234V411.516H706.161V401.234H708.161ZM708.536 413.594V415.188H698.63V410.578H700.646V413.594H708.536ZM722.302 401.219V410.141H720.411V406.359H719.271V409.672H717.411V401.484H719.271V404.734H720.411V401.219H722.302ZM716.99 402.688V404.234H710.005V402.688H712.521V401.344H714.505V402.688H716.99ZM713.521 404.703C715.333 404.703 716.615 405.703 716.63 407.188C716.615 408.656 715.333 409.656 713.521 409.656C711.74 409.656 710.443 408.656 710.443 407.188C710.443 405.703 711.74 404.703 713.521 404.703ZM713.521 406.141C712.74 406.141 712.224 406.531 712.224 407.188C712.224 407.844 712.74 408.25 713.521 408.234C714.302 408.25 714.818 407.844 714.833 407.188C714.818 406.531 714.302 406.141 713.521 406.141ZM717.443 410.266C720.521 410.266 722.365 411.203 722.38 412.859C722.365 414.5 720.521 415.438 717.443 415.438C714.38 415.438 712.521 414.5 712.521 412.859C712.521 411.203 714.38 410.266 717.443 410.266ZM717.443 411.766C715.521 411.766 714.505 412.109 714.521 412.859C714.505 413.578 715.521 413.938 717.443 413.938C719.38 413.938 720.365 413.578 720.365 412.859C720.365 412.109 719.38 411.766 717.443 411.766ZM735.365 402.047V403.328C735.365 404.656 735.365 406.109 735.005 408.094H736.88V409.703H731.333V415.453H729.333V409.703H723.911V408.094H732.99C733.349 406.258 733.38 404.867 733.38 403.641H725.396V402.047H735.365ZM750.74 408.516V410.078H745.38V412.375H743.411V410.078H737.724V408.516H750.74ZM749.302 413.594V415.188H739.255V411.25H741.224V413.594H749.302ZM741.365 401.672V403.156H747.068V401.672H749.052V407.516H739.396V401.672H741.365ZM741.365 405.938H747.068V404.641H741.365V405.938Z" fill="white"/>
<g clip-path="url(#clip4_142_717)">
<mask id="path-78-inside-2_142_717" fill="white">
<path d="M110 432H780V479H110V432Z"/>
</mask>
<path d="M110 432H780V479H110V432Z" fill="white"/>
<rect width="670" height="47" transform="translate(110 432)" fill="#F9D99F"/>
<path d="M125.297 449.688V461H123.562V451.406H123.5L120.797 453.172V451.531L123.609 449.688H125.297Z" fill="#303030"/>
<path d="M247.354 448.328V455.453H245.87V454.109H242.323V452.953H245.87V451.438H242.495C241.628 453.609 239.518 455.039 236.417 455.766L235.901 454.547C239.26 453.805 241.081 452.25 241.323 450.188H236.635V448.969H242.948C242.948 449.422 242.909 449.852 242.839 450.266H245.87V448.328H247.354ZM247.354 456.047V459.594H239.698V461H247.776V462.188H238.229V458.469H245.87V457.219H238.198V456.047H247.354ZM260.854 448.328V462.328H259.432V455.141H257.76V461.641H256.354V448.594H257.76V453.891H259.432V448.328H260.854ZM253.01 452.031C253.01 454.547 253.964 456.828 255.995 457.875L255.12 459.016C253.745 458.273 252.823 456.969 252.323 455.344C251.846 457.188 250.917 458.656 249.495 459.5L248.573 458.375C250.62 457.219 251.573 454.812 251.573 452.031V451.125H248.948V449.922H255.448V451.125H253.01V452.031Z" fill="#303030"/>
<rect x="350.333" y="446" width="19" height="19" fill="white"/>
<path d="M467.891 449.625V452.969H470.562V449.625H471.938V458.875H466.484V449.625H467.891ZM467.891 457.672H470.562V454.141H467.891V457.672ZM478.062 448.328V462.328H476.641V455.031H474.906V461.641H473.5V448.594H474.906V453.812H476.641V448.328H478.062ZM492.172 453.828V455.047H490V462.312H488.516V448.328H490V453.828H492.172ZM481.094 449.688V457.562C483.047 457.562 485.086 457.398 487.312 456.938L487.484 458.188C485.094 458.672 482.875 458.797 480.781 458.797H479.625V449.688H481.094ZM503.078 448.328V453.797H505.328V455.047H503.078V462.359H501.609V448.328H503.078ZM499.125 449.594V454.734H494.219V457.766C496.625 457.758 498.406 457.672 500.453 457.297L500.594 458.5C498.406 458.906 496.516 459 493.891 459.016H492.75V453.531H497.656V450.797H492.719V449.594H499.125Z" fill="#303030"/>
<path d="M592.854 448.344V458.594H591.37V453.328H588.698V452.125H591.37V448.344H592.854ZM593.229 460.828V462.031H583.76V457.672H585.245V460.828H593.229ZM586.198 451.172C586.198 452.922 587.464 454.672 589.573 455.375L588.807 456.562C587.237 456.008 586.073 454.883 585.464 453.5C584.854 455.039 583.628 456.281 581.964 456.875L581.198 455.672C583.354 454.938 584.682 453.094 584.682 451.172V450.625H581.651V449.406H589.198V450.625H586.198V451.172ZM607.057 455.406V456.609H601.495V459.328H600.026V456.609H594.245V455.406H607.057ZM605.401 448.984V453.953H595.885V448.984H605.401ZM597.339 450.156V452.781H603.932V450.156H597.339ZM605.635 460.828V462.031H595.839V458H597.323V460.828H605.635Z" fill="#303030"/>
<path d="M708.365 448.328V462.328H706.943V455.094H705.13V461.609H703.771V448.609H705.13V453.875H706.943V448.328H708.365ZM702.068 450.016V451.219H698.302V457.703C700.021 457.688 701.318 457.609 702.818 457.328L702.927 458.547C701.24 458.891 699.802 458.953 697.755 458.969H696.818V450.016H702.068ZM721.068 448.328V462.328H719.568V448.328H721.068ZM716.896 449.828C716.896 453.922 715.146 457.484 710.349 459.781L709.568 458.578C713.294 456.805 715.107 454.281 715.396 451.016H710.24V449.828H716.896Z" fill="#303030"/>
</g>
<path d="M780 479V480H781V479H780ZM110 479H109V480H110V479ZM780 432H779V479H780H781V432H780ZM780 479V478H110V479V480H780V479ZM110 479H111V432H110H109V479H110Z" fill="#C2C2C2" mask="url(#path-78-inside-2_142_717)"/>
<g clip-path="url(#clip5_142_717)">
<mask id="path-86-inside-3_142_717" fill="white">
<path d="M110 479H780V526H110V479Z"/>
</mask>
<path d="M110 479H780V526H110V479Z" fill="white"/>
<rect width="670" height="47" transform="translate(110 479)" fill="white"/>
<path d="M121 508V506.75L124.922 502.797C126.156 501.5 126.781 500.781 126.781 499.797C126.781 498.688 125.875 497.969 124.688 497.969C123.438 497.969 122.625 498.766 122.625 499.969H121C120.984 497.906 122.562 496.531 124.719 496.531C126.906 496.531 128.406 497.906 128.422 499.75C128.406 501.016 127.812 502.016 125.688 504.109L123.391 506.438V506.531H128.609V508H121Z" fill="#303030"/>
<path d="M247.354 495.328V502.453H245.87V501.109H242.323V499.953H245.87V498.438H242.495C241.628 500.609 239.518 502.039 236.417 502.766L235.901 501.547C239.26 500.805 241.081 499.25 241.323 497.188H236.635V495.969H242.948C242.948 496.422 242.909 496.852 242.839 497.266H245.87V495.328H247.354ZM247.354 503.047V506.594H239.698V508H247.776V509.188H238.229V505.469H245.87V504.219H238.198V503.047H247.354ZM260.854 495.328V509.328H259.432V502.141H257.76V508.641H256.354V495.594H257.76V500.891H259.432V495.328H260.854ZM253.01 499.031C253.01 501.547 253.964 503.828 255.995 504.875L255.12 506.016C253.745 505.273 252.823 503.969 252.323 502.344C251.846 504.188 250.917 505.656 249.495 506.5L248.573 505.375C250.62 504.219 251.573 501.812 251.573 499.031V498.125H248.948V496.922H255.448V498.125H253.01V499.031Z" fill="#303030"/>
<rect x="350.333" y="493" width="19" height="19" fill="#F2F2F2"/>
<path d="M473.422 496.203C473.422 499.797 470.875 502.312 466.734 503.406L466.141 502.234C469.516 501.359 471.562 499.609 471.828 497.391H466.922V496.203H473.422ZM477.625 495.344V503.219H476.141V495.344H477.625ZM477.625 503.844V509.141H468.453V503.844H477.625ZM469.922 505.031V507.953H476.172V505.031H469.922ZM485.469 504.984C488.547 504.984 490.297 505.719 490.297 507.156C490.297 508.578 488.547 509.312 485.469 509.328C482.359 509.312 480.609 508.578 480.609 507.156C480.609 505.719 482.359 504.984 485.469 504.984ZM485.469 506.062C483.281 506.062 482.125 506.453 482.125 507.156C482.125 507.859 483.281 508.234 485.469 508.219C487.641 508.234 488.797 507.859 488.797 507.156C488.797 506.453 487.641 506.062 485.469 506.062ZM491.141 496.484V497.609H479.75V496.484H484.734V495.141H486.219V496.484H491.141ZM485.469 498.125C488.422 498.125 490.062 498.828 490.062 500.156C490.062 501.469 488.422 502.156 485.469 502.156C482.531 502.156 480.859 501.469 480.875 500.156C480.859 498.828 482.531 498.125 485.469 498.125ZM485.469 499.141C483.516 499.141 482.453 499.484 482.453 500.156C482.453 500.797 483.516 501.125 485.469 501.125C487.438 501.125 488.484 500.797 488.484 500.156C488.484 499.484 487.438 499.141 485.469 499.141ZM491.859 502.984V504.141H479.094V502.984H491.859ZM503.516 501.781V502.969H499.281V506.391H504.984V507.609H492.172V506.391H497.812V502.969H493.766V496.406H503.391V497.609H495.25V501.781H503.516Z" fill="#303030"/>
<path d="M592.854 495.344V505.656H591.37V502.016H587.901C587.237 502.805 586.221 503.281 585.057 503.281C582.948 503.281 581.385 501.812 581.385 499.75C581.385 497.672 582.948 496.203 585.057 496.188C586.214 496.195 587.221 496.672 587.885 497.453H591.37V495.344H592.854ZM593.229 507.828V509.031H583.76V504.578H585.245V507.828H593.229ZM585.057 497.516C583.745 497.516 582.807 498.422 582.807 499.75C582.807 501.078 583.745 501.969 585.057 501.969C586.323 501.969 587.276 501.078 587.276 499.75C587.276 498.422 586.323 497.516 585.057 497.516ZM588.542 498.656C588.635 498.992 588.698 499.359 588.698 499.75C588.698 500.125 588.643 500.484 588.542 500.812H591.37V498.656H588.542ZM605.401 496.203V497.438C605.401 498.766 605.401 500.203 605.01 502.203H607.026V503.422H601.354V509.344H599.854V503.422H594.26V502.203H603.51C603.932 500.211 603.932 498.742 603.932 497.438V497.422H595.823V496.203H605.401ZM618.979 495.344V505.953H617.495V504.609H614.682V503.562H617.495V495.344H618.979ZM619.323 507.828V509.031H609.214V504.922H610.682V507.828H619.323ZM607.276 501.734C609.87 501.719 613.354 501.688 616.339 501.312L616.432 502.375C615.237 502.57 613.979 502.703 612.745 502.781V505.516H611.26V502.859C609.901 502.922 608.596 502.93 607.464 502.922L607.276 501.734ZM611.854 495.875C613.901 495.875 615.323 496.859 615.323 498.344C615.323 499.828 613.901 500.781 611.854 500.781C609.776 500.781 608.37 499.828 608.37 498.344C608.37 496.859 609.776 495.875 611.854 495.875ZM611.854 496.984C610.604 496.969 609.76 497.5 609.776 498.344C609.76 499.172 610.604 499.688 611.854 499.688C613.057 499.688 613.901 499.172 613.917 498.344C613.901 497.5 613.057 496.969 611.854 496.984Z" fill="#303030"/>
<path d="M708.365 495.328V509.328H706.943V502.094H705.13V508.609H703.771V495.609H705.13V500.875H706.943V495.328H708.365ZM702.068 497.016V498.219H698.302V504.703C700.021 504.688 701.318 504.609 702.818 504.328L702.927 505.547C701.24 505.891 699.802 505.953 697.755 505.969H696.818V497.016H702.068ZM721.068 495.328V509.328H719.568V495.328H721.068ZM716.896 496.828C716.896 500.922 715.146 504.484 710.349 506.781L709.568 505.578C713.294 503.805 715.107 501.281 715.396 498.016H710.24V496.828H716.896Z" fill="#303030"/>
</g>
<path d="M780 526V527H781V526H780ZM110 526H109V527H110V526ZM780 479H779V526H780H781V479H780ZM780 526V525H110V526V527H780V526ZM110 526H111V479H110H109V526H110Z" fill="#C2C2C2" mask="url(#path-86-inside-3_142_717)"/>
<g clip-path="url(#clip6_142_717)">
<mask id="path-94-inside-4_142_717" fill="white">
<path d="M110 526H780V573H110V526Z"/>
</mask>
<path d="M110 526H780V573H110V526Z" fill="white"/>
<rect width="670" height="47" transform="translate(110 526)" fill="white"/>
<path d="M125.297 543.688V555H123.562V545.406H123.5L120.797 547.172V545.531L123.609 543.688H125.297Z" fill="#303030"/>
<path d="M247.354 542.328V549.453H245.87V548.109H242.323V546.953H245.87V545.438H242.495C241.628 547.609 239.518 549.039 236.417 549.766L235.901 548.547C239.26 547.805 241.081 546.25 241.323 544.188H236.635V542.969H242.948C242.948 543.422 242.909 543.852 242.839 544.266H245.87V542.328H247.354ZM247.354 550.047V553.594H239.698V555H247.776V556.188H238.229V552.469H245.87V551.219H238.198V550.047H247.354ZM260.854 542.328V556.328H259.432V549.141H257.76V555.641H256.354V542.594H257.76V547.891H259.432V542.328H260.854ZM253.01 546.031C253.01 548.547 253.964 550.828 255.995 551.875L255.12 553.016C253.745 552.273 252.823 550.969 252.323 549.344C251.846 551.188 250.917 552.656 249.495 553.5L248.573 552.375C250.62 551.219 251.573 548.812 251.573 546.031V545.125H248.948V543.922H255.448V545.125H253.01V546.031Z" fill="#303030"/>
<rect x="350.333" y="540" width="19" height="19" fill="#F1F1F1"/>
<path d="M477.609 542.328V556.359H476.125V542.328H477.609ZM470.125 543.375C472.203 543.375 473.734 545.281 473.734 548.281C473.734 551.297 472.203 553.203 470.125 553.203C468.016 553.203 466.5 551.297 466.5 548.281C466.5 545.281 468.016 543.375 470.125 543.375ZM470.125 544.703C468.828 544.703 467.938 546.078 467.938 548.281C467.938 550.5 468.828 551.875 470.125 551.875C471.406 551.875 472.297 550.5 472.297 548.281C472.297 546.078 471.406 544.703 470.125 544.703ZM490 542.328V548H492.25V549.234H490V556.328H488.531V542.328H490ZM487.312 544.516V545.734H479.016V544.516H482.469V542.516H483.953V544.516H487.312ZM483.219 546.766C485.219 546.766 486.688 548.109 486.703 550.016C486.688 551.938 485.219 553.266 483.219 553.281C481.203 553.266 479.734 551.938 479.734 550.016C479.734 548.109 481.203 546.766 483.219 546.766ZM483.219 547.984C482.031 547.984 481.141 548.812 481.156 550.016C481.141 551.234 482.031 552.047 483.219 552.031C484.406 552.047 485.281 551.234 485.281 550.016C485.281 548.812 484.406 547.984 483.219 547.984ZM496.047 542.781C497.25 542.781 498.266 543.211 498.922 543.938H502.359V542.328H503.828V549.453H502.359V547.984H498.953C498.297 548.734 497.266 549.172 496.047 549.172C493.922 549.172 492.375 547.875 492.375 545.969C492.375 544.094 493.922 542.781 496.047 542.781ZM496.047 544C494.734 543.984 493.797 544.797 493.797 545.969C493.797 547.172 494.734 547.969 496.047 547.984C497.328 547.969 498.266 547.172 498.266 545.969C498.266 544.797 497.328 543.984 496.047 544ZM503.828 550.141V553.625H496.188V554.969H504.328V556.156H494.703V552.516H502.359V551.297H494.672V550.141H503.828ZM499.562 545.109C499.641 545.383 499.688 545.664 499.688 545.969C499.688 546.266 499.648 546.547 499.578 546.812H502.359V545.109H499.562Z" fill="#303030"/>
<path d="M585.979 546.828C585.979 548.984 587.292 551.266 589.385 552.266L588.542 553.391C587.018 552.672 585.87 551.211 585.276 549.5C584.659 551.352 583.44 552.898 581.839 553.641L581.01 552.5C583.135 551.531 584.526 549.141 584.526 546.828V545.906H581.432V544.719H584.51V542.609H586.01V544.719H589.057V545.906H585.979V546.828ZM592.089 542.328V547.969H594.339V549.219H592.089V556.328H590.604V542.328H592.089ZM599.151 544.906C599.151 546.688 600.385 548.312 602.51 548.984L601.807 550.141C600.214 549.633 599.049 548.578 598.432 547.25C597.823 548.781 596.596 549.992 594.917 550.578L594.151 549.391C596.339 548.672 597.651 546.859 597.667 544.922V544.531H594.589V543.328H602.167V544.531H599.151V544.906ZM605.26 542.328V545.797H607.292V547.016H605.26V550.734H603.776V542.328H605.26ZM600.745 551.078C603.635 551.078 605.385 552.031 605.385 553.672C605.385 555.328 603.635 556.312 600.745 556.297C597.823 556.312 596.042 555.328 596.042 553.672C596.042 552.031 597.823 551.078 600.745 551.078ZM600.745 552.25C598.714 552.25 597.51 552.766 597.526 553.672C597.51 554.609 598.714 555.125 600.745 555.125C602.76 555.125 603.932 554.609 603.932 553.672C603.932 552.766 602.76 552.25 600.745 552.25Z" fill="#303030"/>
<path d="M708.365 542.328V556.328H706.943V549.094H705.13V555.609H703.771V542.609H705.13V547.875H706.943V542.328H708.365ZM702.068 544.016V545.219H698.302V551.703C700.021 551.688 701.318 551.609 702.818 551.328L702.927 552.547C701.24 552.891 699.802 552.953 697.755 552.969H696.818V544.016H702.068ZM721.068 542.328V556.328H719.568V542.328H721.068ZM716.896 543.828C716.896 547.922 715.146 551.484 710.349 553.781L709.568 552.578C713.294 550.805 715.107 548.281 715.396 545.016H710.24V543.828H716.896Z" fill="#303030"/>
</g>
<path d="M780 573V574H781V573H780ZM110 573H109V574H110V573ZM780 526H779V573H780H781V526H780ZM780 573V572H110V573V574H780V573ZM110 573H111V526H110H109V573H110Z" fill="#C2C2C2" mask="url(#path-94-inside-4_142_717)"/>
<rect x="800.5" y="225.5" width="589" height="431" rx="3.5" stroke="#C2C2C2"/>
<path d="M824.484 257.797C826.594 257.812 828.141 259.109 828.156 260.938C828.141 262.781 826.594 264.062 824.484 264.062C822.359 264.062 820.797 262.781 820.797 260.938C820.797 259.109 822.359 257.812 824.484 257.797ZM824.484 259.047C823.188 259.031 822.234 259.797 822.25 260.938C822.234 262.094 823.188 262.859 824.484 262.859C825.766 262.859 826.719 262.094 826.719 260.938C826.719 259.797 825.766 259.031 824.484 259.047ZM832.125 257.328V264.453H830.641V257.328H832.125ZM832.125 265.094V268.625H824.406V269.969H832.594V271.156H822.969V267.516H830.656V266.281H822.922V265.094H832.125ZM840.266 258.312V262.531H835.641V264.609C837.969 264.602 839.352 264.531 841 264.25L841.156 265.453C839.344 265.766 837.844 265.812 835.188 265.812H834.156V261.391H838.766V259.5H834.125V258.312H840.266ZM845.266 257.344V267.641H843.781V263.969H841.172V262.75H843.781V260.812H841.172V259.625H843.781V257.344H845.266ZM845.672 269.766V270.984H836.062V266.875H837.547V269.766H845.672ZM858.344 257.344V267.688H856.859V262.406H853.797V265.359H847.344V258.266H848.828V260.641H852.328V258.266H853.797V261.203H856.859V257.344H858.344ZM858.656 269.828V271.031H849.203V266.672H850.703V269.828H858.656ZM848.828 264.156H852.328V261.781H848.828V264.156ZM871.875 259.297V260.5H860.359V259.297H865.391V257.531H866.859V259.297H871.875ZM872.562 268.547V269.75H859.75V268.547H865.391V266.688C862.938 266.539 861.453 265.57 861.453 264.016C861.453 262.328 863.234 261.344 866.125 261.344C868.984 261.344 870.781 262.328 870.781 264.016C870.781 265.57 869.289 266.539 866.859 266.688V268.547H872.562ZM866.125 262.516C864.125 262.516 862.953 263.047 862.969 264.016C862.953 264.984 864.125 265.516 866.125 265.531C868.094 265.516 869.266 264.984 869.266 264.016C869.266 263.047 868.094 262.516 866.125 262.516Z" fill="black"/>
<rect width="476" height="39" transform="translate(894 245)" fill="#E5E5E5"/>
<path d="M905.156 270V258.688H906.875V263.594H912.5V258.688H914.219V270H912.5V265.062H906.875V270H905.156ZM915.781 270V258.688H919.812C922.438 258.688 923.734 260.156 923.734 262.234C923.734 263.758 923.047 264.914 921.672 265.422L924.172 270H922.219L919.922 265.734H919.812H917.5V270H915.781ZM917.5 264.25H919.641C921.312 264.25 922 263.516 922 262.234C922 260.953 921.312 260.156 919.641 260.156H917.5V264.25ZM928.672 270.156C926.047 270.156 924.516 268.047 924.516 264.344C924.516 260.672 926.078 258.531 928.672 258.531C931.266 258.531 932.828 260.672 932.828 264.344C932.828 268.047 931.281 270.156 928.672 270.156ZM928.672 268.672C930.203 268.672 931.109 267.172 931.109 264.344C931.109 261.531 930.188 259.984 928.672 259.984C927.156 259.984 926.234 261.531 926.234 264.344C926.234 267.172 927.141 268.672 928.672 268.672ZM938.156 258.688V270H936.422V260.406H936.359L933.656 262.172V260.531L936.469 258.688H938.156ZM945.297 263.625V265.062H940.281V263.625H945.297ZM946.297 267.797V266.406L951.297 258.688H953.422V266.344H954.969V267.797H953.422V270H951.797V267.797H946.297ZM948.109 266.344H951.797V260.734H951.672L948.109 266.25V266.344ZM959.797 270.156C957.656 270.156 956.047 268.844 955.969 267.047H957.641C957.734 268.016 958.656 268.719 959.797 268.719C961.172 268.719 962.156 267.719 962.156 266.375C962.156 265 961.141 264 959.719 263.984C958.812 263.984 958.125 264.281 957.734 264.984H956.109L956.844 258.688H963.25V260.156H958.266L957.891 263.328H958C958.469 262.875 959.266 262.562 960.125 262.562C962.25 262.562 963.828 264.141 963.828 266.328C963.828 268.562 962.156 270.156 959.797 270.156ZM969 270.156C966.906 270.141 964.719 268.906 964.719 264.719C964.719 260.781 966.422 258.531 969.141 258.531C971.219 258.531 972.672 259.828 972.938 261.625H971.234C971.016 260.703 970.281 260.031 969.141 260.031C967.391 260.031 966.375 261.562 966.375 264.109H966.5C967.109 263.156 968.172 262.578 969.406 262.578C971.422 262.578 973.047 264.125 973.047 266.297C973.047 268.484 971.438 270.172 969 270.156ZM968.984 268.719C970.359 268.719 971.375 267.656 971.375 266.328C971.375 265.031 970.391 263.984 969.031 263.984C967.641 263.984 966.594 265.078 966.578 266.344C966.594 267.594 967.594 268.719 968.984 268.719ZM974.516 270L979.562 260.25V260.156H973.734V258.688H981.344V260.219L976.312 270H974.516ZM986.062 270.156C983.609 270.156 981.891 268.828 981.906 266.984C981.891 265.531 982.938 264.344 984.266 264.141V264.078C983.109 263.812 982.328 262.781 982.328 261.547C982.328 259.812 983.906 258.531 986.062 258.531C988.203 258.531 989.766 259.812 989.781 261.547C989.766 262.781 988.984 263.812 987.844 264.078V264.141C989.156 264.344 990.203 265.531 990.219 266.984C990.203 268.828 988.484 270.156 986.062 270.156ZM986.062 268.734C987.531 268.734 988.469 267.969 988.469 266.859C988.469 265.688 987.453 264.844 986.062 264.844C984.656 264.844 983.625 265.688 983.656 266.859C983.625 267.969 984.562 268.734 986.062 268.734ZM986.062 263.484C987.25 263.484 988.094 262.766 988.094 261.703C988.094 260.656 987.266 259.938 986.062 259.938C984.812 259.938 984 260.641 984 261.703C984 262.766 984.859 263.484 986.062 263.484ZM995.141 258.531C997.219 258.547 999.406 259.797 999.406 263.938C999.406 267.906 997.703 270.156 994.984 270.156C992.906 270.156 991.438 268.875 991.172 267.031H992.875C993.109 267.984 993.844 268.656 994.984 268.656C996.734 268.656 997.75 267.125 997.766 264.547H997.625C997.016 265.5 995.953 266.078 994.734 266.078C992.703 266.078 991.078 264.531 991.078 262.359C991.078 260.203 992.688 258.516 995.141 258.531ZM995.141 259.969C993.766 259.969 992.75 261.031 992.75 262.328C992.75 263.641 993.734 264.672 995.109 264.672C996.469 264.672 997.531 263.562 997.531 262.312C997.531 261.094 996.531 259.969 995.141 259.969ZM1004.77 258.688V270H1003.03V260.406H1002.97L1000.27 262.172V260.531L1003.08 258.688H1004.77ZM1006.89 270V268.75L1010.81 264.797C1012.05 263.5 1012.67 262.781 1012.67 261.797C1012.67 260.688 1011.77 259.969 1010.58 259.969C1009.33 259.969 1008.52 260.766 1008.52 261.969H1006.89C1006.88 259.906 1008.45 258.531 1010.61 258.531C1012.8 258.531 1014.3 259.906 1014.31 261.75C1014.3 263.016 1013.7 264.016 1011.58 266.109L1009.28 268.438V268.531H1014.5V270H1006.89ZM1015.66 270V268.75L1019.58 264.797C1020.81 263.5 1021.44 262.781 1021.44 261.797C1021.44 260.688 1020.53 259.969 1019.34 259.969C1018.09 259.969 1017.28 260.766 1017.28 261.969H1015.66C1015.64 259.906 1017.22 258.531 1019.38 258.531C1021.56 258.531 1023.06 259.906 1023.08 261.75C1023.06 263.016 1022.47 264.016 1020.34 266.109L1018.05 268.438V268.531H1023.27V270H1015.66ZM1028.36 270.156C1025.73 270.156 1024.2 268.047 1024.2 264.344C1024.2 260.672 1025.77 258.531 1028.36 258.531C1030.95 258.531 1032.52 260.672 1032.52 264.344C1032.52 268.047 1030.97 270.156 1028.36 270.156ZM1028.36 268.672C1029.89 268.672 1030.8 267.172 1030.8 264.344C1030.8 261.531 1029.88 259.984 1028.36 259.984C1026.84 259.984 1025.92 261.531 1025.92 264.344C1025.92 267.172 1026.83 268.672 1028.36 268.672ZM1037.48 270.156C1034.86 270.156 1033.33 268.047 1033.33 264.344C1033.33 260.672 1034.89 258.531 1037.48 258.531C1040.08 258.531 1041.64 260.672 1041.64 264.344C1041.64 268.047 1040.09 270.156 1037.48 270.156ZM1037.48 268.672C1039.02 268.672 1039.92 267.172 1039.92 264.344C1039.92 261.531 1039 259.984 1037.48 259.984C1035.97 259.984 1035.05 261.531 1035.05 264.344C1035.05 267.172 1035.95 268.672 1037.48 268.672Z" fill="#696969"/>
<path d="M828.047 307.156V308.375H822.812V309.906H827.656V311.062H822.812V312.688C825.617 312.688 827.25 312.641 829.141 312.312L829.297 313.5C827.266 313.844 825.531 313.891 822.469 313.875H821.312V307.156H828.047ZM832.125 306.344V314.672H830.641V306.344H832.125ZM832.125 315.328V320.156H822.922V315.328H832.125ZM824.391 316.484V318.953H830.672V316.484H824.391ZM845.266 306.328V314.594H843.781V312.516H840.734V313.656H834.234V307.375H840.734V308.531H843.781V306.328H845.266ZM835.703 308.562V312.469H839.281V308.562H835.703ZM840.578 314.984C843.516 314.984 845.312 315.953 845.312 317.656C845.312 319.344 843.516 320.312 840.578 320.297C837.641 320.312 835.828 319.344 835.844 317.656C835.828 315.953 837.641 314.984 840.578 314.984ZM840.578 316.125C838.531 316.141 837.312 316.672 837.312 317.656C837.312 318.594 838.531 319.156 840.578 319.156C842.625 319.156 843.844 318.594 843.844 317.656C843.844 316.672 842.625 316.141 840.578 316.125ZM840.734 311.312H843.781V309.719H840.734V311.312Z" fill="black"/>
<rect width="196" height="39" transform="translate(894 294)" fill="#E5E5E5"/>
<path d="M916.188 306.344V314.625H914.703V312.922H911.172V311.703H914.703V310H911.312C910.414 312.25 908.312 313.836 905.281 314.703L904.688 313.547C908 312.594 909.938 310.82 910.203 308.562H905.406V307.344H911.812C911.812 307.859 911.758 308.359 911.672 308.828H914.703V306.344H916.188ZM911.578 314.781C914.406 314.781 916.266 315.812 916.281 317.516C916.266 319.219 914.406 320.266 911.578 320.266C908.703 320.266 906.859 319.219 906.859 317.516C906.859 315.812 908.703 314.781 911.578 314.781ZM911.578 315.953C909.578 315.953 908.328 316.516 908.328 317.516C908.328 318.5 909.578 319.078 911.578 319.078C913.547 319.078 914.781 318.5 914.797 317.516C914.781 316.516 913.547 315.953 911.578 315.953ZM921.469 307.141C922.633 307.133 923.625 307.57 924.281 308.297H927.781V306.328H929.266V314.594H927.781V312.703H924.266C923.617 313.422 922.625 313.852 921.469 313.844C919.359 313.859 917.797 312.453 917.797 310.5C917.797 308.531 919.359 307.125 921.469 307.141ZM921.469 308.422C920.156 308.406 919.219 309.25 919.219 310.5C919.219 311.719 920.156 312.594 921.469 312.578C922.75 312.594 923.688 311.719 923.688 310.5C923.688 309.25 922.75 308.406 921.469 308.422ZM924.578 314.906C927.484 314.906 929.312 315.891 929.312 317.609C929.312 319.312 927.484 320.312 924.578 320.297C921.656 320.312 919.828 319.312 919.844 317.609C919.828 315.891 921.656 314.906 924.578 314.906ZM924.578 316.047C922.531 316.047 921.281 316.609 921.297 317.609C921.281 318.578 922.531 319.125 924.578 319.125C926.641 319.125 927.859 318.578 927.859 317.609C927.859 316.609 926.641 316.047 924.578 316.047ZM924.953 309.484C925.055 309.797 925.109 310.141 925.109 310.5C925.109 310.844 925.055 311.18 924.969 311.484H927.781V309.484H924.953ZM938.203 307.156V308.375H932.969V309.906H937.812V311.062H932.969V312.688C935.773 312.688 937.406 312.641 939.297 312.312L939.453 313.5C937.422 313.844 935.688 313.891 932.625 313.875H931.469V307.156H938.203ZM942.281 306.344V314.672H940.797V306.344H942.281ZM942.281 315.328V320.156H933.078V315.328H942.281ZM934.547 316.484V318.953H940.828V316.484H934.547Z" fill="#696969"/>
<path d="M1105.7 308.844C1105.7 310.641 1107.05 312.359 1109.2 313.047L1108.44 314.203C1106.83 313.672 1105.61 312.562 1104.98 311.156C1104.35 312.68 1103.11 313.883 1101.44 314.469L1100.67 313.328C1102.84 312.578 1104.19 310.75 1104.2 308.844V308.453H1101.06V307.25H1108.78V308.453H1105.7V308.844ZM1112.12 306.328V314.781H1110.64V306.328H1112.12ZM1112.12 315.484V320.328H1110.64V316.688H1102.64V315.484H1112.12ZM1118.19 306.969C1120.3 306.969 1121.83 308.141 1121.83 309.875C1121.83 311.594 1120.3 312.781 1118.19 312.766C1116.08 312.781 1114.58 311.594 1114.58 309.875C1114.58 308.141 1116.08 306.969 1118.19 306.969ZM1118.19 308.172C1116.92 308.172 1116 308.844 1116.02 309.875C1116 310.891 1116.92 311.562 1118.19 311.547C1119.48 311.562 1120.41 310.891 1120.41 309.875C1120.41 308.844 1119.48 308.172 1118.19 308.172ZM1125.23 306.344V320.328H1123.77V306.344H1125.23ZM1113.58 313.859C1116.16 313.859 1119.73 313.797 1122.8 313.344L1122.91 314.453C1121.63 314.695 1120.3 314.844 1119.02 314.938V319.891H1117.53V315.016C1116.17 315.078 1114.89 315.086 1113.78 315.094L1113.58 313.859Z" fill="black"/>
<rect width="196" height="39" transform="translate(1174 294)" fill="#E5E5E5"/>
<path d="M1191.69 307.562C1191.67 309.422 1193.95 311.172 1196.7 311.531L1196.12 312.75C1193.84 312.383 1191.82 311.195 1190.92 309.547C1190 311.203 1187.99 312.383 1185.72 312.75L1185.12 311.531C1187.88 311.172 1190.12 309.438 1190.14 307.562V306.797H1191.69V307.562ZM1197.28 314.125V315.344H1191.59V320.328H1190.14V315.344H1184.52V314.125H1197.28ZM1202.53 308.562C1202.52 310.422 1203.8 312.172 1205.91 312.875L1205.09 314.062C1203.55 313.508 1202.41 312.375 1201.81 310.953C1201.2 312.516 1200.01 313.742 1198.38 314.359L1197.58 313.156C1199.77 312.391 1201.03 310.547 1201.05 308.484V307.047H1202.53V308.562ZM1209.27 315.359V320.328H1207.78V316.531H1199.78V315.359H1209.27ZM1209.27 306.328V314.625H1207.78V310.375H1204.83V309.156H1207.78V306.328H1209.27Z" fill="#696969"/>
<path d="M832.531 355.328V369.328H831.109V355.328H832.531ZM829.688 355.625V368.625H828.281V361.5H826.109V360.281H828.281V355.625H829.688ZM824.734 359.234C824.734 361.625 825.703 364.016 827.672 365.156L826.781 366.25C825.445 365.453 824.523 364.039 824.047 362.344C823.539 364.172 822.586 365.727 821.219 366.578L820.312 365.469C822.297 364.266 823.312 361.719 823.312 359.234V358.109H820.734V356.906H827.141V358.109H824.734V359.234ZM844.734 355.906V360.703H840.703V362.328H846.359V363.531H833.594V362.328H839.234V360.703H835.219V355.906H844.734ZM836.672 357.078V359.516H843.266V357.078H836.672ZM844.797 364.859V369.328H843.297V366.031H835.016V364.859H844.797Z" fill="black"/>
<rect x="894.5" y="343.5" width="475" height="38" rx="3.5" fill="white"/>
<rect x="894.5" y="343.5" width="475" height="38" rx="3.5" stroke="#D4D4D4"/>
<path d="M916.188 355.344V365.656H914.703V362.016H911.234C910.57 362.805 909.555 363.281 908.391 363.281C906.281 363.281 904.719 361.812 904.719 359.75C904.719 357.672 906.281 356.203 908.391 356.188C909.547 356.195 910.555 356.672 911.219 357.453H914.703V355.344H916.188ZM916.562 367.828V369.031H907.094V364.578H908.578V367.828H916.562ZM908.391 357.516C907.078 357.516 906.141 358.422 906.141 359.75C906.141 361.078 907.078 361.969 908.391 361.969C909.656 361.969 910.609 361.078 910.609 359.75C910.609 358.422 909.656 357.516 908.391 357.516ZM911.875 358.656C911.969 358.992 912.031 359.359 912.031 359.75C912.031 360.125 911.977 360.484 911.875 360.812H914.703V358.656H911.875ZM922.391 359.828C922.391 361.984 923.703 364.266 925.797 365.266L924.953 366.391C923.43 365.672 922.281 364.211 921.688 362.5C921.07 364.352 919.852 365.898 918.25 366.641L917.422 365.5C919.547 364.531 920.938 362.141 920.938 359.828V358.906H917.844V357.719H920.922V355.609H922.422V357.719H925.469V358.906H922.391V359.828ZM928.5 355.328V360.969H930.75V362.219H928.5V369.328H927.016V355.328H928.5ZM942.719 356.828V358.016H931.328V356.828H936.312V355.266H937.781V356.828H942.719ZM943.484 364.281V365.484H940.25V369.344H938.75V365.484H935.375V369.344H933.891V365.484H930.672V364.281H943.484ZM937.047 358.734C939.953 358.734 941.703 359.562 941.703 361.078C941.703 362.578 939.953 363.422 937.047 363.422C934.125 363.422 932.375 362.578 932.391 361.078C932.375 359.562 934.125 358.734 937.047 358.734ZM937.047 359.859C935.031 359.875 933.922 360.281 933.922 361.078C933.922 361.859 935.031 362.281 937.047 362.281C939.047 362.281 940.156 361.859 940.172 361.078C940.156 360.281 939.047 359.875 937.047 359.859ZM954.656 355.328V360.906H956.828V362.141H954.656V369.312H953.172V355.328H954.656ZM951 356.797C950.984 360.844 949.203 364.453 944.594 366.734L943.766 365.578C947.273 363.828 949.18 361.297 949.484 358.031H944.469V356.797H951ZM971.594 355.344V365.594H970.109V355.344H971.594ZM972.016 367.828V369.031H962.438V364.625H963.938V367.828H972.016ZM965.078 357.5C965.062 359.547 966.375 361.422 968.531 362.172L967.766 363.359C966.148 362.758 964.953 361.57 964.328 360.047C963.711 361.672 962.5 362.977 960.859 363.609L960.062 362.438C962.266 361.625 963.562 359.609 963.562 357.5V356.109H965.078V357.5ZM977.969 358.312C977.969 359.953 979.328 361.5 981.453 362.094L980.75 363.25C979.133 362.789 977.906 361.789 977.266 360.5C976.656 361.945 975.438 363.086 973.766 363.609L973.062 362.469C975.188 361.781 976.5 360.109 976.5 358.312V358.141H973.453V356.953H976.5V355.266H977.984V356.953H981.016V358.141H977.969V358.312ZM984.734 355.328V363.812H983.25V360.469H980.578V359.25H983.25V355.328H984.734ZM980.047 364.125C982.969 364.125 984.781 365.062 984.781 366.703C984.781 368.359 982.969 369.312 980.047 369.297C977.109 369.312 975.297 368.359 975.312 366.703C975.297 365.062 977.109 364.125 980.047 364.125ZM980.047 365.281C978 365.281 976.781 365.797 976.781 366.703C976.781 367.609 978 368.156 980.047 368.156C982.109 368.156 983.312 367.609 983.312 366.703C983.312 365.797 982.109 365.281 980.047 365.281ZM990.703 356.328C992.922 356.312 994.5 357.688 994.516 359.656C994.5 361.625 992.922 363 990.703 363C988.5 363 986.875 361.625 986.891 359.656C986.875 357.688 988.5 356.312 990.703 356.328ZM990.703 357.609C989.344 357.609 988.344 358.422 988.359 359.656C988.344 360.891 989.344 361.703 990.703 361.703C992.062 361.703 993.062 360.891 993.062 359.656C993.062 358.422 992.062 357.609 990.703 357.609ZM997.719 355.328V369.359H996.234V355.328H997.719ZM986.219 365.109C988.766 365.109 992.297 365.078 995.359 364.641L995.469 365.719C992.297 366.328 988.906 366.344 986.406 366.344L986.219 365.109ZM1014.05 355.344V365.656H1012.56V360.797H1009.66V359.562H1012.56V355.344H1014.05ZM1009.75 356.391C1009.73 360.047 1007.22 362.797 1003.2 364.094L1002.58 362.906C1005.7 361.898 1007.81 359.992 1008.12 357.625H1003.3V356.391H1009.75ZM1014.41 367.828V369.031H1005.03V364.594H1006.53V367.828H1014.41Z" fill="#353535"/>
<path d="M832.562 454.828V456.016H821.172V454.828H826.156V453.266H827.625V454.828H832.562ZM833.328 462.281V463.484H830.094V467.344H828.594V463.484H825.219V467.344H823.734V463.484H820.516V462.281H833.328ZM826.891 456.734C829.797 456.734 831.547 457.562 831.547 459.078C831.547 460.578 829.797 461.422 826.891 461.422C823.969 461.422 822.219 460.578 822.234 459.078C822.219 457.562 823.969 456.734 826.891 456.734ZM826.891 457.859C824.875 457.875 823.766 458.281 823.766 459.078C823.766 459.859 824.875 460.281 826.891 460.281C828.891 460.281 830 459.859 830.016 459.078C830 458.281 828.891 457.875 826.891 457.859ZM844.5 453.328V458.906H846.672V460.141H844.5V467.312H843.016V453.328H844.5ZM840.844 454.797C840.828 458.844 839.047 462.453 834.438 464.734L833.609 463.578C837.117 461.828 839.023 459.297 839.328 456.031H834.312V454.797H840.844ZM851.531 456.891C851.516 459.375 852.953 461.906 855.047 462.922L854.125 464.109C852.602 463.32 851.422 461.75 850.812 459.875C850.18 461.875 848.953 463.547 847.359 464.375L846.438 463.172C848.594 462.141 850.047 459.453 850.047 456.891V454.5H851.531V456.891ZM857.578 453.328V458.906H859.828V460.172H857.578V467.328H856.094V453.328H857.578ZM872.547 461.234V462.453H869.297V467.328H867.797V462.453H864.453V467.328H862.922V462.453H859.734V461.234H872.547ZM866.109 453.859C869.062 453.859 871.094 455.062 871.094 456.953C871.094 458.812 869.062 460 866.109 459.984C863.141 460 861.125 458.812 861.125 456.953C861.125 455.062 863.141 453.859 866.109 453.859ZM866.109 455.047C864.031 455.062 862.641 455.781 862.656 456.953C862.641 458.094 864.031 458.812 866.109 458.812C868.188 458.812 869.578 458.094 869.578 456.953C869.578 455.781 868.188 455.062 866.109 455.047Z" fill="black"/>
<rect x="894.5" y="392.5" width="475" height="136" rx="3.5" fill="white"/>
<rect x="894.5" y="392.5" width="475" height="136" rx="3.5" stroke="#D4D4D4"/>
<path d="M916.5 404.328V418.328H915.078V411.062H913.344V417.656H911.953V404.703H913.344V409.859H915.078V404.328H916.5ZM910.562 406.109C910.547 409.797 909.328 413.094 905.328 415.359L904.469 414.328C907.578 412.57 908.891 410.188 909.125 407.328H905.062V406.109H910.562ZM929.203 404.344V414.516H927.719V404.344H929.203ZM929.625 416.828V418.031H920.047V413.484H921.547V416.828H929.625ZM921.609 405.281C923.719 405.281 925.328 406.719 925.328 408.75C925.328 410.812 923.719 412.234 921.609 412.234C919.5 412.234 917.875 410.812 917.875 408.75C917.875 406.719 919.5 405.281 921.609 405.281ZM921.609 406.578C920.297 406.578 919.328 407.469 919.328 408.75C919.328 410.062 920.297 410.938 921.609 410.938C922.891 410.938 923.875 410.062 923.875 408.75C923.875 407.469 922.891 406.578 921.609 406.578ZM935.688 406.812C935.688 408.578 936.953 410.312 939.062 411.031L938.297 412.188C936.727 411.641 935.562 410.523 934.953 409.141C934.344 410.68 933.117 411.914 931.453 412.5L930.688 411.328C932.844 410.594 934.172 408.719 934.172 406.828V406.438H931.141V405.234H938.688V406.438H935.688V406.812ZM942.344 413.406V418.328H940.859V414.609H932.859V413.406H942.344ZM942.344 404.328V412.703H940.859V409.109H938.266V407.891H940.859V404.328H942.344ZM955.359 404.344V414.516H953.875V404.344H955.359ZM955.781 416.828V418.031H946.203V413.484H947.703V416.828H955.781ZM947.766 405.281C949.875 405.281 951.484 406.719 951.484 408.75C951.484 410.812 949.875 412.234 947.766 412.234C945.656 412.234 944.031 410.812 944.031 408.75C944.031 406.719 945.656 405.281 947.766 405.281ZM947.766 406.578C946.453 406.578 945.484 407.469 945.484 408.75C945.484 410.062 946.453 410.938 947.766 410.938C949.047 410.938 950.031 410.062 950.031 408.75C950.031 407.469 949.047 406.578 947.766 406.578ZM964.844 407.891C964.828 410.375 966.266 412.906 968.359 413.922L967.438 415.109C965.914 414.32 964.734 412.75 964.125 410.875C963.492 412.875 962.266 414.547 960.672 415.375L959.75 414.172C961.906 413.141 963.359 410.453 963.359 407.891V405.5H964.844V407.891ZM970.891 404.328V409.906H973.141V411.172H970.891V418.328H969.406V404.328H970.891ZM985.859 412.234V413.453H982.609V418.328H981.109V413.453H977.766V418.328H976.234V413.453H973.047V412.234H985.859ZM979.422 404.859C982.375 404.859 984.406 406.062 984.406 407.953C984.406 409.812 982.375 411 979.422 410.984C976.453 411 974.438 409.812 974.438 407.953C974.438 406.062 976.453 404.859 979.422 404.859ZM979.422 406.047C977.344 406.062 975.953 406.781 975.969 407.953C975.953 409.094 977.344 409.812 979.422 409.812C981.5 409.812 982.891 409.094 982.891 407.953C982.891 406.781 981.5 406.062 979.422 406.047ZM998.953 415.406V416.656H986.141V415.406H991.781V412.953H987.703V408.5H995.922V406.531H987.672V405.312H997.391V409.688H989.172V411.734H997.719V412.953H993.25V415.406H998.953ZM1013.98 404.344V414.516H1012.5V404.344H1013.98ZM1014.41 416.828V418.031H1004.83V413.484H1006.33V416.828H1014.41ZM1006.39 405.281C1008.5 405.281 1010.11 406.719 1010.11 408.75C1010.11 410.812 1008.5 412.234 1006.39 412.234C1004.28 412.234 1002.66 410.812 1002.66 408.75C1002.66 406.719 1004.28 405.281 1006.39 405.281ZM1006.39 406.578C1005.08 406.578 1004.11 407.469 1004.11 408.75C1004.11 410.062 1005.08 410.938 1006.39 410.938C1007.67 410.938 1008.66 410.062 1008.66 408.75C1008.66 407.469 1007.67 406.578 1006.39 406.578ZM1026.45 404.344V408.844H1028.48V410.078H1026.45V414.812H1024.97V404.344H1026.45ZM1023.81 405.969V407.172H1015.47V405.969H1018.91V404.328H1020.39V405.969H1023.81ZM1019.64 407.844C1021.66 407.844 1023.03 408.891 1023.03 410.484C1023.03 412.078 1021.66 413.109 1019.64 413.109C1017.61 413.109 1016.23 412.078 1016.23 410.484C1016.23 408.891 1017.61 407.844 1019.64 407.844ZM1019.64 408.984C1018.45 408.984 1017.66 409.562 1017.67 410.484C1017.66 411.391 1018.45 411.953 1019.64 411.953C1020.83 411.953 1021.62 411.391 1021.64 410.484C1021.62 409.562 1020.83 408.984 1019.64 408.984ZM1027.05 416.828V418.031H1017.58V413.984H1019.06V416.828H1027.05ZM1043.36 404.344V414.656H1041.88V411.016H1038.41C1037.74 411.805 1036.73 412.281 1035.56 412.281C1033.45 412.281 1031.89 410.812 1031.89 408.75C1031.89 406.672 1033.45 405.203 1035.56 405.188C1036.72 405.195 1037.73 405.672 1038.39 406.453H1041.88V404.344H1043.36ZM1043.73 416.828V418.031H1034.27V413.578H1035.75V416.828H1043.73ZM1035.56 406.516C1034.25 406.516 1033.31 407.422 1033.31 408.75C1033.31 410.078 1034.25 410.969 1035.56 410.969C1036.83 410.969 1037.78 410.078 1037.78 408.75C1037.78 407.422 1036.83 406.516 1035.56 406.516ZM1039.05 407.656C1039.14 407.992 1039.2 408.359 1039.2 408.75C1039.2 409.125 1039.15 409.484 1039.05 409.812H1041.88V407.656H1039.05ZM1049.56 408.828C1049.56 410.984 1050.88 413.266 1052.97 414.266L1052.12 415.391C1050.6 414.672 1049.45 413.211 1048.86 411.5C1048.24 413.352 1047.02 414.898 1045.42 415.641L1044.59 414.5C1046.72 413.531 1048.11 411.141 1048.11 408.828V407.906H1045.02V406.719H1048.09V404.609H1049.59V406.719H1052.64V407.906H1049.56V408.828ZM1055.67 404.328V409.969H1057.92V411.219H1055.67V418.328H1054.19V404.328H1055.67ZM1069.89 405.828V407.016H1058.5V405.828H1063.48V404.266H1064.95V405.828H1069.89ZM1070.66 413.281V414.484H1067.42V418.344H1065.92V414.484H1062.55V418.344H1061.06V414.484H1057.84V413.281H1070.66ZM1064.22 407.734C1067.12 407.734 1068.88 408.562 1068.88 410.078C1068.88 411.578 1067.12 412.422 1064.22 412.422C1061.3 412.422 1059.55 411.578 1059.56 410.078C1059.55 408.562 1061.3 407.734 1064.22 407.734ZM1064.22 408.859C1062.2 408.875 1061.09 409.281 1061.09 410.078C1061.09 410.859 1062.2 411.281 1064.22 411.281C1066.22 411.281 1067.33 410.859 1067.34 410.078C1067.33 409.281 1066.22 408.875 1064.22 408.859ZM1081.83 404.328V409.906H1084V411.141H1081.83V418.312H1080.34V404.328H1081.83ZM1078.17 405.797C1078.16 409.844 1076.38 413.453 1071.77 415.734L1070.94 414.578C1074.45 412.828 1076.35 410.297 1076.66 407.031H1071.64V405.797H1078.17ZM1096.8 410.75V411.891H1083.98V410.75H1096.8ZM1095.22 412.875V415.953H1087V417.109H1095.66V418.156H1085.52V414.969H1093.75V413.938H1085.5V412.875H1095.22ZM1095.19 404.688V407.719H1087.09V408.781H1095.42V409.828H1085.62V406.734H1093.7V405.734H1085.59V404.688H1095.19ZM1111.84 404.344V414.594H1110.36V404.344H1111.84ZM1112.27 416.828V418.031H1102.69V413.625H1104.19V416.828H1112.27ZM1105.33 406.5C1105.31 408.547 1106.62 410.422 1108.78 411.172L1108.02 412.359C1106.4 411.758 1105.2 410.57 1104.58 409.047C1103.96 410.672 1102.75 411.977 1101.11 412.609L1100.31 411.438C1102.52 410.625 1103.81 408.609 1103.81 406.5V405.109H1105.33V406.5ZM1118.22 407.312C1118.22 408.953 1119.58 410.5 1121.7 411.094L1121 412.25C1119.38 411.789 1118.16 410.789 1117.52 409.5C1116.91 410.945 1115.69 412.086 1114.02 412.609L1113.31 411.469C1115.44 410.781 1116.75 409.109 1116.75 407.312V407.141H1113.7V405.953H1116.75V404.266H1118.23V405.953H1121.27V407.141H1118.22V407.312ZM1124.98 404.328V412.812H1123.5V409.469H1120.83V408.25H1123.5V404.328H1124.98ZM1120.3 413.125C1123.22 413.125 1125.03 414.062 1125.03 415.703C1125.03 417.359 1123.22 418.312 1120.3 418.297C1117.36 418.312 1115.55 417.359 1115.56 415.703C1115.55 414.062 1117.36 413.125 1120.3 413.125ZM1120.3 414.281C1118.25 414.281 1117.03 414.797 1117.03 415.703C1117.03 416.609 1118.25 417.156 1120.3 417.156C1122.36 417.156 1123.56 416.609 1123.56 415.703C1123.56 414.797 1122.36 414.281 1120.3 414.281ZM1137.39 404.328V407.844H1139.42V409.094H1137.39V412.484H1135.91V404.328H1137.39ZM1129.91 413.062V414.422H1135.91V413.062H1137.39V418.156H1128.44V413.062H1129.91ZM1129.91 416.969H1135.91V415.578H1129.91V416.969ZM1134.75 405.703V406.891H1126.41V405.703H1129.84V404.203H1131.33V405.703H1134.75ZM1130.58 407.469C1132.59 407.469 1133.97 408.422 1133.97 409.922C1133.97 411.406 1132.59 412.391 1130.58 412.375C1128.53 412.391 1127.17 411.406 1127.17 409.922C1127.17 408.422 1128.53 407.469 1130.58 407.469ZM1130.58 408.578C1129.39 408.562 1128.59 409.109 1128.61 409.922C1128.59 410.75 1129.39 411.281 1130.58 411.281C1131.77 411.281 1132.56 410.75 1132.58 409.922C1132.56 409.109 1131.77 408.562 1130.58 408.578ZM1151.09 404.328V418.328H1149.61V404.328H1151.09ZM1141.8 405.688V413.484C1143.84 413.469 1145.98 413.305 1148.23 412.844L1148.44 414.094C1145.95 414.594 1143.7 414.766 1141.5 414.766H1140.33V405.688H1141.8ZM1163.45 404.328V409.75H1165.7V410.969H1163.45V418.359H1161.97V404.328H1163.45ZM1159.69 405.672V406.875H1154.62V413.641C1156.98 413.633 1158.74 413.531 1160.73 413.172L1160.92 414.422C1158.73 414.812 1156.88 414.891 1154.27 414.875H1153.14V405.672H1159.69ZM1167.22 417.109C1166.61 417.109 1166.09 416.609 1166.11 416C1166.09 415.391 1166.61 414.891 1167.22 414.891C1167.81 414.891 1168.33 415.391 1168.33 416C1168.33 416.609 1167.81 417.109 1167.22 417.109Z" fill="#353535"/>
</g>
<path d="M79 100C79 88.402 88.402 79 100 79H1400C1411.6 79 1421 88.402 1421 100H1419C1419 89.5066 1410.49 81 1400 81H100C89.5066 81 81 89.5066 81 100H79ZM81 100M1420 568H80H1420M79 568V100C79 88.402 88.402 79 100 79V81C89.5066 81 81 89.5066 81 100V568H79ZM1400 79C1411.6 79 1421 88.402 1421 100V568H1419V100C1419 89.5066 1410.49 81 1400 81V79Z" fill="#DBDBDB" mask="url(#path-2-inside-1_142_717)"/>
<defs>
<clipPath id="clip0_142_717">
<path d="M80 100C80 88.9543 88.9543 80 100 80H1400C1411.05 80 1420 88.9543 1420 100V568H80V100Z" fill="white"/>
</clipPath>
<clipPath id="clip1_142_717">
<rect width="24" height="24" fill="white" transform="translate(1207 96)"/>
</clipPath>
<clipPath id="clip2_142_717">
<rect width="121" height="35" fill="white" transform="translate(110 90)"/>
</clipPath>
<clipPath id="clip3_142_717">
<rect x="110" y="225" width="670" height="140" rx="4" fill="white"/>
</clipPath>
<clipPath id="clip4_142_717">
<path d="M110 432H780V479H110V432Z" fill="white"/>
</clipPath>
<clipPath id="clip5_142_717">
<path d="M110 479H780V526H110V479Z" fill="white"/>
</clipPath>
<clipPath id="clip6_142_717">
<path d="M110 526H780V573H110V526Z" fill="white"/>
</clipPath>
</defs>
</svg>
