<svg width="1500" height="568" viewBox="0 0 1500 568" fill="none" xmlns="http://www.w3.org/2000/svg">
<g clip-path="url(#clip0_173_239)">
<rect width="1500" height="568" rx="12" fill="white"/>
<g clip-path="url(#clip1_173_239)">
<rect width="740" height="568" fill="white"/>
<rect width="740" height="279" rx="12" fill="#F5F5F5"/>
<g clip-path="url(#clip2_173_239)">
<mask id="path-3-inside-1_173_239" fill="white">
<path d="M30 42C30 35.3726 35.3726 30 42 30H736V263C736 269.627 730.627 275 724 275H34C31.7909 275 30 273.209 30 271V42Z"/>
</mask>
<path d="M30 42C30 35.3726 35.3726 30 42 30H736V263C736 269.627 730.627 275 724 275H34C31.7909 275 30 273.209 30 271V42Z" fill="white"/>
<path d="M504.122 228.023C500.523 198.072 486.044 170.508 463.46 150.612C440.875 130.716 411.773 119.888 381.73 120.202C351.687 120.516 322.816 131.95 300.648 152.314C278.481 172.678 264.577 200.539 261.6 230.558L273.74 231.772C276.419 204.754 288.933 179.68 308.884 161.352C328.834 143.025 354.818 132.734 381.857 132.451C408.896 132.169 435.088 141.914 455.414 159.821C475.74 177.727 488.771 202.535 492.01 229.49L504.122 228.023Z" fill="#E9EDF0"/>
<path d="M249.681 228.706C252.253 203.286 262.038 179.131 277.884 159.089C293.73 139.047 314.975 123.953 339.115 115.585L350.933 149.68C333.293 155.794 317.769 166.824 306.191 181.469C294.612 196.114 287.462 213.764 285.582 232.338L249.681 228.706Z" fill="#24A9B2"/>
<line x1="329.634" y1="88.837" x2="359.456" y2="175.298" stroke="#24A9B2"/>
<path d="M371.903 219.494C370.398 219.494 369.055 219.217 367.876 218.663C366.704 218.109 365.774 217.345 365.085 216.372C364.396 215.399 364.037 214.284 364.009 213.027H368.483C368.533 213.872 368.888 214.558 369.549 215.083C370.209 215.609 370.994 215.871 371.903 215.871C372.628 215.871 373.267 215.712 373.821 215.392C374.382 215.065 374.819 214.614 375.131 214.039C375.451 213.457 375.611 212.789 375.611 212.036C375.611 211.269 375.447 210.594 375.121 210.012C374.801 209.43 374.357 208.975 373.789 208.648C373.221 208.322 372.571 208.155 371.839 208.148C371.2 208.148 370.579 208.279 369.975 208.542C369.378 208.805 368.913 209.163 368.579 209.618L364.478 208.883L365.511 197.377H378.849V201.148H369.314L368.75 206.614H368.878C369.261 206.074 369.84 205.626 370.614 205.271C371.388 204.916 372.255 204.739 373.214 204.739C374.528 204.739 375.699 205.048 376.729 205.665C377.759 206.283 378.572 207.132 379.169 208.212C379.765 209.284 380.06 210.52 380.053 211.919C380.06 213.389 379.719 214.696 379.03 215.839C378.349 216.976 377.393 217.871 376.165 218.524C374.943 219.17 373.523 219.494 371.903 219.494ZM382.94 215.36V211.727L392.049 197.377H395.181V202.406H393.327L387.585 211.493V211.663H400.529V215.36H382.94ZM393.412 219.195V214.252L393.498 212.643V197.377H397.823V219.195H393.412Z" fill="#404040"/>
<path d="M69.4043 63.6758V65.4688H68.0859V69.7402C68.6221 69.6963 69.1494 69.6436 69.6504 69.582L69.7383 71.2344C66.7324 71.7441 63.2344 71.7969 60.7031 71.7969L60.4746 69.9863L62.1797 69.9688V65.4688H60.8789V63.6758H69.4043ZM73.957 62.6211V72.3945H71.7246V70.0039H69.7559V68.2109H71.7246V66.9805H69.7559V65.2227H71.7246V62.6211H73.957ZM68.4902 72.6406C71.9355 72.6582 73.9922 73.7305 74.0098 75.6465C73.9922 77.5098 71.9355 78.6172 68.4902 78.6172C65.0625 78.6172 62.9883 77.5098 62.9883 75.6465C62.9883 73.7305 65.0625 72.6582 68.4902 72.6406ZM68.4902 74.3633C66.3457 74.3633 65.2207 74.7676 65.2207 75.6465C65.2207 76.4902 66.3457 76.9121 68.4902 76.9121C70.6348 76.9121 71.7773 76.4902 71.7773 75.6465C71.7773 74.7676 70.6348 74.3633 68.4902 74.3633ZM64.3418 69.916L65.9414 69.8633V65.4688H64.3418V69.916ZM88.6523 62.6211V68.7559H90.9199V70.6016H88.6523V78.582H86.4023V62.6211H88.6523ZM84.3809 64.2559C84.3633 69.0371 82.5 73.1855 77.1211 75.8223L75.8555 74.0996C79.6436 72.2012 81.6738 69.6523 82.0957 66.084H76.7695V64.2559H84.3809ZM109.219 62.6387V74.8203H106.986V71.7969H104.824V70.0215H106.986V68.4219H104.824V66.6113H106.986V62.6387H109.219ZM104.666 64.3086V66.084H95.7715V64.3086H99.2168V62.6035H101.449V64.3086H104.666ZM100.307 66.6465C102.504 66.6465 104.086 67.9473 104.104 69.793C104.086 71.6387 102.504 72.9219 100.307 72.9219C98.127 72.9219 96.5449 71.6387 96.5625 69.793C96.5449 67.9473 98.127 66.6465 100.307 66.6465ZM100.307 68.3867C99.3223 68.4043 98.6367 68.8965 98.6543 69.793C98.6367 70.707 99.3223 71.2168 100.307 71.2168C101.273 71.2168 101.977 70.707 101.994 69.793C101.977 68.8965 101.273 68.4043 100.307 68.3867ZM109.553 76.543V78.3359H98.5664V73.7832H100.834V76.543H109.553ZM124.09 62.6387V67.1738H126.129V69.0195H124.09V73.4316H121.84V62.6387H124.09ZM118.693 73.5723C122.156 73.5547 124.143 74.4688 124.143 76.1035C124.143 77.7559 122.156 78.6348 118.693 78.6348C115.213 78.6348 113.227 77.7559 113.227 76.1035C113.227 74.4688 115.213 73.5547 118.693 73.5723ZM118.693 75.1895C116.479 75.1895 115.459 75.4883 115.477 76.1035C115.459 76.7012 116.479 77 118.693 77C120.873 77 121.875 76.7012 121.893 76.1035C121.875 75.4883 120.873 75.1895 118.693 75.1895ZM111.117 71.3047C112.286 71.3047 113.613 71.2959 115.002 71.252V70.3203C113.253 70.083 112.172 69.2744 112.189 68.0879C112.172 66.6641 113.719 65.8027 116.109 65.8027C118.482 65.8027 120.012 66.6641 120.029 68.0879C120.012 69.2744 118.957 70.083 117.234 70.3203V71.1816C118.544 71.1113 119.862 71.0059 121.102 70.8477L121.26 72.3594C117.867 72.957 114.176 72.9922 111.346 72.9922L111.117 71.3047ZM120.697 63.7637V65.416H111.539V63.7637H115.002V62.498H117.234V63.7637H120.697ZM116.109 67.2617C114.967 67.2617 114.316 67.5605 114.334 68.0879C114.316 68.6504 114.967 68.9316 116.109 68.9316C117.234 68.9316 117.867 68.6504 117.885 68.0879C117.867 67.5605 117.234 67.2617 116.109 67.2617ZM137.467 69.5996V71.6738H131.666V69.5996H137.467ZM156.715 62.6387V74.3105H154.482V68.5801H151.863V66.7695H154.482V62.6387H156.715ZM157.102 76.543V78.3359H146.098V73.291H148.348V76.543H157.102ZM149.279 65.7676C149.279 67.6133 150.404 69.5996 152.953 70.4258L151.846 72.2012C150.07 71.6299 148.857 70.4609 148.154 69.002C147.451 70.6191 146.177 71.9023 144.287 72.5352L143.145 70.707C145.781 69.8809 146.977 67.7891 146.994 65.75V65.5039H143.777V63.7109H152.461V65.5039H149.279V65.7676ZM163.781 67.4902C163.781 69.916 164.66 72.3418 166.928 73.5723L165.697 75.207C164.256 74.4688 163.298 73.168 162.744 71.6035C162.182 73.3086 161.224 74.75 159.773 75.5938L158.49 73.9062C160.793 72.5703 161.654 69.9688 161.672 67.4902V67.1211H159.088V65.3281H161.672V63.166H163.764V65.3281H166.295V67.1211H163.781V67.4902ZM172.623 62.6211V78.6172H170.496V62.6211H172.623ZM169.354 62.8848V77.8789H167.244V70.5137H165.363V68.6855H167.244V62.8848H169.354ZM184.734 65.7852C184.734 67.7012 185.912 69.6523 188.549 70.4434L187.406 72.2012C185.613 71.6387 184.348 70.4873 183.627 69.0371C182.897 70.6104 181.597 71.876 179.725 72.5L178.564 70.7422C181.219 69.8809 182.449 67.8066 182.449 65.7852V65.5566H179.162V63.7637H187.951V65.5566H184.734V65.7852ZM191.889 62.6387V74.2051H189.639V62.6387H191.889ZM192.311 76.543V78.3359H181.166V73.1504H183.434V76.543H192.311ZM207.797 62.6211V72.6582H205.67V68.4043H204.387V72.1309H202.295V62.9199H204.387V66.5762H205.67V62.6211H207.797ZM201.82 64.2734V66.0137H193.963V64.2734H196.793V62.7617H199.025V64.2734H201.82ZM197.918 66.541C199.957 66.541 201.398 67.666 201.416 69.3359C201.398 70.9883 199.957 72.1133 197.918 72.1133C195.914 72.1133 194.455 70.9883 194.455 69.3359C194.455 67.666 195.914 66.541 197.918 66.541ZM197.918 68.1582C197.039 68.1582 196.459 68.5977 196.459 69.3359C196.459 70.0742 197.039 70.5312 197.918 70.5137C198.797 70.5312 199.377 70.0742 199.395 69.3359C199.377 68.5977 198.797 68.1582 197.918 68.1582ZM202.33 72.7988C205.793 72.7988 207.867 73.8535 207.885 75.7168C207.867 77.5625 205.793 78.6172 202.33 78.6172C198.885 78.6172 196.793 77.5625 196.793 75.7168C196.793 73.8535 198.885 72.7988 202.33 72.7988ZM202.33 74.4863C200.168 74.4863 199.025 74.873 199.043 75.7168C199.025 76.5254 200.168 76.9297 202.33 76.9297C204.51 76.9297 205.617 76.5254 205.617 75.7168C205.617 74.873 204.51 74.4863 202.33 74.4863ZM224.232 69.7051V71.3398H220.629V72.2715H222.475V76.0508H213.51V76.9824H222.949V78.5117H211.277V74.627H220.26V73.8184H211.26V72.2715H213.211V71.3398H209.59V69.7051H224.232ZM222.457 62.9023V66.6465H213.65V67.4375H222.738V68.9668H211.418V65.2227H220.207V64.4141H211.383V62.9023H222.457ZM215.443 72.2715H218.379V71.3398H215.443V72.2715Z" fill="black"/>
</g>
<path d="M29 42C29 34.8203 34.8203 29 42 29H736V31H42C35.9249 31 31 35.9249 31 42H29ZM31 42M736 275H30H736M34 275C31.2386 275 29 272.761 29 270V42C29 34.8203 34.8203 29 42 29V31C35.9249 31 31 35.9249 31 42V271C31 273.209 32.3431 275 34 275ZM34 275M736 30V275V30" fill="#F2F2F2" mask="url(#path-3-inside-1_173_239)"/>
<rect y="289" width="740" height="279" rx="12" fill="#F5F5F5"/>
<g clip-path="url(#clip3_173_239)">
<mask id="path-11-inside-2_173_239" fill="white">
<path d="M30 331C30 324.373 35.3726 319 42 319H736V552C736 558.627 730.627 564 724 564H34C31.7909 564 30 562.209 30 560V331Z"/>
</mask>
<path d="M30 331C30 324.373 35.3726 319 42 319H736V552C736 558.627 730.627 564 724 564H34C31.7909 564 30 562.209 30 560V331Z" fill="white"/>
<path d="M73.957 351.621V359.76H71.7246V355.787H68.7188V354.012H71.7246V351.621H73.957ZM73.957 360.428V364.699H65.5547V365.684H74.4141V367.441H63.3398V363.064H71.7422V362.15H63.3223V360.428H73.957ZM66.4688 353.309C66.4512 355.225 67.5762 357.07 70.125 357.826L68.9473 359.549C67.2334 358.995 66.0381 357.923 65.3438 356.543C64.6494 358.081 63.3838 359.294 61.5117 359.883L60.3516 358.107C63.0059 357.334 64.1836 355.383 64.2012 353.309V352.148H66.4688V353.309ZM89.9004 351.621V367.617H87.791V351.621H89.9004ZM86.5605 351.973V366.914H84.4336V361.641H82.166V359.83H84.4336V357.65H82.4648C81.7178 360.287 80.1006 362.52 77.1035 364.295L75.7852 362.713C79.0283 360.797 80.4521 358.468 80.7598 355.33H76.7168V353.52H82.9922C82.9922 354.319 82.9395 355.093 82.8516 355.84H84.4336V351.973H86.5605ZM100.078 352.869C100.078 354.75 101.994 356.842 105.668 357.299L104.789 359.109C101.994 358.705 99.9463 357.413 98.9004 355.682C97.8457 357.413 95.8154 358.705 93.0469 359.109L92.1504 357.299C95.7891 356.842 97.7227 354.75 97.7227 352.869V352.096H100.078V352.869ZM106.178 360.322V362.15H99.9551V367.617H97.7402V362.15H91.5879V360.322H106.178ZM120.891 351.621V361.658H118.764V357.404H117.48V361.131H115.389V351.92H117.48V355.576H118.764V351.621H120.891ZM114.914 353.273V355.014H107.057V353.273H109.887V351.762H112.119V353.273H114.914ZM111.012 355.541C113.051 355.541 114.492 356.666 114.51 358.336C114.492 359.988 113.051 361.113 111.012 361.113C109.008 361.113 107.549 359.988 107.549 358.336C107.549 356.666 109.008 355.541 111.012 355.541ZM111.012 357.158C110.133 357.158 109.553 357.598 109.553 358.336C109.553 359.074 110.133 359.531 111.012 359.514C111.891 359.531 112.471 359.074 112.488 358.336C112.471 357.598 111.891 357.158 111.012 357.158ZM115.424 361.799C118.887 361.799 120.961 362.854 120.979 364.717C120.961 366.562 118.887 367.617 115.424 367.617C111.979 367.617 109.887 366.562 109.887 364.717C109.887 362.854 111.979 361.799 115.424 361.799ZM115.424 363.486C113.262 363.486 112.119 363.873 112.137 364.717C112.119 365.525 113.262 365.93 115.424 365.93C117.604 365.93 118.711 365.525 118.711 364.717C118.711 363.873 117.604 363.486 115.424 363.486ZM136.5 351.621V367.617H134.338V359.619H132.844V366.844H130.734V351.885H132.844V357.809H134.338V351.621H136.5ZM125.602 353.396V361.746C126.885 361.72 128.291 361.605 129.838 361.307L130.066 363.24C127.922 363.609 126.094 363.715 124.441 363.715H123.352V353.396H125.602ZM151.74 361.799V367.617H149.508V363.557H140.754V361.799H151.74ZM151.74 351.621V361.078H149.508V359.057H145.922C145.157 359.883 144.023 360.375 142.723 360.375C140.297 360.375 138.451 358.705 138.469 356.385C138.451 354.117 140.297 352.465 142.723 352.482C144.023 352.474 145.157 352.957 145.922 353.766H149.508V351.621H151.74ZM142.723 354.363C141.475 354.363 140.578 355.137 140.596 356.385C140.578 357.703 141.475 358.459 142.723 358.459C143.9 358.459 144.814 357.703 144.814 356.385C144.814 355.137 143.9 354.363 142.723 354.363ZM146.854 357.264H149.508V355.576H146.871C146.915 355.831 146.941 356.104 146.941 356.385C146.941 356.692 146.906 356.982 146.854 357.264ZM167.051 352.553V354.346H163.869C163.887 356.218 164.994 358.134 167.596 358.969L166.453 360.709C164.678 360.138 163.456 358.995 162.762 357.562C162.05 359.127 160.775 360.366 158.912 360.973L157.717 359.25C160.362 358.397 161.566 356.35 161.602 354.346H158.332V352.553H167.051ZM170.654 351.621V355.506H172.816V357.369H170.654V361.271H168.404V351.621H170.654ZM170.654 361.957V367.617H168.404V363.732H159.879V361.957H170.654ZM179.566 353.801C179.549 355.945 180.656 357.914 183.223 358.705L182.045 360.463C180.322 359.865 179.153 358.758 178.494 357.316C177.773 358.986 176.481 360.305 174.557 360.955L173.379 359.162C176.121 358.283 177.281 356.139 177.299 353.906V352.447H179.566V353.801ZM187.002 351.621V360.99H184.77V356.385H181.764V354.557H184.77V351.621H187.002ZM181.535 361.412C184.945 361.412 187.037 362.555 187.055 364.523C187.037 366.492 184.945 367.617 181.535 367.617C178.125 367.617 176.033 366.492 176.033 364.523C176.033 362.555 178.125 361.412 181.535 361.412ZM181.535 363.152C179.408 363.152 178.266 363.609 178.266 364.523C178.266 365.402 179.408 365.877 181.535 365.877C183.662 365.877 184.822 365.402 184.822 364.523C184.822 363.609 183.662 363.152 181.535 363.152ZM206.707 351.639V363.82H204.475V360.797H202.312V359.021H204.475V357.422H202.312V355.611H204.475V351.639H206.707ZM202.154 353.309V355.084H193.26V353.309H196.705V351.604H198.938V353.309H202.154ZM197.795 355.646C199.992 355.646 201.574 356.947 201.592 358.793C201.574 360.639 199.992 361.922 197.795 361.922C195.615 361.922 194.033 360.639 194.051 358.793C194.033 356.947 195.615 355.646 197.795 355.646ZM197.795 357.387C196.811 357.404 196.125 357.896 196.143 358.793C196.125 359.707 196.811 360.217 197.795 360.217C198.762 360.217 199.465 359.707 199.482 358.793C199.465 357.896 198.762 357.404 197.795 357.387ZM207.041 365.543V367.336H196.055V362.783H198.322V365.543H207.041ZM221.578 351.639V356.174H223.617V358.02H221.578V362.432H219.328V351.639H221.578ZM216.182 362.572C219.645 362.555 221.631 363.469 221.631 365.104C221.631 366.756 219.645 367.635 216.182 367.635C212.701 367.635 210.715 366.756 210.715 365.104C210.715 363.469 212.701 362.555 216.182 362.572ZM216.182 364.189C213.967 364.189 212.947 364.488 212.965 365.104C212.947 365.701 213.967 366 216.182 366C218.361 366 219.363 365.701 219.381 365.104C219.363 364.488 218.361 364.189 216.182 364.189ZM208.605 360.305C209.774 360.305 211.102 360.296 212.49 360.252V359.32C210.741 359.083 209.66 358.274 209.678 357.088C209.66 355.664 211.207 354.803 213.598 354.803C215.971 354.803 217.5 355.664 217.518 357.088C217.5 358.274 216.445 359.083 214.723 359.32V360.182C216.032 360.111 217.351 360.006 218.59 359.848L218.748 361.359C215.355 361.957 211.664 361.992 208.834 361.992L208.605 360.305ZM218.186 352.764V354.416H209.027V352.764H212.49V351.498H214.723V352.764H218.186ZM213.598 356.262C212.455 356.262 211.805 356.561 211.822 357.088C211.805 357.65 212.455 357.932 213.598 357.932C214.723 357.932 215.355 357.65 215.373 357.088C215.355 356.561 214.723 356.262 213.598 356.262Z" fill="black"/>
<rect x="317" y="499" width="56" height="95" rx="5" fill="#2172A9"/>
<rect x="392" y="410" width="56" height="184" rx="5" fill="#2172A9"/>
</g>
<path d="M29 331C29 323.82 34.8203 318 42 318H736V320H42C35.9249 320 31 324.925 31 331H29ZM31 331M736 564H30H736M34 564C31.2386 564 29 561.761 29 559V331C29 323.82 34.8203 318 42 318V320C35.9249 320 31 324.925 31 331V560C31 562.209 32.3431 564 34 564ZM34 564M736 319V564V319" fill="#F2F2F2" mask="url(#path-11-inside-2_173_239)"/>
</g>
<rect x="760" width="740" height="568" rx="12" fill="#F5F5F5"/>
<mask id="path-17-inside-3_173_239" fill="white">
<path d="M790 42C790 35.3726 795.373 30 802 30H1496V552C1496 558.627 1490.63 564 1484 564H794C791.791 564 790 562.209 790 560V42Z"/>
</mask>
<path d="M790 42C790 35.3726 795.373 30 802 30H1496V552C1496 558.627 1490.63 564 1484 564H794C791.791 564 790 562.209 790 560V42Z" fill="white"/>
<path d="M789 42C789 34.8203 794.82 29 802 29H1496V31H802C795.925 31 791 35.9249 791 42H789ZM791 42M1496 564H790H1496M794 564C791.239 564 789 561.761 789 559V42C789 34.8203 794.82 29 802 29V31C795.925 31 791 35.9249 791 42V560C791 562.209 792.343 564 794 564ZM794 564M1496 30V564V30" fill="#F2F2F2" mask="url(#path-17-inside-3_173_239)"/>
<path d="M833.957 62.6211V70.7598H831.725V66.7871H828.719V65.0117H831.725V62.6211H833.957ZM833.957 71.4277V75.6992H825.555V76.6836H834.414V78.4414H823.34V74.0645H831.742V73.1504H823.322V71.4277H833.957ZM826.469 64.3086C826.451 66.2246 827.576 68.0703 830.125 68.8262L828.947 70.5488C827.233 69.9951 826.038 68.9229 825.344 67.543C824.649 69.0811 823.384 70.2939 821.512 70.8828L820.352 69.1074C823.006 68.334 824.184 66.3828 824.201 64.3086V63.1484H826.469V64.3086ZM849.9 62.6211V78.6172H847.791V62.6211H849.9ZM846.561 62.9727V77.9141H844.434V72.6406H842.166V70.8301H844.434V68.6504H842.465C841.718 71.2871 840.101 73.5195 837.104 75.2949L835.785 73.7129C839.028 71.7969 840.452 69.4678 840.76 66.3301H836.717V64.5195H842.992C842.992 65.3193 842.939 66.0928 842.852 66.8398H844.434V62.9727H846.561ZM860.078 63.8691C860.078 65.75 861.994 67.8418 865.668 68.2988L864.789 70.1094C861.994 69.7051 859.946 68.4131 858.9 66.6816C857.846 68.4131 855.815 69.7051 853.047 70.1094L852.15 68.2988C855.789 67.8418 857.723 65.75 857.723 63.8691V63.0957H860.078V63.8691ZM866.178 71.3223V73.1504H859.955V78.6172H857.74V73.1504H851.588V71.3223H866.178ZM880.891 62.6211V72.6582H878.764V68.4043H877.48V72.1309H875.389V62.9199H877.48V66.5762H878.764V62.6211H880.891ZM874.914 64.2734V66.0137H867.057V64.2734H869.887V62.7617H872.119V64.2734H874.914ZM871.012 66.541C873.051 66.541 874.492 67.666 874.51 69.3359C874.492 70.9883 873.051 72.1133 871.012 72.1133C869.008 72.1133 867.549 70.9883 867.549 69.3359C867.549 67.666 869.008 66.541 871.012 66.541ZM871.012 68.1582C870.133 68.1582 869.553 68.5977 869.553 69.3359C869.553 70.0742 870.133 70.5312 871.012 70.5137C871.891 70.5312 872.471 70.0742 872.488 69.3359C872.471 68.5977 871.891 68.1582 871.012 68.1582ZM875.424 72.7988C878.887 72.7988 880.961 73.8535 880.979 75.7168C880.961 77.5625 878.887 78.6172 875.424 78.6172C871.979 78.6172 869.887 77.5625 869.887 75.7168C869.887 73.8535 871.979 72.7988 875.424 72.7988ZM875.424 74.4863C873.262 74.4863 872.119 74.873 872.137 75.7168C872.119 76.5254 873.262 76.9297 875.424 76.9297C877.604 76.9297 878.711 76.5254 878.711 75.7168C878.711 74.873 877.604 74.4863 875.424 74.4863ZM900.648 62.6211V78.6172H898.486V70.6191H896.992V77.8438H894.883V62.8848H896.992V68.8086H898.486V62.6211H900.648ZM889.75 64.3965V72.7461C891.033 72.7197 892.439 72.6055 893.986 72.3066L894.215 74.2402C892.07 74.6094 890.242 74.7148 888.59 74.7148H887.5V64.3965H889.75ZM915.889 72.7988V78.6172H913.656V74.5566H904.902V72.7988H915.889ZM915.889 62.6211V72.0781H913.656V70.0566H910.07C909.306 70.8828 908.172 71.375 906.871 71.375C904.445 71.375 902.6 69.7051 902.617 67.3848C902.6 65.1172 904.445 63.4648 906.871 63.4824C908.172 63.4736 909.306 63.957 910.07 64.7656H913.656V62.6211H915.889ZM906.871 65.3633C905.623 65.3633 904.727 66.1367 904.744 67.3848C904.727 68.7031 905.623 69.459 906.871 69.459C908.049 69.459 908.963 68.7031 908.963 67.3848C908.963 66.1367 908.049 65.3633 906.871 65.3633ZM911.002 68.2637H913.656V66.5762H911.02C911.063 66.8311 911.09 67.1035 911.09 67.3848C911.09 67.6924 911.055 67.9824 911.002 68.2637ZM931.199 63.5527V65.3457H928.018C928.035 67.2178 929.143 69.1338 931.744 69.9688L930.602 71.709C928.826 71.1377 927.604 69.9951 926.91 68.5625C926.198 70.127 924.924 71.3662 923.061 71.9727L921.865 70.25C924.511 69.3975 925.715 67.3496 925.75 65.3457H922.48V63.5527H931.199ZM934.803 62.6211V66.5059H936.965V68.3691H934.803V72.2715H932.553V62.6211H934.803ZM934.803 72.957V78.6172H932.553V74.7324H924.027V72.957H934.803ZM943.715 64.8008C943.697 66.9453 944.805 68.9141 947.371 69.7051L946.193 71.4629C944.471 70.8652 943.302 69.7578 942.643 68.3164C941.922 69.9863 940.63 71.3047 938.705 71.9551L937.527 70.1621C940.27 69.2832 941.43 67.1387 941.447 64.9062V63.4473H943.715V64.8008ZM951.15 62.6211V71.9902H948.918V67.3848H945.912V65.5566H948.918V62.6211H951.15ZM945.684 72.4121C949.094 72.4121 951.186 73.5547 951.203 75.5234C951.186 77.4922 949.094 78.6172 945.684 78.6172C942.273 78.6172 940.182 77.4922 940.182 75.5234C940.182 73.5547 942.273 72.4121 945.684 72.4121ZM945.684 74.1523C943.557 74.1523 942.414 74.6094 942.414 75.5234C942.414 76.4023 943.557 76.877 945.684 76.877C947.811 76.877 948.971 76.4023 948.971 75.5234C948.971 74.6094 947.811 74.1523 945.684 74.1523ZM970.855 62.6387V74.8203H968.623V71.7969H966.461V70.0215H968.623V68.4219H966.461V66.6113H968.623V62.6387H970.855ZM966.303 64.3086V66.084H957.408V64.3086H960.854V62.6035H963.086V64.3086H966.303ZM961.943 66.6465C964.141 66.6465 965.723 67.9473 965.74 69.793C965.723 71.6387 964.141 72.9219 961.943 72.9219C959.764 72.9219 958.182 71.6387 958.199 69.793C958.182 67.9473 959.764 66.6465 961.943 66.6465ZM961.943 68.3867C960.959 68.4043 960.273 68.8965 960.291 69.793C960.273 70.707 960.959 71.2168 961.943 71.2168C962.91 71.2168 963.613 70.707 963.631 69.793C963.613 68.8965 962.91 68.4043 961.943 68.3867ZM971.189 76.543V78.3359H960.203V73.7832H962.471V76.543H971.189ZM985.727 62.6387V67.1738H987.766V69.0195H985.727V73.4316H983.477V62.6387H985.727ZM980.33 73.5723C983.793 73.5547 985.779 74.4688 985.779 76.1035C985.779 77.7559 983.793 78.6348 980.33 78.6348C976.85 78.6348 974.863 77.7559 974.863 76.1035C974.863 74.4688 976.85 73.5547 980.33 73.5723ZM980.33 75.1895C978.115 75.1895 977.096 75.4883 977.113 76.1035C977.096 76.7012 978.115 77 980.33 77C982.51 77 983.512 76.7012 983.529 76.1035C983.512 75.4883 982.51 75.1895 980.33 75.1895ZM972.754 71.3047C973.923 71.3047 975.25 71.2959 976.639 71.252V70.3203C974.89 70.083 973.809 69.2744 973.826 68.0879C973.809 66.6641 975.355 65.8027 977.746 65.8027C980.119 65.8027 981.648 66.6641 981.666 68.0879C981.648 69.2744 980.594 70.083 978.871 70.3203V71.1816C980.181 71.1113 981.499 71.0059 982.738 70.8477L982.896 72.3594C979.504 72.957 975.812 72.9922 972.982 72.9922L972.754 71.3047ZM982.334 63.7637V65.416H973.176V63.7637H976.639V62.498H978.871V63.7637H982.334ZM977.746 67.2617C976.604 67.2617 975.953 67.5605 975.971 68.0879C975.953 68.6504 976.604 68.9316 977.746 68.9316C978.871 68.9316 979.504 68.6504 979.521 68.0879C979.504 67.5605 978.871 67.2617 977.746 67.2617Z" fill="black"/>
<g clip-path="url(#clip4_173_239)">
<path d="M1150 236C1150 221.949 1147.23 208.035 1141.86 195.053C1136.48 182.071 1128.6 170.275 1118.66 160.34C1108.72 150.404 1096.93 142.522 1083.95 137.145C1070.97 131.768 1057.05 129 1043 129L1043 181.408C1050.17 181.408 1057.27 182.82 1063.89 185.563C1070.52 188.307 1076.53 192.328 1081.6 197.397C1086.67 202.467 1090.69 208.485 1093.44 215.108C1096.18 221.732 1097.59 228.831 1097.59 236H1150Z" fill="#2172AA"/>
<path d="M1043 129C1018.55 129 994.844 137.371 975.817 152.721C956.789 168.071 943.592 189.473 938.421 213.367L989.643 224.452C992.281 212.262 999.015 201.342 1008.72 193.51C1018.43 185.679 1030.53 181.408 1043 181.408L1043 129Z" fill="#349939"/>
<path d="M1150 236C1150 251.011 1146.84 265.853 1140.73 279.563C1134.62 293.274 1125.69 305.544 1114.53 315.579C1103.36 325.613 1090.21 333.186 1075.93 337.806C1061.65 342.426 1046.56 343.989 1031.63 342.394C1016.7 340.799 1002.28 336.082 989.299 328.548C976.315 321.015 965.063 310.834 956.271 298.667C947.48 286.5 941.347 272.62 938.271 257.928C935.195 243.236 935.244 228.061 938.416 213.389L989.64 224.464C988.022 231.949 987.997 239.692 989.566 247.188C991.136 254.684 994.265 261.766 998.75 267.973C1003.24 274.181 1008.98 279.375 1015.6 283.219C1022.23 287.063 1029.58 289.47 1037.2 290.283C1044.81 291.097 1052.52 290.3 1059.8 287.942C1067.09 285.585 1073.8 281.721 1079.49 276.602C1085.19 271.482 1089.74 265.221 1092.86 258.226C1095.98 251.231 1097.59 243.659 1097.59 236H1150Z" fill="#F07C1F"/>
<circle cx="1300" cy="198" r="6" fill="#2172AA"/>
<circle cx="1300" cy="238" r="6" fill="#F07C1F"/>
<circle cx="1300" cy="274" r="6" fill="#349939"/>
<path d="M1333.61 190.266V194.234H1335.59V195.672H1333.61V200.484H1331.88V190.266H1333.61ZM1329.39 191.438V192.828H1324.78V196.672C1327.44 196.68 1328.91 196.586 1330.59 196.234L1330.78 197.641C1328.94 198 1327.28 198.094 1324.2 198.094H1323.06V191.438H1329.39ZM1334.17 202.703V204.109H1324.56V199.406H1326.3V202.703H1334.17ZM1342.88 191.172C1342.88 192.844 1344.83 194.562 1347.72 194.969L1347.06 196.344C1344.74 195.984 1342.89 194.859 1342 193.344C1341.09 194.883 1339.23 196.016 1336.91 196.375L1336.25 195.016C1339.12 194.578 1341.08 192.891 1341.09 191.172V190.625H1342.88V191.172ZM1348.44 197.281V198.688H1342.98V201.266H1341.27V198.688H1335.53V197.281H1348.44ZM1347.02 202.703V204.109H1337.09V200H1338.83V202.703H1347.02Z" fill="#303030"/>
<path d="M1335.36 238.188V239.594H1332.22V244.391H1330.45V239.594H1327.33V244.391H1325.55V239.594H1322.45V238.188H1335.36ZM1328.88 230.766C1331.88 230.781 1333.97 232 1333.97 233.922C1333.97 235.812 1331.88 237.016 1328.88 237.016C1325.86 237.016 1323.8 235.812 1323.81 233.922C1323.8 232 1325.86 230.781 1328.88 230.766ZM1328.88 232.172C1326.88 232.172 1325.58 232.812 1325.59 233.922C1325.58 235 1326.88 235.641 1328.88 235.641C1330.88 235.641 1332.17 235 1332.17 233.922C1332.17 232.812 1330.88 232.172 1328.88 232.172ZM1340.12 231.25C1342.36 231.234 1344 232.656 1344.02 234.656C1344 236.672 1342.36 238.078 1340.12 238.078C1337.91 238.078 1336.25 236.672 1336.25 234.656C1336.25 232.656 1337.91 231.234 1340.12 231.25ZM1340.12 232.75C1338.89 232.75 1337.97 233.484 1337.97 234.656C1337.97 235.844 1338.89 236.562 1340.12 236.562C1341.38 236.562 1342.31 235.844 1342.31 234.656C1342.31 233.484 1341.38 232.75 1340.12 232.75ZM1347.31 230.266V244.406H1345.58V230.266H1347.31ZM1335.61 240.031C1338.16 240.031 1341.69 240 1344.73 239.562L1344.88 240.828C1341.7 241.438 1338.31 241.453 1335.83 241.453L1335.61 240.031Z" fill="#303030"/>
<path d="M1335.34 272.75V274.156H1329.75V275.328C1332.28 275.5 1333.77 276.375 1333.78 277.844C1333.77 279.469 1331.94 280.375 1328.89 280.375C1325.81 280.375 1323.97 279.469 1323.97 277.844C1323.97 276.375 1325.47 275.492 1328.03 275.328V274.156H1322.47V272.75H1335.34ZM1328.89 276.641C1326.83 276.656 1325.72 277.062 1325.73 277.844C1325.72 278.625 1326.83 279.047 1328.89 279.047C1330.91 279.047 1332.03 278.625 1332.05 277.844C1332.03 277.062 1330.91 276.656 1328.89 276.641ZM1334.19 266.891V268.281H1330.12C1330.4 269.445 1332.09 270.492 1334.73 270.734L1334.12 272.109C1331.56 271.852 1329.66 270.828 1328.89 269.391C1328.12 270.82 1326.25 271.852 1323.69 272.109L1323.09 270.734C1325.69 270.492 1327.38 269.43 1327.67 268.281H1323.64V266.891H1334.19ZM1348.45 277.25V278.672H1335.55V277.25H1338.53V273.672C1337.41 273.031 1336.73 272.023 1336.73 270.766C1336.72 268.516 1338.94 267.031 1341.97 267.031C1345.02 267.031 1347.23 268.516 1347.23 270.766C1347.23 272 1346.58 272.992 1345.48 273.641V277.25H1348.45ZM1341.97 268.406C1339.86 268.406 1338.42 269.297 1338.44 270.766C1338.42 272.219 1339.86 273.125 1341.97 273.125C1344.08 273.125 1345.53 272.219 1345.53 270.766C1345.53 269.297 1344.08 268.406 1341.97 268.406ZM1340.25 277.25H1343.72V274.297C1343.18 274.422 1342.59 274.484 1341.97 274.484C1341.36 274.484 1340.78 274.422 1340.25 274.312V277.25Z" fill="#303030"/>
<g clip-path="url(#clip5_173_239)">
<mask id="path-29-inside-4_173_239" fill="white">
<path d="M820 393H1486V440H820V393Z"/>
</mask>
<path d="M820 393H1486V440H820V393Z" fill="#F6F6F6"/>
<path d="M1486 440V439H820V440V441H1486V440Z" fill="#DBDBDB" mask="url(#path-29-inside-4_173_239)"/>
<path d="M841.766 410.125V411.391C841.766 412.711 841.766 414.156 841.391 416.156H843.344V417.562H837.734V423.406H835.984V417.562H830.469V416.156H839.625C840.016 414.234 840.031 412.797 840.031 411.531H831.984V410.125H841.766ZM856.438 416.578V417.969H850.984V420.406H849.266V417.969H843.531V416.578H856.438ZM855.016 421.703V423.109H845.094V419.219H846.812V421.703H855.016ZM846.938 409.719V411.312H853.031V409.719H854.75V415.469H845.219V409.719H846.938ZM846.938 414.094H853.031V412.609H846.938V414.094Z" fill="#303030"/>
<path d="M973.497 409.281V419.594H971.763V414.422H969.263V413.016H971.763V409.281H973.497ZM973.856 421.703V423.109H964.231V418.688H965.966V421.703H973.856ZM966.856 412.094C966.856 413.797 967.997 415.547 970.185 416.266L969.31 417.656C967.731 417.117 966.614 416.047 965.997 414.703C965.372 416.195 964.192 417.375 962.528 417.953L961.638 416.547C963.888 415.812 965.091 413.953 965.091 412.078V411.703H962.153V410.297H969.778V411.703H966.856V412.094ZM979.06 413.578C979.06 415.766 979.966 417.969 981.935 419.031L980.966 420.312C979.653 419.617 978.763 418.375 978.263 416.891C977.763 418.492 976.872 419.859 975.544 420.641L974.528 419.328C976.528 418.172 977.419 415.812 977.419 413.578V413.141H975.013V411.734H977.419V409.766H979.06V411.734H981.419V413.141H979.06V413.578ZM986.903 409.266V423.391H985.247V409.266H986.903ZM984.028 409.531V422.703H982.388V416.125H980.544V414.688H982.388V409.531H984.028Z" fill="#303030"/>
<path d="M1104.01 409.266V413.234H1105.99V414.672H1104.01V419.484H1102.28V409.266H1104.01ZM1099.79 410.438V411.828H1095.18V415.672C1097.84 415.68 1099.31 415.586 1100.99 415.234L1101.18 416.641C1099.34 417 1097.68 417.094 1094.6 417.094H1093.46V410.438H1099.79ZM1104.57 421.703V423.109H1094.96V418.406H1096.7V421.703H1104.57ZM1113.28 410.172C1113.28 411.844 1115.23 413.562 1118.12 413.969L1117.46 415.344C1115.14 414.984 1113.29 413.859 1112.4 412.344C1111.49 413.883 1109.63 415.016 1107.31 415.375L1106.65 414.016C1109.53 413.578 1111.48 411.891 1111.49 410.172V409.625H1113.28V410.172ZM1118.84 416.281V417.688H1113.38V420.266H1111.67V417.688H1105.93V416.281H1118.84ZM1117.42 421.703V423.109H1107.49V419H1109.23V421.703H1117.42Z" fill="#303030"/>
<path d="M1236.96 417.188V418.594H1233.82V423.391H1232.05V418.594H1228.93V423.391H1227.15V418.594H1224.05V417.188H1236.96ZM1230.47 409.766C1233.47 409.781 1235.57 411 1235.57 412.922C1235.57 414.812 1233.47 416.016 1230.47 416.016C1227.46 416.016 1225.4 414.812 1225.41 412.922C1225.4 411 1227.46 409.781 1230.47 409.766ZM1230.47 411.172C1228.47 411.172 1227.18 411.812 1227.19 412.922C1227.18 414 1228.47 414.641 1230.47 414.641C1232.47 414.641 1233.77 414 1233.77 412.922C1233.77 411.812 1232.47 411.172 1230.47 411.172ZM1241.72 410.25C1243.96 410.234 1245.6 411.656 1245.62 413.656C1245.6 415.672 1243.96 417.078 1241.72 417.078C1239.51 417.078 1237.85 415.672 1237.85 413.656C1237.85 411.656 1239.51 410.234 1241.72 410.25ZM1241.72 411.75C1240.49 411.75 1239.57 412.484 1239.57 413.656C1239.57 414.844 1240.49 415.562 1241.72 415.562C1242.97 415.562 1243.91 414.844 1243.91 413.656C1243.91 412.484 1242.97 411.75 1241.72 411.75ZM1248.91 409.266V423.406H1247.18V409.266H1248.91ZM1237.21 419.031C1239.76 419.031 1243.29 419 1246.33 418.562L1246.47 419.828C1243.3 420.438 1239.91 420.453 1237.43 420.453L1237.21 419.031Z" fill="#303030"/>
<path d="M1368.14 415.75V417.156H1362.55V418.328C1365.08 418.5 1366.57 419.375 1366.58 420.844C1366.57 422.469 1364.74 423.375 1361.69 423.375C1358.61 423.375 1356.77 422.469 1356.77 420.844C1356.77 419.375 1358.27 418.492 1360.83 418.328V417.156H1355.27V415.75H1368.14ZM1361.69 419.641C1359.63 419.656 1358.52 420.062 1358.53 420.844C1358.52 421.625 1359.63 422.047 1361.69 422.047C1363.71 422.047 1364.83 421.625 1364.85 420.844C1364.83 420.062 1363.71 419.656 1361.69 419.641ZM1366.99 409.891V411.281H1362.92C1363.2 412.445 1364.89 413.492 1367.53 413.734L1366.92 415.109C1364.36 414.852 1362.46 413.828 1361.69 412.391C1360.92 413.82 1359.05 414.852 1356.49 415.109L1355.89 413.734C1358.49 413.492 1360.17 412.43 1360.47 411.281H1356.44V409.891H1366.99ZM1381.25 420.25V421.672H1368.35V420.25H1371.33V416.672C1370.21 416.031 1369.53 415.023 1369.53 413.766C1369.52 411.516 1371.74 410.031 1374.77 410.031C1377.82 410.031 1380.03 411.516 1380.03 413.766C1380.03 415 1379.38 415.992 1378.28 416.641V420.25H1381.25ZM1374.77 411.406C1372.66 411.406 1371.22 412.297 1371.24 413.766C1371.22 415.219 1372.66 416.125 1374.77 416.125C1376.88 416.125 1378.33 415.219 1378.33 413.766C1378.33 412.297 1376.88 411.406 1374.77 411.406ZM1373.05 420.25H1376.52V417.297C1375.98 417.422 1375.39 417.484 1374.77 417.484C1374.16 417.484 1373.58 417.422 1373.05 417.312V420.25Z" fill="#303030"/>
<mask id="path-36-inside-5_173_239" fill="white">
<path d="M820 440H1486V487H820V440Z"/>
</mask>
<path d="M820 440H1486V487H820V440Z" fill="white"/>
<path d="M1486 487V486H820V487V488H1486V487Z" fill="#DBDBDB" mask="url(#path-36-inside-5_173_239)"/>
<path d="M841.609 456.266V460.234H843.594V461.672H841.609V466.484H839.875V456.266H841.609ZM837.391 457.438V458.828H832.781V462.672C835.438 462.68 836.914 462.586 838.594 462.234L838.781 463.641C836.938 464 835.281 464.094 832.203 464.094H831.062V457.438H837.391ZM842.172 468.703V470.109H832.562V465.406H834.297V468.703H842.172ZM850.875 457.172C850.875 458.844 852.828 460.562 855.719 460.969L855.062 462.344C852.742 461.984 850.891 460.859 850 459.344C849.086 460.883 847.227 462.016 844.906 462.375L844.25 461.016C847.125 460.578 849.078 458.891 849.094 457.172V456.625H850.875V457.172ZM856.438 463.281V464.688H850.984V467.266H849.266V464.688H843.531V463.281H856.438ZM855.016 468.703V470.109H845.094V466H846.828V468.703H855.016ZM867.766 456.281V460.719H869.734V462.156H867.766V466.828H866.031V456.281H867.766ZM865.016 457.844V459.234H856.641V457.844H859.969V456.266H861.703V457.844H865.016ZM860.828 459.812C862.859 459.812 864.266 460.891 864.281 462.516C864.266 464.125 862.859 465.188 860.828 465.188C858.781 465.188 857.359 464.125 857.359 462.516C857.359 460.891 858.781 459.812 860.828 459.812ZM860.828 461.156C859.75 461.156 859.047 461.656 859.047 462.516C859.047 463.359 859.75 463.859 860.828 463.844C861.906 463.859 862.625 463.359 862.625 462.516C862.625 461.656 861.906 461.156 860.828 461.156ZM868.328 468.703V470.109H858.719V466H860.453V468.703H868.328ZM884.938 456.266V470.391H883.266V456.266H884.938ZM882.078 456.516V469.703H880.438V465.25H878.594C878.07 466.641 877.133 467.43 875.938 467.422C874.094 467.438 872.891 465.484 872.891 462.375C872.891 459.266 874.094 457.344 875.938 457.344C877.133 457.344 878.062 458.125 878.594 459.5H880.438V456.516H882.078ZM875.938 458.984C875.016 458.969 874.469 460.172 874.484 462.375C874.469 464.578 875.016 465.781 875.938 465.766C876.875 465.781 877.453 464.578 877.453 462.375C877.453 460.172 876.875 458.969 875.938 458.984ZM878.938 460.906C879.008 461.359 879.047 461.852 879.047 462.375C879.047 462.891 879.008 463.375 878.953 463.828H880.438V460.906H878.938ZM890.406 457.141C892.641 457.141 894.281 458.547 894.297 460.547C894.281 462.289 893.055 463.562 891.281 463.875V465.938C892.539 465.875 893.812 465.766 895.016 465.594L895.156 466.844C891.984 467.438 888.594 467.469 886.109 467.469L885.891 466.047C886.969 466.047 888.227 466.047 889.547 466V463.875C887.773 463.57 886.531 462.289 886.531 460.547C886.531 458.547 888.188 457.141 890.406 457.141ZM890.406 458.641C889.172 458.641 888.25 459.359 888.25 460.547C888.25 461.719 889.172 462.469 890.406 462.469C891.656 462.469 892.594 461.719 892.594 460.547C892.594 459.359 891.656 458.641 890.406 458.641ZM897.594 456.266V470.406H895.859V456.266H897.594Z" fill="#303030"/>
<path d="M966.247 469.156C963.825 469.156 962.106 467.844 962.06 465.938H964.106C964.169 466.844 965.075 467.438 966.247 467.438C967.497 467.438 968.388 466.75 968.388 465.75C968.388 464.734 967.513 464 966.044 464H965.028V462.438H966.044C967.247 462.438 968.091 461.766 968.075 460.781C968.091 459.828 967.372 459.188 966.263 459.188C965.2 459.188 964.278 459.781 964.247 460.734H962.294C962.341 458.828 964.06 457.531 966.278 457.531C968.575 457.531 970.06 458.938 970.044 460.672C970.06 461.938 969.216 462.859 967.981 463.109V463.203C969.575 463.422 970.481 464.438 970.466 465.859C970.481 467.766 968.7 469.156 966.247 469.156Z" fill="#303030"/>
<path d="M1097.93 457.688V469H1095.88V459.672H1095.82L1093.18 461.359V459.5L1095.98 457.688H1097.93Z" fill="#303030"/>
<path d="M1224.54 469V467.531L1228.54 463.672C1229.68 462.531 1230.27 461.859 1230.27 460.906C1230.27 459.859 1229.44 459.188 1228.33 459.188C1227.16 459.188 1226.41 459.922 1226.43 461.062H1224.49C1224.47 458.922 1226.08 457.531 1228.35 457.531C1230.66 457.531 1232.22 458.906 1232.22 460.812C1232.22 462.094 1231.6 463.125 1229.38 465.219L1227.37 467.219V467.297H1232.4V469H1224.54Z" fill="#303030"/>
<path d="M1359.91 469.156C1357.19 469.156 1355.57 467.047 1355.57 463.344C1355.57 459.656 1357.19 457.531 1359.91 457.531C1362.61 457.531 1364.25 459.656 1364.25 463.344C1364.25 467.047 1362.63 469.156 1359.91 469.156ZM1359.91 467.453C1361.33 467.453 1362.21 466.062 1362.21 463.344C1362.21 460.641 1361.32 459.219 1359.91 459.219C1358.5 459.219 1357.61 460.641 1357.61 463.344C1357.61 466.062 1358.49 467.453 1359.91 467.453Z" fill="#303030"/>
<mask id="path-43-inside-6_173_239" fill="white">
<path d="M820 487H1486V534H820V487Z"/>
</mask>
<path d="M820 487H1486V534H820V487Z" fill="white"/>
<path d="M1486 534V533H820V534V535H1486V534Z" fill="#DBDBDB" mask="url(#path-43-inside-6_173_239)"/>
<path d="M843.359 511.188V512.594H840.219V517.391H838.453V512.594H835.328V517.391H833.547V512.594H830.453V511.188H843.359ZM836.875 503.766C839.875 503.781 841.969 505 841.969 506.922C841.969 508.812 839.875 510.016 836.875 510.016C833.859 510.016 831.797 508.812 831.812 506.922C831.797 505 833.859 503.781 836.875 503.766ZM836.875 505.172C834.875 505.172 833.578 505.812 833.594 506.922C833.578 508 834.875 508.641 836.875 508.641C838.875 508.641 840.172 508 840.172 506.922C840.172 505.812 838.875 505.172 836.875 505.172ZM848.125 504.25C850.359 504.234 852 505.656 852.016 507.656C852 509.672 850.359 511.078 848.125 511.078C845.906 511.078 844.25 509.672 844.25 507.656C844.25 505.656 845.906 504.234 848.125 504.25ZM848.125 505.75C846.891 505.75 845.969 506.484 845.969 507.656C845.969 508.844 846.891 509.562 848.125 509.562C849.375 509.562 850.312 508.844 850.312 507.656C850.312 506.484 849.375 505.75 848.125 505.75ZM855.312 503.266V517.406H853.578V503.266H855.312ZM843.609 513.031C846.156 513.031 849.688 513 852.734 512.562L852.875 513.828C849.703 514.438 846.312 514.453 843.828 514.453L843.609 513.031ZM867.766 503.281V507.719H869.734V509.156H867.766V513.828H866.031V503.281H867.766ZM865.016 504.844V506.234H856.641V504.844H859.969V503.266H861.703V504.844H865.016ZM860.828 506.812C862.859 506.812 864.266 507.891 864.281 509.516C864.266 511.125 862.859 512.188 860.828 512.188C858.781 512.188 857.359 511.125 857.359 509.516C857.359 507.891 858.781 506.812 860.828 506.812ZM860.828 508.156C859.75 508.156 859.047 508.656 859.047 509.516C859.047 510.359 859.75 510.859 860.828 510.844C861.906 510.859 862.625 510.359 862.625 509.516C862.625 508.656 861.906 508.156 860.828 508.156ZM868.328 515.703V517.109H858.719V513H860.453V515.703H868.328ZM884.938 503.266V517.391H883.266V503.266H884.938ZM882.078 503.516V516.703H880.438V512.25H878.594C878.07 513.641 877.133 514.43 875.938 514.422C874.094 514.438 872.891 512.484 872.891 509.375C872.891 506.266 874.094 504.344 875.938 504.344C877.133 504.344 878.062 505.125 878.594 506.5H880.438V503.516H882.078ZM875.938 505.984C875.016 505.969 874.469 507.172 874.484 509.375C874.469 511.578 875.016 512.781 875.938 512.766C876.875 512.781 877.453 511.578 877.453 509.375C877.453 507.172 876.875 505.969 875.938 505.984ZM878.938 507.906C879.008 508.359 879.047 508.852 879.047 509.375C879.047 509.891 879.008 510.375 878.953 510.828H880.438V507.906H878.938ZM890.406 504.141C892.641 504.141 894.281 505.547 894.297 507.547C894.281 509.289 893.055 510.562 891.281 510.875V512.938C892.539 512.875 893.812 512.766 895.016 512.594L895.156 513.844C891.984 514.438 888.594 514.469 886.109 514.469L885.891 513.047C886.969 513.047 888.227 513.047 889.547 513V510.875C887.773 510.57 886.531 509.289 886.531 507.547C886.531 505.547 888.188 504.141 890.406 504.141ZM890.406 505.641C889.172 505.641 888.25 506.359 888.25 507.547C888.25 508.719 889.172 509.469 890.406 509.469C891.656 509.469 892.594 508.719 892.594 507.547C892.594 506.359 891.656 505.641 890.406 505.641ZM897.594 503.266V517.406H895.859V503.266H897.594Z" fill="#303030"/>
<path d="M962.56 516L967.466 506.469V506.391H961.778V504.688H969.575V506.422L964.669 516H962.56Z" fill="#303030"/>
<path d="M1093.34 516V514.531L1097.34 510.672C1098.48 509.531 1099.07 508.859 1099.07 507.906C1099.07 506.859 1098.24 506.188 1097.13 506.188C1095.96 506.188 1095.21 506.922 1095.23 508.062H1093.29C1093.28 505.922 1094.88 504.531 1097.15 504.531C1099.46 504.531 1101.03 505.906 1101.03 507.812C1101.03 509.094 1100.4 510.125 1098.18 512.219L1096.17 514.219V514.297H1101.2V516H1093.34Z" fill="#303030"/>
<path d="M1228.65 516.156C1226.22 516.156 1224.51 514.844 1224.46 512.938H1226.51C1226.57 513.844 1227.47 514.438 1228.65 514.438C1229.9 514.438 1230.79 513.75 1230.79 512.75C1230.79 511.734 1229.91 511 1228.44 511H1227.43V509.438H1228.44C1229.65 509.438 1230.49 508.766 1230.47 507.781C1230.49 506.828 1229.77 506.188 1228.66 506.188C1227.6 506.188 1226.68 506.781 1226.65 507.734H1224.69C1224.74 505.828 1226.46 504.531 1228.68 504.531C1230.97 504.531 1232.46 505.938 1232.44 507.672C1232.46 508.938 1231.62 509.859 1230.38 510.109V510.203C1231.97 510.422 1232.88 511.438 1232.87 512.859C1232.88 514.766 1231.1 516.156 1228.65 516.156Z" fill="#303030"/>
<path d="M1355.74 516V514.531L1359.74 510.672C1360.88 509.531 1361.47 508.859 1361.47 507.906C1361.47 506.859 1360.64 506.188 1359.53 506.188C1358.36 506.188 1357.61 506.922 1357.63 508.062H1355.69C1355.67 505.922 1357.28 504.531 1359.55 504.531C1361.86 504.531 1363.42 505.906 1363.42 507.812C1363.42 509.094 1362.8 510.125 1360.58 512.219L1358.57 514.219V514.297H1363.6V516H1355.74Z" fill="#303030"/>
</g>
</g>
</g>
<defs>
<clipPath id="clip0_173_239">
<rect width="1500" height="568" rx="12" fill="white"/>
</clipPath>
<clipPath id="clip1_173_239">
<rect width="740" height="568" fill="white"/>
</clipPath>
<clipPath id="clip2_173_239">
<path d="M30 42C30 35.3726 35.3726 30 42 30H736V263C736 269.627 730.627 275 724 275H34C31.7909 275 30 273.209 30 271V42Z" fill="white"/>
</clipPath>
<clipPath id="clip3_173_239">
<path d="M30 331C30 324.373 35.3726 319 42 319H736V552C736 558.627 730.627 564 724 564H34C31.7909 564 30 562.209 30 560V331Z" fill="white"/>
</clipPath>
<clipPath id="clip4_173_239">
<rect width="646" height="405" fill="white" transform="translate(820 129)"/>
</clipPath>
<clipPath id="clip5_173_239">
<rect width="646" height="141" fill="white" transform="translate(820 393)"/>
</clipPath>
</defs>
</svg>
