<svg width="40" height="40" viewBox="0 0 40 40" fill="none" xmlns="http://www.w3.org/2000/svg">
<g clip-path="url(#clip0_160_196)">
<path d="M19.9997 3.33398C10.833 3.33398 3.33301 10.834 3.33301 20.0007C3.33301 29.1673 10.833 36.6673 19.9997 36.6673C29.1663 36.6673 36.6663 29.1673 36.6663 20.0007C36.6663 10.834 29.1663 3.33398 19.9997 3.33398ZM21.6663 6.78398C27.683 7.53398 32.4663 12.334 33.2163 18.334H21.6663V6.78398ZM6.66634 20.0007C6.66634 13.234 11.783 7.60065 18.333 6.78398V33.234C11.783 32.4007 6.66634 26.7673 6.66634 20.0007V20.0007ZM21.6663 33.2173V21.6673H33.2163C32.4663 27.684 27.683 32.4673 21.6663 33.2173Z" fill="#8D8D8D"/>
</g>
<defs>
<clipPath id="clip0_160_196">
<rect width="40" height="40" fill="white"/>
</clipPath>
</defs>
</svg>
