<svg width="60" height="60" viewBox="0 0 60 60" fill="none" xmlns="http://www.w3.org/2000/svg">
<g clip-path="url(#clip0_49_159)">
<path d="M22.5 28.1V18.75C22.5 15.3 25.3 12.5 28.75 12.5C32.2 12.5 35 15.3 35 18.75V28.1C38.025 26.075 40 22.65 40 18.75C40 12.525 34.975 7.5 28.75 7.5C22.525 7.5 17.5 12.525 17.5 18.75C17.5 22.65 19.475 26.075 22.5 28.1ZM47.1 39.675L35.75 34.025C35.325 33.85 34.875 33.75 34.4 33.75H32.5V18.75C32.5 16.675 30.825 15 28.75 15C26.675 15 25 16.675 25 18.75V45.6C16 43.7 16.15 43.725 15.825 43.725C15.05 43.725 14.35 44.05 13.85 44.55L11.875 46.55L24.225 58.9C24.9 59.575 25.85 60 26.875 60H43.85C45.725 60 47.175 58.625 47.45 56.8L49.325 43.625C49.35 43.45 49.375 43.275 49.375 43.125C49.375 41.575 48.425 40.225 47.1 39.675Z" fill="#2971BE"/>
</g>
<defs>
<clipPath id="clip0_49_159">
<rect width="60" height="60" fill="white"/>
</clipPath>
</defs>
</svg>
