<svg width="40" height="40" viewBox="0 0 40 40" fill="none" xmlns="http://www.w3.org/2000/svg">
<g clip-path="url(#clip0_160_193)">
<path d="M19.9997 3.33398C10.7997 3.33398 3.33301 10.8007 3.33301 20.0007C3.33301 29.2007 10.7997 36.6673 19.9997 36.6673C29.1997 36.6673 36.6663 29.2007 36.6663 20.0007C36.6663 10.8007 29.1997 3.33398 19.9997 3.33398ZM19.9997 33.334C12.6497 33.334 6.66634 27.3507 6.66634 20.0007C6.66634 12.6507 12.6497 6.66732 19.9997 6.66732C27.3497 6.66732 33.333 12.6507 33.333 20.0007C33.333 27.3507 27.3497 33.334 19.9997 33.334ZM20.5163 18.5673C17.5663 17.8173 16.6163 17.0007 16.6163 15.784C16.6163 14.384 17.933 13.4007 20.1163 13.4007C22.4163 13.4007 23.283 14.5007 23.3497 16.134H26.1997C26.1163 13.9007 24.7497 11.8507 22.0497 11.184V8.33398H18.1663V11.1507C15.6497 11.684 13.633 13.3173 13.633 15.834C13.633 18.8173 16.1163 20.3173 19.733 21.184C22.983 21.9507 23.633 23.1007 23.633 24.3007C23.633 25.184 22.983 26.6173 20.133 26.6173C17.4663 26.6173 16.4163 25.4173 16.2663 23.884H13.3997C13.5663 26.7173 15.6663 28.3173 18.1663 28.834V31.6673H22.0663V28.884C24.5997 28.4007 26.5997 26.9507 26.6163 24.2673C26.5997 20.6007 23.4497 19.334 20.5163 18.5673V18.5673Z" fill="#8D8D8D"/>
</g>
<defs>
<clipPath id="clip0_160_193">
<rect width="40" height="40" fill="white"/>
</clipPath>
</defs>
</svg>
