<svg width="40" height="40" viewBox="0 0 40 40" fill="none" xmlns="http://www.w3.org/2000/svg">
<g clip-path="url(#clip0_160_179)">
<path d="M28.3333 32.034H8.33333V11.6673H20V8.33398H8.33333C6.5 8.33398 5 9.83398 5 11.6673V31.6673C5 33.5007 6.5 35.0007 8.33333 35.0007H28.3333C30.1667 35.0007 31.6667 33.5007 31.6667 31.6673V20.0007H28.3333V32.034Z" fill="#8D8D8D"/>
<path d="M31.6663 3.33398H28.333V8.33398H23.333C23.3497 8.35065 23.333 11.6673 23.333 11.6673H28.333V16.6507C28.3497 16.6673 31.6663 16.6507 31.6663 16.6507V11.6673H36.6663V8.33398H31.6663V3.33398Z" fill="#8D8D8D"/>
<path d="M25.0003 15H11.667V18.3333H25.0003V15Z" fill="#8D8D8D"/>
<path d="M11.667 20V23.3333H25.0003V20H20.0003H11.667Z" fill="#8D8D8D"/>
<path d="M25.0003 25H11.667V28.3333H25.0003V25Z" fill="#8D8D8D"/>
</g>
<defs>
<clipPath id="clip0_160_179">
<rect width="40" height="40" fill="white"/>
</clipPath>
</defs>
</svg>
