<svg width="135" height="135" viewBox="0 0 135 135" fill="none" xmlns="http://www.w3.org/2000/svg">
<path d="M39.375 112.5H95.625M50.625 90V112.5M84.375 90V112.5M50.625 67.5V45M67.5 67.5V61.875M84.375 67.5V56.25M16.875 28.125C16.875 26.6332 17.4676 25.2024 18.5225 24.1475C19.5774 23.0926 21.0082 22.5 22.5 22.5H112.5C113.992 22.5 115.423 23.0926 116.477 24.1475C117.532 25.2024 118.125 26.6332 118.125 28.125V84.375C118.125 85.8668 117.532 87.2976 116.477 88.3525C115.423 89.4074 113.992 90 112.5 90H22.5C21.0082 90 19.5774 89.4074 18.5225 88.3525C17.4676 87.2976 16.875 85.8668 16.875 84.375V28.125Z" stroke="#09539F" stroke-width="3" stroke-linecap="round" stroke-linejoin="round"/>
</svg>
