<svg width="135" height="135" viewBox="0 0 135 135" fill="none" xmlns="http://www.w3.org/2000/svg">
<path d="M45 50.625H90M45 73.125H78.75M73.125 101.25L45 118.125V101.25H33.75C29.2745 101.25 24.9823 99.4721 21.8176 96.3074C18.6529 93.1428 16.875 88.8505 16.875 84.375V39.375C16.875 34.8995 18.6529 30.6073 21.8176 27.4426C24.9823 24.2779 29.2745 22.5 33.75 22.5H101.25C105.726 22.5 110.018 24.2779 113.182 27.4426C116.347 30.6073 118.125 34.8995 118.125 39.375V73.125M123.75 123.75L95.625 95.625M95.625 123.75L123.75 95.625" stroke="#09539F" stroke-width="3" stroke-linecap="round" stroke-linejoin="round"/>
</svg>
