<svg width="135" height="135" viewBox="0 0 135 135" fill="none" xmlns="http://www.w3.org/2000/svg">
<path d="M33.75 50.625H67.5M22.5 28.125H45M33.75 28.125V90C33.75 91.4918 34.3426 92.9226 35.3975 93.9775C36.4524 95.0324 37.8832 95.625 39.375 95.625H67.5M67.5 45C67.5 43.5082 68.0926 42.0774 69.1475 41.0225C70.2024 39.9676 71.6332 39.375 73.125 39.375H106.875C108.367 39.375 109.798 39.9676 110.852 41.0225C111.907 42.0774 112.5 43.5082 112.5 45V56.25C112.5 57.7418 111.907 59.1726 110.852 60.2275C109.798 61.2824 108.367 61.875 106.875 61.875H73.125C71.6332 61.875 70.2024 61.2824 69.1475 60.2275C68.0926 59.1726 67.5 57.7418 67.5 56.25V45ZM67.5 90C67.5 88.5082 68.0926 87.0774 69.1475 86.0225C70.2024 84.9676 71.6332 84.375 73.125 84.375H106.875C108.367 84.375 109.798 84.9676 110.852 86.0225C111.907 87.0774 112.5 88.5082 112.5 90V101.25C112.5 102.742 111.907 104.173 110.852 105.227C109.798 106.282 108.367 106.875 106.875 106.875H73.125C71.6332 106.875 70.2024 106.282 69.1475 105.227C68.0926 104.173 67.5 102.742 67.5 101.25V90Z" stroke="#09539F" stroke-width="3" stroke-linecap="round" stroke-linejoin="round"/>
</svg>
