<svg width="135" height="135" viewBox="0 0 135 135" fill="none" xmlns="http://www.w3.org/2000/svg">
<path d="M50.625 28.125H39.375C36.3913 28.125 33.5298 29.3103 31.42 31.42C29.3103 33.5298 28.125 36.3913 28.125 39.375V106.875C28.125 109.859 29.3103 112.72 31.42 114.83C33.5298 116.94 36.3913 118.125 39.375 118.125H95.625C98.6087 118.125 101.47 116.94 103.58 114.83C105.69 112.72 106.875 109.859 106.875 106.875V39.375C106.875 36.3913 105.69 33.5298 103.58 31.42C101.47 29.3103 98.6087 28.125 95.625 28.125H84.375M50.625 28.125C50.625 25.1413 51.8103 22.2798 53.9201 20.17C56.0298 18.0603 58.8913 16.875 61.875 16.875H73.125C76.1087 16.875 78.9702 18.0603 81.0799 20.17C83.1897 22.2798 84.375 25.1413 84.375 28.125M50.625 28.125C50.625 31.1087 51.8103 33.9702 53.9201 36.08C56.0298 38.1897 58.8913 39.375 61.875 39.375H73.125C76.1087 39.375 78.9702 38.1897 81.0799 36.08C83.1897 33.9702 84.375 31.1087 84.375 28.125M50.625 95.625V67.5M67.5 95.625V90M84.375 95.625V78.75" stroke="#09539F" stroke-width="3" stroke-linecap="round" stroke-linejoin="round"/>
</svg>
