<svg width="135" height="135" viewBox="0 0 135 135" fill="none" xmlns="http://www.w3.org/2000/svg">
<path d="M99.6919 41.6815C93.9287 35.7734 86.6503 31.566 78.6544 29.5203M56.3175 29.5203C48.1891 31.6049 40.8063 35.9227 35.0044 41.9853M24.4238 60.0696C23.145 64.3015 22.4968 68.6988 22.5 73.1196C22.5 77.2709 23.0625 81.2928 24.1144 85.1121M35.1394 104.395C40.913 110.377 48.2322 114.641 56.2838 116.713M78.7838 116.713C86.8086 114.636 94.1029 110.38 99.8606 104.417M110.897 85.1234C111.971 81.2185 112.514 77.1865 112.511 73.1365C112.511 68.839 111.909 64.6821 110.784 60.7446M56.25 28.125C56.25 31.1087 57.4353 33.9702 59.5451 36.08C61.6548 38.1897 64.5163 39.375 67.5 39.375C70.4837 39.375 73.3452 38.1897 75.4549 36.08C77.5647 33.9702 78.75 31.1087 78.75 28.125C78.75 25.1413 77.5647 22.2798 75.4549 20.17C73.3452 18.0603 70.4837 16.875 67.5 16.875C64.5163 16.875 61.6548 18.0603 59.5451 20.17C57.4353 22.2798 56.25 25.1413 56.25 28.125ZM16.875 95.625C16.875 98.6087 18.0603 101.47 20.17 103.58C22.2798 105.69 25.1413 106.875 28.125 106.875C31.1087 106.875 33.9702 105.69 36.08 103.58C38.1897 101.47 39.375 98.6087 39.375 95.625C39.375 92.6413 38.1897 89.7798 36.08 87.6701C33.9702 85.5603 31.1087 84.375 28.125 84.375C25.1413 84.375 22.2798 85.5603 20.17 87.6701C18.0603 89.7798 16.875 92.6413 16.875 95.625ZM95.625 95.625C95.625 98.6087 96.8103 101.47 98.9201 103.58C101.03 105.69 103.891 106.875 106.875 106.875C109.859 106.875 112.72 105.69 114.83 103.58C116.94 101.47 118.125 98.6087 118.125 95.625C118.125 92.6413 116.94 89.7798 114.83 87.6701C112.72 85.5603 109.859 84.375 106.875 84.375C103.891 84.375 101.03 85.5603 98.9201 87.6701C96.8103 89.7798 95.625 92.6413 95.625 95.625Z" stroke="#09539F" stroke-width="3" stroke-linecap="round" stroke-linejoin="round"/>
</svg>
