<svg width="135" height="135" viewBox="0 0 135 135" fill="none" xmlns="http://www.w3.org/2000/svg">
<path d="M22.5 45V33.75C22.5 30.7663 23.6853 27.9048 25.795 25.795C27.9048 23.6853 30.7663 22.5 33.75 22.5H45M22.5 90V101.25C22.5 104.234 23.6853 107.095 25.795 109.205C27.9048 111.315 30.7663 112.5 33.75 112.5H45M90 22.5H101.25C104.234 22.5 107.095 23.6853 109.205 25.795C111.315 27.9048 112.5 30.7663 112.5 33.75V45M90 112.5H101.25C104.234 112.5 107.095 111.315 109.205 109.205C111.315 107.095 112.5 104.234 112.5 101.25V90M50.625 56.25H50.6813M84.375 56.25H84.4313M53.4375 84.6591C55.2706 82.7883 57.4585 81.302 59.8732 80.2873C62.2879 79.2726 64.8808 78.75 67.5 78.75C70.1192 78.75 72.7121 79.2726 75.1268 80.2873C77.5415 81.302 79.7294 82.7883 81.5625 84.6591" stroke="#09539F" stroke-width="3" stroke-linecap="round" stroke-linejoin="round"/>
</svg>
