<svg width="208" height="61" viewBox="0 0 208 61" fill="none" xmlns="http://www.w3.org/2000/svg">
<g clip-path="url(#clip0_36_1104)">
<path d="M94.4882 33.2765C94.4882 34.881 93.7794 35.6862 92.3558 35.6862C91.7071 35.6862 90.9622 35.3462 90.1393 34.6603L72.0225 19.379V34.1771C72.0225 34.8571 71.7402 35.2866 71.1816 35.4595C71.0194 35.4834 70.7971 35.5013 70.5208 35.5192C70.2445 35.5371 69.9021 35.543 69.5056 35.543C68.5986 35.543 68.1421 35.0897 68.1421 34.1712V16.5458C68.1421 15.0188 68.8089 14.2554 70.1364 14.2554C70.9773 14.2554 71.8363 14.6252 72.7253 15.3648L90.6078 30.4731V15.7644C90.6078 15.0964 90.8841 14.6729 91.4427 14.4999C91.6049 14.4761 91.8272 14.4582 92.1035 14.4403C92.3798 14.4224 92.7162 14.4164 93.1127 14.4164C94.0257 14.4164 94.4882 14.8697 94.4882 15.7704V33.2705V33.2765Z" fill="white"/>
<path d="M107.565 24.8367C107.565 26.4591 106.244 27.7713 104.61 27.7713C102.976 27.7713 101.654 26.4591 101.654 24.8367C101.654 23.2143 102.976 21.9021 104.61 21.9021C106.244 21.9021 107.565 23.2143 107.565 24.8367Z" fill="white"/>
<path d="M138.35 16.1939C138.35 17.1064 137.894 17.5657 136.987 17.5657H123.171C119.819 17.5657 118.143 18.2278 118.143 19.5579V30.0138C118.143 31.5885 119.999 32.3758 123.717 32.3758H136.908C137.852 32.3758 138.326 32.9007 138.326 33.9564C138.326 35.0122 137.852 35.549 136.908 35.549H123.717C121.933 35.549 120.654 35.4774 119.873 35.3402C119.026 35.1792 118.137 34.869 117.218 34.4038C116.167 33.861 115.434 33.2944 115.019 32.7039C114.521 32.0358 114.269 31.159 114.269 30.0854V19.5758C114.269 18.2457 114.881 17.1124 116.101 16.176C117.128 15.4006 118.371 14.8816 119.837 14.6132C120.209 14.5536 120.666 14.5059 121.2 14.476C121.735 14.4403 122.372 14.4224 123.105 14.4224H136.993C137.9 14.4224 138.356 15.0129 138.356 16.1939H138.35Z" fill="white"/>
<path d="M166.24 30.3836C166.24 32.2804 165.297 33.6701 163.411 34.5469C162.071 35.2209 160.293 35.555 158.064 35.555H151.931C149.907 35.555 148.075 35.215 146.429 34.535C144.405 33.6344 143.39 32.2506 143.39 30.3896V24.264C143.39 22.403 144.399 20.9894 146.411 20.0291C147.889 19.2895 149.727 18.9197 151.913 18.9197H158.064C163.513 18.9197 166.24 20.6912 166.24 24.2282V30.3836ZM162.504 30.3836V23.9836C162.504 22.6654 160.99 22.0034 157.962 22.0034H151.973C150.856 22.0034 149.853 22.1406 148.97 22.4209C147.715 22.8265 147.084 23.4408 147.084 24.258V30.3836C147.084 31.171 147.727 31.7495 149.006 32.1193C149.853 32.3639 150.85 32.4832 151.991 32.4832H157.98C158.947 32.4832 159.86 32.346 160.725 32.0657C161.915 31.6839 162.504 31.1233 162.504 30.3836Z" fill="white"/>
<path d="M181.245 20.6495C181.245 21.5621 180.699 22.0214 179.605 22.0214C179.455 22.0214 179.233 22.0154 178.951 21.9975C178.668 21.9796 178.446 21.9737 178.296 21.9737C175.467 21.9737 174.049 22.6715 174.049 24.0732V34.1832C174.049 34.8572 173.791 35.2747 173.28 35.4477C173.07 35.5193 172.535 35.5491 171.67 35.5491C170.805 35.5491 170.361 35.0898 170.361 34.1593V24.0672C170.361 21.8961 171.484 20.4169 173.731 19.6415C175.106 19.1584 177.149 18.9138 179.864 18.9138C180.783 18.9138 181.245 19.4924 181.245 20.6495Z" fill="white"/>
<path d="M207.441 27.5206C207.441 28.5286 207.099 29.0296 206.414 29.0296H188.093V29.1489C188.093 30.7236 189.024 31.7316 190.886 32.1849C191.295 32.2744 191.884 32.3519 192.658 32.3996C193.433 32.4533 194.418 32.4772 195.62 32.4772C196.527 32.4772 196.983 33.0438 196.983 34.1771C196.983 35.0897 196.533 35.549 195.62 35.549C194.382 35.549 193.373 35.543 192.586 35.5251C191.799 35.5072 191.205 35.4774 190.796 35.4297C188.772 35.2209 187.282 34.7497 186.321 34.0101C184.958 32.9603 184.279 31.7197 184.279 30.3001V24.1804C184.279 22.2598 185.33 20.8402 187.42 19.9157C188.85 19.2477 190.748 18.9077 193.115 18.9077H199.999C201.933 18.9077 203.531 19.2238 204.804 19.8621C206.564 20.6732 207.441 21.89 207.441 23.5243V27.5325V27.5206ZM203.843 25.8565V23.8106C203.843 22.564 201.344 21.9377 196.353 21.9377C193.403 21.9377 191.385 22.0391 190.292 22.2479C188.742 22.5342 187.967 23.1068 187.967 23.9478V25.8565H203.843Z" fill="white"/>
<path d="M71.6078 40.5235H73.0135V48.0032H71.5478L70.4545 45.337C70.2743 44.9075 70.1061 44.4542 69.9499 43.983C69.7938 43.5118 69.6256 42.975 69.4514 42.3606H69.4334C69.4694 42.808 69.4934 43.1897 69.5175 43.5118C69.5415 43.8339 69.5595 44.1619 69.5835 44.496C69.6075 44.9254 69.6316 45.3191 69.6376 45.671C69.6496 46.0169 69.6556 46.3271 69.6556 46.5955V48.0032H68.25V40.5235H69.7097L70.8029 43.2434C70.9891 43.6907 71.1633 44.1441 71.3195 44.6153C71.4757 45.0865 71.6379 45.6173 71.8061 46.2138H71.8241C71.764 45.4086 71.716 44.6988 71.6859 44.0904C71.6379 43.2553 71.6138 42.5515 71.6138 41.9849V40.5176L71.6078 40.5235Z" fill="white"/>
<path d="M75.7407 44.311C75.7407 42.9212 76.3775 42.2234 77.6509 42.2234C78.0954 42.2234 78.4498 42.2771 78.7201 42.3904C78.9904 42.4978 79.1947 42.6588 79.3268 42.8676C79.459 43.0763 79.5491 43.3268 79.5911 43.6131C79.6332 43.9054 79.6572 44.2633 79.6572 44.6927V45.4502H77.0442V46.2674C77.0442 46.6074 77.1103 46.834 77.2244 46.9593C77.3386 47.0845 77.5067 47.1442 77.729 47.1442C77.9513 47.1442 78.1074 47.0666 78.1975 46.8996C78.2876 46.7386 78.3357 46.4642 78.3357 46.0884H79.6392C79.6392 46.7684 79.495 47.2814 79.2007 47.6214C78.9064 47.9673 78.4498 48.1403 77.8311 48.1403C77.0923 48.1403 76.5637 47.9554 76.2333 47.5856C75.9029 47.2158 75.7407 46.6133 75.7407 45.7783V44.2991V44.311ZM78.3477 44.4601V43.971C78.3477 43.6847 78.2936 43.4879 78.1975 43.3805C78.1014 43.2732 77.9272 43.2195 77.6629 43.2195C77.3986 43.2195 77.2244 43.297 77.1523 43.4521C77.0803 43.6072 77.0442 43.8637 77.0442 44.2275V44.4541H78.3477V44.4601Z" fill="white"/>
<path d="M86.1987 45.8261C86.2648 46.1959 86.3069 46.6015 86.3309 47.0309H86.3609C86.3609 46.9713 86.3609 46.8818 86.3729 46.7685C86.3789 46.6551 86.391 46.518 86.409 46.3629C86.427 46.2138 86.439 46.0885 86.451 45.9931C86.463 45.8976 86.469 45.8261 86.4751 45.7843L86.9075 42.3726H88.223L87.0757 47.9972H85.6521L85.2196 45.7247C85.1595 45.4026 85.1055 44.9314 85.0454 44.3051H85.0034C84.9853 44.7942 84.9373 45.2356 84.8712 45.6412L84.4688 47.9972H83.0091L81.8438 42.3726H83.2193L83.6819 45.8022C83.6879 45.838 83.6939 45.9036 83.7059 45.999C83.7179 46.1004 83.7299 46.2257 83.7479 46.3808C83.7659 46.5359 83.778 46.6671 83.784 46.7864C83.79 46.9057 83.796 46.9892 83.796 47.0488H83.814C83.832 46.6134 83.8801 46.2138 83.9462 45.844L84.4868 42.3726H85.562L86.1927 45.8261H86.1987Z" fill="white"/>
<path d="M99.1073 45.337C99.1073 45.337 99.1073 45.4264 99.0953 45.5457C99.0833 45.665 99.0773 45.7366 99.0773 45.7664C99.0593 46.1303 99.0112 46.4583 98.9331 46.7446C98.855 47.0309 98.7349 47.2814 98.5787 47.4961C98.4165 47.7109 98.2063 47.8779 97.948 47.9972C97.6897 48.1165 97.3653 48.1761 96.9869 48.1761C96.4283 48.1761 95.9837 48.0926 95.6474 47.9256C95.311 47.7586 95.0647 47.526 94.9025 47.2277C94.7403 46.9295 94.6382 46.5836 94.5901 46.1959C94.5421 45.8082 94.5181 45.3191 94.5181 44.7226V43.6549C94.5361 43.0764 94.5721 42.6052 94.6262 42.2354C94.6802 41.8656 94.7824 41.5375 94.9445 41.2512C95.1007 40.9589 95.347 40.7383 95.6714 40.5772C96.0018 40.4162 96.4343 40.3386 96.9749 40.3386C98.2483 40.3565 98.9331 41.0007 99.0352 42.2712C99.0532 42.462 99.0653 42.6529 99.0653 42.8378H97.6777C97.6717 42.796 97.6657 42.7185 97.6597 42.5992C97.6476 42.4203 97.6296 42.2771 97.6116 42.1638C97.5936 42.0564 97.5575 41.9431 97.5155 41.8298C97.4734 41.7164 97.4074 41.627 97.3173 41.5614C97.2332 41.4958 97.119 41.46 96.9749 41.46C96.7466 41.46 96.5664 41.5136 96.4282 41.615C96.2901 41.7164 96.188 41.8596 96.1219 42.0326C96.0558 42.2115 96.0138 42.4024 95.9897 42.6111C95.9717 42.8199 95.9597 43.0644 95.9597 43.3448V45.4205C95.9597 45.6233 95.9717 45.8141 95.9897 45.9871C96.0078 46.1601 96.0558 46.3271 96.1219 46.4881C96.188 46.6492 96.2901 46.7864 96.4282 46.8878C96.5664 46.9892 96.7466 47.0428 96.9749 47.0428C97.1371 47.0428 97.2632 46.9951 97.3533 46.8997C97.4494 46.8043 97.5155 46.679 97.5635 46.5299C97.6116 46.3808 97.6416 46.2257 97.6537 46.0706C97.6657 45.9155 97.6717 45.7426 97.6717 45.5577C97.6777 45.4503 97.6837 45.3728 97.6837 45.331H99.1013L99.1073 45.337Z" fill="white"/>
<path d="M102.561 47.9973C102.303 47.8959 102.099 47.7289 101.961 47.5141C101.817 47.2934 101.721 47.0131 101.666 46.6791C101.612 46.3391 101.588 45.9096 101.588 45.3907C101.588 44.7823 101.612 44.3052 101.642 43.9652C101.672 43.6252 101.745 43.321 101.865 43.0586C101.985 42.7902 102.183 42.5874 102.459 42.4442C102.736 42.3011 103.108 42.2295 103.583 42.2295C104.057 42.2295 104.418 42.3011 104.688 42.4442C104.958 42.5874 105.15 42.7902 105.271 43.0586C105.391 43.327 105.469 43.6312 105.499 43.9831C105.529 44.329 105.541 44.8062 105.541 45.3967C105.541 45.9216 105.517 46.351 105.469 46.691C105.421 47.025 105.325 47.3054 105.186 47.5261C105.048 47.7467 104.85 47.9078 104.592 48.0092C104.334 48.1106 103.997 48.1643 103.583 48.1643C103.168 48.1643 102.82 48.1106 102.555 48.0092L102.561 47.9973ZM102.892 46.1661C102.892 46.5479 102.934 46.8043 103.018 46.9415C103.102 47.0847 103.288 47.1503 103.589 47.1503C103.889 47.1503 104.051 47.0787 104.123 46.9415C104.201 46.8043 104.237 46.5419 104.237 46.1661V44.2932C104.237 44.1143 104.237 43.9712 104.219 43.8578C104.207 43.7505 104.183 43.6431 104.141 43.5417C104.099 43.4403 104.033 43.3628 103.943 43.3091C103.853 43.2554 103.727 43.2256 103.577 43.2256C103.408 43.2256 103.276 43.2554 103.186 43.315C103.09 43.3747 103.024 43.4522 102.982 43.5477C102.94 43.6431 102.91 43.7445 102.904 43.8578C102.892 43.9652 102.892 44.1143 102.892 44.2932V46.1661Z" fill="white"/>
<path d="M109.445 43.3746H109.463C109.541 43.1778 109.625 43.0107 109.703 42.8855C109.782 42.7602 109.872 42.6588 109.974 42.5753C110.124 42.4501 110.25 42.3666 110.37 42.3367C110.49 42.3069 110.611 42.2831 110.737 42.2771H110.785V43.81C110.743 43.81 110.695 43.81 110.641 43.7981H110.508C110.196 43.7981 109.944 43.8697 109.764 44.0188C109.583 44.1679 109.487 44.4065 109.481 44.7464V47.9972H108.178V42.3725H109.433V43.3686L109.445 43.3746Z" fill="white"/>
<path d="M112.965 44.311C112.965 42.9212 113.602 42.2234 114.876 42.2234C115.314 42.2234 115.674 42.2771 115.945 42.3904C116.215 42.4978 116.419 42.6588 116.551 42.8676C116.684 43.0763 116.774 43.3268 116.816 43.6131C116.858 43.9054 116.882 44.2633 116.882 44.6927V45.4502H114.269V46.2674C114.275 46.6074 114.335 46.834 114.449 46.9593C114.563 47.0845 114.731 47.1442 114.954 47.1442C115.176 47.1442 115.332 47.0666 115.422 46.8996C115.512 46.7386 115.56 46.4642 115.56 46.0884H116.864C116.864 46.7684 116.72 47.2814 116.425 47.6214C116.137 47.9673 115.674 48.1403 115.056 48.1403C114.317 48.1403 113.788 47.9554 113.458 47.5856C113.128 47.2158 112.965 46.6133 112.965 45.7783V44.2991V44.311ZM115.578 44.4601V43.971C115.572 43.6847 115.524 43.4879 115.428 43.3805C115.332 43.2732 115.158 43.2195 114.894 43.2195C114.629 43.2195 114.455 43.297 114.383 43.4521C114.311 43.6072 114.275 43.8637 114.275 44.2275V44.4541H115.578V44.4601Z" fill="white"/>
<path d="M126.859 40.5234H128.367L126.739 48.0031H124.859L123.189 40.5234H124.697L125.58 45.319C125.646 45.6649 125.706 46.0884 125.754 46.5954C125.754 46.6133 125.76 46.6789 125.772 46.7863C125.802 46.9771 125.814 47.1203 125.814 47.2157H125.832C125.832 47.1203 125.844 46.9771 125.874 46.7863C125.886 46.6789 125.892 46.6133 125.892 46.5954C125.94 46.0884 125.994 45.6649 126.066 45.319L126.859 40.5234Z" fill="white"/>
<path d="M133.082 48.0032C133.022 47.8839 132.992 47.7408 132.992 47.5857C132.992 47.5797 132.992 47.5499 133.004 47.5082V47.4247H132.986C132.824 47.6692 132.65 47.8481 132.464 47.9615C132.265 48.0867 132.055 48.1523 131.839 48.1523C131.31 48.1523 130.926 48.0152 130.686 47.7408C130.445 47.4664 130.325 47.0429 130.325 46.4644C130.325 46.1721 130.367 45.9216 130.463 45.7128C130.553 45.5041 130.68 45.3311 130.842 45.1879C131.004 45.0507 131.184 44.9315 131.37 44.842C131.557 44.7466 131.809 44.6392 132.121 44.5139C132.157 44.502 132.199 44.4781 132.265 44.4543C132.5 44.3529 132.668 44.2515 132.776 44.1382C132.884 44.0308 132.938 43.8936 132.938 43.7326C132.938 43.667 132.926 43.5954 132.908 43.5119C132.884 43.3926 132.818 43.315 132.728 43.2793C132.632 43.2435 132.494 43.2256 132.295 43.2256C132.025 43.2256 131.845 43.2912 131.755 43.4224C131.659 43.5536 131.617 43.7624 131.617 44.0427H130.373C130.373 43.7505 130.403 43.494 130.457 43.2793C130.511 43.0645 130.614 42.8737 130.764 42.7186C130.914 42.5575 131.112 42.4383 131.376 42.3547C131.635 42.2712 131.965 42.2295 132.35 42.2295C132.734 42.2295 133.076 42.2712 133.329 42.3667C133.581 42.4561 133.767 42.5754 133.899 42.7305C134.025 42.8856 134.11 43.0526 134.158 43.2435C134.2 43.4343 134.224 43.6491 134.224 43.8996V47.2219C134.224 47.4724 134.26 47.7348 134.332 48.0092H133.094L133.082 48.0032ZM132.902 45.0388C132.824 45.0925 132.71 45.1641 132.572 45.2595C132.253 45.4683 132.007 45.6293 131.851 45.7605C131.761 45.8321 131.707 45.9275 131.677 46.0468C131.647 46.1602 131.629 46.2914 131.629 46.4405C131.629 46.6731 131.677 46.8521 131.767 46.9773C131.857 47.1026 132.019 47.1622 132.247 47.1622C132.404 47.1622 132.524 47.1264 132.614 47.0549C132.704 46.9833 132.77 46.8878 132.812 46.7686C132.854 46.6493 132.878 46.53 132.884 46.3987C132.896 46.2675 132.902 46.1124 132.902 45.9335C132.908 45.7963 132.914 45.7009 132.914 45.6532V45.0448L132.902 45.0388Z" fill="white"/>
<path d="M137.167 48.0031V40.5234H138.47V48.0031H137.167Z" fill="white"/>
<path d="M143.81 47.1622H143.792C143.69 47.4962 143.546 47.7407 143.348 47.9018C143.149 48.0628 142.891 48.1463 142.579 48.1523C142.092 48.1523 141.756 48.033 141.582 47.8004C141.407 47.5678 141.317 47.192 141.317 46.691V42.3845H142.621V46.2377C142.621 46.4226 142.633 46.5717 142.645 46.685C142.663 46.7983 142.693 46.8997 142.747 46.9832C142.861 47.1025 142.993 47.1622 143.149 47.1622C143.288 47.1622 143.402 47.1264 143.486 47.0608C143.57 46.9952 143.63 46.9057 143.666 46.7983C143.702 46.691 143.726 46.5776 143.738 46.4583C143.75 46.345 143.756 46.2019 143.756 46.0349V42.3845H145.06V48.0091H143.816V47.1681L143.81 47.1622Z" fill="white"/>
<path d="M147.787 44.311C147.787 42.9212 148.424 42.2234 149.697 42.2234C150.142 42.2234 150.496 42.2771 150.767 42.3904C151.037 42.4978 151.241 42.6588 151.373 42.8676C151.505 43.0763 151.595 43.3268 151.638 43.6131C151.68 43.9054 151.704 44.2633 151.704 44.6927V45.4502H149.091V46.2674C149.097 46.6074 149.157 46.834 149.271 46.9593C149.385 47.0845 149.553 47.1442 149.775 47.1442C149.998 47.1442 150.154 47.0666 150.244 46.8996C150.334 46.7386 150.382 46.4642 150.382 46.0884H151.686C151.686 46.7684 151.541 47.2814 151.247 47.6214C150.959 47.9673 150.496 48.1403 149.877 48.1403C149.139 48.1403 148.61 47.9554 148.28 47.5856C147.949 47.2158 147.787 46.6133 147.787 45.7783V44.2991V44.311ZM150.4 44.4601V43.971C150.394 43.6847 150.346 43.4879 150.25 43.3805C150.154 43.2732 149.98 43.2195 149.715 43.2195C149.451 43.2195 149.277 43.297 149.205 43.4521C149.133 43.6072 149.097 43.8637 149.097 44.2275V44.4541H150.4V44.4601Z" fill="white"/>
<path d="M161.357 42.7959C161.357 42.3665 161.303 42.0325 161.194 41.8118C161.086 41.5851 160.864 41.4718 160.528 41.4718C160.281 41.4718 160.089 41.5255 159.957 41.6388C159.825 41.7462 159.759 41.9251 159.759 42.1696C159.759 42.4142 159.819 42.617 159.945 42.7542C160.071 42.8914 160.269 43.0464 160.546 43.2254L160.564 43.2373C160.732 43.3447 160.888 43.4461 161.026 43.5355C161.164 43.631 161.309 43.7264 161.459 43.8278C161.609 43.9292 161.753 44.0366 161.903 44.1499C162.053 44.2632 162.174 44.3646 162.27 44.4601C162.504 44.6867 162.666 44.9193 162.762 45.1639C162.858 45.4084 162.9 45.6947 162.9 46.0287C162.9 46.7206 162.69 47.2515 162.27 47.6273C161.849 47.9971 161.285 48.1879 160.582 48.1879C160.173 48.1879 159.819 48.1343 159.525 48.0209C159.23 47.9136 158.99 47.7585 158.81 47.5557C158.629 47.3589 158.497 47.1203 158.413 46.8399C158.329 46.5656 158.287 46.2554 158.287 45.9095V45.3607H159.693V45.8021C159.693 46.2137 159.765 46.5238 159.897 46.7385C160.035 46.9533 160.263 47.0606 160.576 47.0606C161.158 47.0606 161.453 46.7684 161.453 46.1838C161.453 45.9691 161.405 45.7842 161.315 45.6232C161.218 45.4621 161.08 45.319 160.894 45.1937C160.732 45.0684 160.48 44.8895 160.131 44.6629C159.771 44.4302 159.482 44.2274 159.26 44.0545C159.044 43.8815 158.846 43.6847 158.672 43.464C158.431 43.1121 158.311 42.7303 158.311 42.3188C158.311 41.6746 158.497 41.1855 158.864 40.8455C159.23 40.5115 159.783 40.3445 160.522 40.3445C161.032 40.3445 161.435 40.422 161.741 40.589C162.047 40.7501 162.27 40.9588 162.402 41.2034C162.54 41.4479 162.624 41.6925 162.66 41.9311C162.696 42.1697 162.708 42.4321 162.708 42.7184V42.7959H161.351H161.357Z" fill="white"/>
<path d="M166.402 47.9973C166.144 47.8959 165.94 47.7289 165.801 47.5141C165.663 47.2934 165.561 47.0131 165.513 46.6791C165.459 46.3391 165.435 45.9096 165.435 45.3907C165.441 44.7823 165.459 44.3052 165.489 43.9652C165.519 43.6252 165.597 43.321 165.717 43.0586C165.838 42.7902 166.036 42.5874 166.312 42.4442C166.588 42.3011 166.961 42.2295 167.435 42.2295C167.91 42.2295 168.27 42.3011 168.541 42.4442C168.811 42.5874 169.003 42.7902 169.123 43.0586C169.243 43.327 169.321 43.6312 169.352 43.9831C169.382 44.329 169.4 44.8062 169.4 45.3967C169.4 45.9216 169.376 46.351 169.322 46.691C169.273 47.025 169.177 47.3054 169.039 47.5261C168.901 47.7467 168.703 47.9078 168.445 48.0092C168.186 48.1106 167.85 48.1643 167.435 48.1643C167.021 48.1643 166.672 48.1106 166.408 48.0092L166.402 47.9973ZM166.733 46.1661C166.733 46.5479 166.775 46.8043 166.859 46.9415C166.943 47.0847 167.129 47.1503 167.423 47.1503C167.718 47.1503 167.886 47.0787 167.964 46.9415C168.042 46.8043 168.078 46.5419 168.078 46.1661V44.2932C168.078 44.1143 168.078 43.9712 168.066 43.8578C168.054 43.7505 168.03 43.6431 167.988 43.5417C167.946 43.4403 167.886 43.3628 167.79 43.3091C167.7 43.2554 167.58 43.2256 167.423 43.2256C167.255 43.2256 167.123 43.2554 167.033 43.315C166.937 43.3747 166.871 43.4522 166.829 43.5477C166.787 43.6431 166.757 43.7445 166.751 43.8578C166.739 43.9652 166.733 44.1143 166.733 44.2932V46.1661Z" fill="white"/>
<path d="M172.169 48.0031V40.5234H173.472V48.0031H172.169Z" fill="white"/>
<path d="M178.806 47.1622H178.788C178.686 47.4962 178.536 47.7407 178.344 47.9018C178.146 48.0628 177.887 48.1463 177.575 48.1523C177.082 48.1523 176.752 48.033 176.578 47.8004C176.404 47.5678 176.313 47.192 176.313 46.691V42.3845H177.617V46.2377C177.617 46.4226 177.623 46.5717 177.641 46.685C177.659 46.7983 177.695 46.8997 177.743 46.9832C177.857 47.1025 177.989 47.1622 178.146 47.1622C178.284 47.1622 178.398 47.1264 178.482 47.0608C178.566 46.9952 178.626 46.9057 178.662 46.7983C178.698 46.691 178.722 46.5776 178.734 46.4583C178.746 46.345 178.752 46.2019 178.752 46.0349V42.3845H180.056V48.0091H178.812V47.1681L178.806 47.1622Z" fill="white"/>
<path d="M184.783 48.021C184.513 48.0567 184.297 48.0687 184.123 48.0687C183.768 48.0687 183.48 48.0031 183.258 47.8659C183.035 47.7287 182.927 47.4841 182.927 47.1322V43.3208H182.393V42.3725H182.915V40.8276H184.231V42.3725H184.783V43.3208H184.231V46.8101C184.243 46.8817 184.285 46.9354 184.351 46.9652C184.417 46.995 184.501 47.0129 184.591 47.0129H184.699C184.741 47.0129 184.765 47.001 184.777 47.001V48.021H184.783Z" fill="white"/>
<path d="M187.294 41.6985V40.5234H188.598V41.6985H187.294ZM187.294 48.0031V42.3784H188.598V48.0031H187.294Z" fill="white"/>
<path d="M192.358 47.9973C192.094 47.8959 191.895 47.7289 191.757 47.5141C191.619 47.2934 191.517 47.0131 191.463 46.6791C191.409 46.3391 191.385 45.9096 191.385 45.3907C191.391 44.7823 191.409 44.3052 191.439 43.9652C191.469 43.6252 191.541 43.321 191.661 43.0586C191.781 42.7902 191.979 42.5874 192.256 42.4442C192.532 42.3011 192.905 42.2295 193.379 42.2295C193.854 42.2295 194.214 42.3011 194.484 42.4442C194.755 42.5874 194.947 42.7902 195.067 43.0586C195.187 43.327 195.265 43.6312 195.295 43.9831C195.325 44.329 195.337 44.8062 195.337 45.3967C195.337 45.9216 195.313 46.351 195.265 46.691C195.217 47.025 195.121 47.3054 194.983 47.5261C194.845 47.7467 194.646 47.9078 194.388 48.0092C194.13 48.1106 193.794 48.1643 193.379 48.1643C192.965 48.1643 192.616 48.1106 192.352 48.0092L192.358 47.9973ZM192.694 46.1661C192.694 46.5479 192.736 46.8043 192.82 46.9415C192.905 47.0847 193.091 47.1503 193.385 47.1503C193.679 47.1503 193.848 47.0787 193.92 46.9415C193.998 46.8043 194.034 46.5419 194.034 46.1661V44.2932C194.034 44.1143 194.034 43.9712 194.016 43.8578C194.004 43.7505 193.98 43.6431 193.944 43.5417C193.902 43.4403 193.836 43.3628 193.745 43.3091C193.655 43.2554 193.535 43.2256 193.379 43.2256C193.211 43.2256 193.079 43.2554 192.989 43.315C192.892 43.3747 192.826 43.4522 192.784 43.5477C192.742 43.6431 192.712 43.7445 192.706 43.8578C192.694 43.9652 192.694 44.1143 192.694 44.2932V46.1661Z" fill="white"/>
<path d="M199.302 42.9512H199.32C199.386 42.7961 199.47 42.6708 199.572 42.5694C199.674 42.468 199.776 42.3965 199.891 42.3428C199.999 42.2891 200.107 42.2593 200.209 42.2414C200.311 42.2235 200.407 42.2175 200.503 42.2175C200.894 42.2175 201.206 42.3368 201.446 42.5694C201.687 42.8021 201.807 43.1659 201.807 43.655V47.9972H200.503V44.2455C200.503 43.9353 200.467 43.7027 200.395 43.5536C200.323 43.4045 200.173 43.3269 199.951 43.321C199.722 43.321 199.56 43.4105 199.458 43.5894C199.356 43.7683 199.308 44.0248 199.308 44.3588V48.0032H198.004V42.3786H199.308V42.9571L199.302 42.9512Z" fill="white"/>
<path d="M205.507 46.1481C205.495 46.2555 205.489 46.3569 205.489 46.4464C205.489 46.7506 205.543 46.9474 205.651 47.0309C205.759 47.1144 205.916 47.1561 206.114 47.1561C206.276 47.1561 206.408 47.1084 206.516 47.019C206.624 46.9235 206.678 46.8102 206.678 46.6671C206.678 46.6193 206.672 46.5776 206.66 46.5299C206.66 46.4106 206.606 46.3092 206.516 46.2197C206.426 46.1302 206.3 46.0408 206.138 45.9394C206.102 45.9215 206.066 45.8917 206.018 45.8618L205.303 45.3727C204.954 45.1342 204.69 44.8717 204.504 44.5973C204.318 44.317 204.228 43.983 204.228 43.6012C204.228 43.1658 204.396 42.8258 204.738 42.5873C205.075 42.3546 205.555 42.2354 206.18 42.2354C207.393 42.2354 208 42.8557 208 44.1023H206.696C206.696 43.7742 206.648 43.5535 206.558 43.4223C206.462 43.2971 206.312 43.2314 206.096 43.2314C205.928 43.2314 205.795 43.2732 205.693 43.3448C205.591 43.4223 205.543 43.5356 205.543 43.6907C205.543 43.8279 205.579 43.9412 205.657 44.0307C205.735 44.1202 205.849 44.2156 206.006 44.323L206.036 44.3409L207.099 45.0566C207.183 45.1043 207.279 45.1699 207.375 45.2534C207.471 45.3369 207.567 45.4324 207.658 45.5397C207.748 45.6411 207.826 45.7485 207.886 45.8618C207.952 45.9692 207.982 46.0706 207.994 46.166C208.006 46.2972 208.012 46.4285 208.012 46.5478C208.012 46.7744 207.982 46.9832 207.922 47.1681C207.862 47.3589 207.76 47.526 207.616 47.6751C207.471 47.8242 207.273 47.9435 207.015 48.027C206.757 48.1164 206.438 48.1582 206.054 48.1582C205.862 48.1582 205.657 48.1343 205.453 48.0807C205.249 48.0329 205.051 47.9435 204.858 47.8242C204.672 47.6989 204.516 47.526 204.39 47.2933C204.264 47.0607 204.204 46.7685 204.204 46.4225V46.2913C204.204 46.2316 204.216 46.1839 204.216 46.1541H205.519L205.507 46.1481Z" fill="white"/>
<path d="M26.0037 17.6433V0.345947L0.600586 14.9055L15.6899 23.5602L26.0037 17.6433Z" fill="white"/>
<path d="M38.1136 37.1118L53.2028 45.7545L38.1136 37.0999L27.2051 43.3567L38.1136 37.1118Z" fill="white"/>
<path d="M15.6899 37.4458L0.600586 46.0945L26.0037 60.66V43.3567L15.6899 37.4458Z" fill="white"/>
<path d="M15.0893 24.5921L0 15.9375V45.0627L15.0893 36.414V24.5921Z" fill="white"/>
<path d="M38.1136 37.1118L27.2051 43.3568V60.6601L53.2028 45.7545L38.1136 37.1118Z" fill="white"/>
<path d="M38.1136 23.9001L27.2051 17.6433V17.6492L38.1136 23.9121L53.2028 15.2515L38.1136 23.9061V23.9001Z" fill="white"/>
<path d="M38.1136 23.9002V23.9061L53.2028 15.2515L27.2051 0.345947V17.6433L38.1136 23.9002Z" fill="white"/>
<path d="M22.4839 30.7953C22.4839 33.0559 24.328 34.887 26.6046 34.887C28.8812 34.887 30.7253 33.0559 30.7253 30.7953C30.7253 28.5347 28.8812 26.7036 26.6046 26.7036C24.328 26.7036 22.4839 28.5347 22.4839 30.7953Z" fill="white"/>
</g>
<defs>
<clipPath id="clip0_36_1104">
<rect width="208" height="61" fill="white"/>
</clipPath>
</defs>
</svg>
